{"glyphs":{"0":{"ha":833,"x_min":81,"x_max":753,"o":"m 417 -11 q 166 117 251 -11 q 81 489 81 246 q 119 765 81 654 q 232 933 157 876 q 417 990 307 990 q 668 864 583 990 q 753 490 753 738 q 715 215 753 328 q 601 46 676 103 q 417 -11 526 -11 m 417 65 q 604 169 543 65 q 665 490 665 274 q 605 812 665 710 q 417 914 544 914 q 229 811 290 914 q 168 490 168 708 q 229 169 168 274 q 417 65 290 65 z "},"1":{"ha":833,"x_min":174,"x_max":711,"o":"m 214 0 q 185 10 196 0 q 174 39 174 21 q 185 66 174 57 q 214 75 196 75 l 407 75 l 407 911 l 456 911 l 254 774 q 228 765 240 764 q 207 774 215 765 q 195 793 199 782 q 196 817 192 804 q 214 838 200 829 l 406 971 q 431 983 419 979 q 456 988 442 988 q 481 978 471 988 q 492 949 492 969 l 492 75 l 671 75 q 701 66 690 75 q 711 39 711 57 q 701 10 711 19 q 671 0 690 0 l 214 0 z "},"2":{"ha":833,"x_min":100,"x_max":751,"o":"m 176 0 q 140 12 151 0 q 128 43 128 24 q 133 65 128 54 q 149 86 139 76 l 474 438 q 582 587 549 518 q 615 728 615 656 q 561 865 615 818 q 403 913 507 913 q 274 890 333 913 q 161 822 215 867 q 135 811 147 811 q 115 819 124 811 q 103 838 107 826 q 103 863 100 850 q 118 885 107 875 q 249 961 172 932 q 407 990 325 990 q 567 960 501 990 q 668 872 633 931 q 703 732 703 814 q 683 617 703 674 q 626 501 664 560 q 528 379 588 443 l 215 49 l 215 75 l 711 75 q 741 66 731 75 q 751 39 751 57 q 741 10 751 19 q 711 0 731 0 l 176 0 z "},"3":{"ha":833,"x_min":83,"x_max":726,"o":"m 408 -11 q 244 14 325 -11 q 104 89 164 39 q 87 111 90 99 q 86 135 83 124 q 97 154 89 146 q 118 163 106 163 q 146 153 131 164 q 273 88 208 108 q 408 67 338 67 q 535 90 483 67 q 613 157 586 113 q 640 267 640 201 q 578 410 640 361 q 400 460 517 460 l 296 460 q 265 470 276 460 q 254 497 254 481 q 265 525 254 515 q 296 535 276 535 l 393 535 q 510 560 461 535 q 585 630 558 585 q 613 739 613 675 q 559 867 613 822 q 404 913 506 913 q 276 891 336 913 q 163 822 217 869 q 138 810 150 811 q 116 817 125 810 q 103 835 107 824 q 103 860 99 847 q 121 885 107 874 q 251 963 175 936 q 407 990 326 990 q 564 961 499 990 q 665 876 629 932 q 700 743 700 821 q 677 632 700 682 q 613 547 654 582 q 513 497 571 513 l 513 513 q 670 428 614 494 q 726 263 726 363 q 688 117 726 179 q 579 22 650 56 q 408 -11 508 -11 z "},"4":{"ha":833,"x_min":74,"x_max":786,"o":"m 585 -8 q 553 3 564 -8 q 542 35 542 14 l 542 221 l 118 221 q 85 231 97 221 q 74 261 74 242 q 78 284 74 272 q 94 313 83 296 l 538 960 q 559 981 547 974 q 586 988 571 988 q 616 977 604 988 q 628 944 628 967 l 628 296 l 744 296 q 776 286 765 296 q 786 258 786 276 q 776 231 786 240 q 744 221 765 221 l 628 221 l 628 35 q 617 3 628 14 q 585 -8 606 -8 m 542 296 l 542 882 l 572 882 l 154 272 l 154 296 l 542 296 z "},"5":{"ha":833,"x_min":119,"x_max":763,"o":"m 443 -11 q 281 15 361 -11 q 138 93 201 40 q 123 115 126 103 q 123 138 119 126 q 135 158 126 150 q 156 166 143 165 q 183 156 169 167 q 307 88 242 110 q 443 67 372 67 q 567 95 515 67 q 648 174 619 124 q 676 292 676 225 q 617 464 676 397 q 453 531 557 531 q 331 506 385 531 q 235 425 278 481 q 217 407 228 414 q 193 400 207 400 q 163 411 174 400 q 153 440 153 422 l 153 938 q 164 969 153 958 q 194 979 175 979 l 672 979 q 703 969 693 979 q 714 942 714 960 q 703 914 714 924 q 672 904 693 904 l 238 904 l 238 479 l 213 479 q 315 574 249 540 q 464 608 382 608 q 622 569 556 608 q 726 461 689 531 q 763 299 763 392 q 724 138 763 207 q 613 28 685 68 q 443 -11 542 -11 z "},"6":{"ha":833,"x_min":96,"x_max":756,"o":"m 450 -11 q 257 44 336 -11 q 137 206 178 100 q 96 463 96 313 q 122 689 96 590 q 197 854 147 788 q 319 956 247 921 q 481 990 390 990 q 615 963 546 990 q 735 885 685 936 q 749 863 746 875 q 747 839 751 850 q 735 820 743 828 q 714 813 726 813 q 689 825 701 814 q 588 892 642 871 q 479 913 533 913 q 317 865 383 913 q 215 720 250 817 q 181 479 181 624 l 181 339 l 171 339 q 217 483 178 422 q 318 576 256 543 q 457 608 381 608 q 612 569 544 608 q 717 461 679 531 q 756 301 756 392 q 717 140 756 211 q 608 28 678 68 q 450 -11 539 -11 m 443 65 q 561 94 510 65 q 641 176 613 124 q 669 299 669 229 q 641 420 669 368 q 561 502 613 472 q 443 532 510 532 q 325 502 376 532 q 245 420 274 472 q 217 299 217 368 q 245 176 217 229 q 325 94 274 124 q 443 65 376 65 z "},"7":{"ha":833,"x_min":92,"x_max":733,"o":"m 231 -8 q 206 -1 217 -8 q 192 19 196 6 q 197 49 189 32 l 656 947 l 656 903 l 133 903 q 103 913 114 903 q 92 942 92 924 q 103 969 92 960 q 133 979 114 979 l 690 979 q 722 969 711 979 q 733 942 733 960 q 731 917 733 928 q 719 892 728 906 l 278 21 q 260 -1 271 6 q 231 -8 249 -8 z "},"8":{"ha":833,"x_min":74,"x_max":760,"o":"m 417 -11 q 233 20 310 -11 q 115 112 156 51 q 74 257 74 172 q 102 379 74 326 q 181 465 131 432 q 296 507 231 499 l 296 490 q 151 576 204 510 q 97 732 97 642 q 137 872 97 814 q 249 960 176 929 q 417 990 321 990 q 585 960 514 990 q 697 872 657 929 q 736 732 736 814 q 712 622 736 672 q 644 538 688 572 q 538 490 600 504 l 538 507 q 699 426 638 493 q 760 257 760 360 q 719 112 760 172 q 601 20 678 51 q 417 -11 525 -11 m 417 63 q 609 112 544 63 q 674 261 674 161 q 609 410 674 361 q 417 458 544 458 q 225 410 290 458 q 160 261 160 361 q 225 112 160 161 q 417 63 290 63 m 417 533 q 542 556 490 533 q 623 623 594 579 q 651 726 651 667 q 590 867 651 817 q 417 917 528 917 q 244 867 307 917 q 182 726 182 817 q 244 585 182 636 q 417 533 307 533 z "},"9":{"ha":833,"x_min":78,"x_max":738,"o":"m 353 -11 q 218 17 288 -11 q 99 96 149 44 q 85 118 88 106 q 86 142 82 131 q 99 160 90 153 q 119 167 107 168 q 144 156 132 167 q 246 88 192 110 q 354 67 300 67 q 517 115 450 67 q 618 259 583 163 q 653 500 653 356 l 653 640 l 663 640 q 617 497 656 558 q 516 403 578 436 q 376 371 454 371 q 222 410 289 371 q 116 519 154 449 q 78 678 78 589 q 117 840 78 769 q 226 951 157 911 q 383 990 294 990 q 576 935 497 990 q 697 773 656 879 q 738 517 738 667 q 712 290 738 389 q 636 125 686 192 q 515 24 586 58 q 353 -11 443 -11 m 390 447 q 509 477 458 447 q 589 560 560 507 q 618 681 618 613 q 589 803 618 750 q 509 885 560 856 q 390 915 458 915 q 273 885 324 915 q 193 803 222 856 q 164 681 164 750 q 193 560 164 613 q 273 477 222 507 q 390 447 324 447 z "},"A":{"ha":1003,"x_min":53,"x_max":951,"o":"m 93 -8 q 65 -1 75 -8 q 53 21 54 7 q 60 51 53 35 l 450 949 q 474 978 460 969 q 501 988 488 988 q 531 978 518 988 q 553 949 544 969 l 943 51 q 951 21 951 35 q 941 -1 950 7 q 914 -8 932 -8 q 883 2 894 -8 q 863 31 871 13 l 756 282 l 801 261 l 200 261 l 247 282 l 140 31 q 120 1 132 10 q 93 -8 108 -8 m 500 874 l 264 318 l 232 335 l 769 335 l 740 318 l 503 874 l 500 874 z "},"Á":{"ha":1003,"x_min":53,"x_max":951,"o":"m 93 -8 q 65 -1 75 -8 q 53 21 54 7 q 60 51 53 35 l 450 949 q 474 978 460 969 q 501 988 488 988 q 531 978 518 988 q 553 949 544 969 l 943 51 q 951 21 951 35 q 941 -1 950 7 q 914 -8 932 -8 q 883 2 894 -8 q 863 31 871 13 l 756 282 l 801 261 l 200 261 l 247 282 l 140 31 q 120 1 132 10 q 93 -8 108 -8 m 500 874 l 264 318 l 232 335 l 769 335 l 740 318 l 503 874 l 500 874 m 542 1068 q 521 1056 532 1057 q 501 1060 510 1054 q 489 1077 492 1067 q 494 1100 486 1088 l 625 1289 q 648 1308 635 1304 q 673 1308 661 1313 q 693 1295 685 1304 q 701 1274 701 1286 q 690 1249 701 1263 l 542 1068 z "},"Ă":{"ha":1003,"x_min":53,"x_max":951,"o":"m 93 -8 q 65 -1 75 -8 q 53 21 54 7 q 60 51 53 35 l 450 949 q 474 978 460 969 q 501 988 488 988 q 531 978 518 988 q 553 949 544 969 l 943 51 q 951 21 951 35 q 941 -1 950 7 q 914 -8 932 -8 q 883 2 894 -8 q 863 31 871 13 l 756 282 l 801 261 l 200 261 l 247 282 l 140 31 q 120 1 132 10 q 93 -8 108 -8 m 500 874 l 264 318 l 232 335 l 769 335 l 740 318 l 503 874 l 500 874 m 503 1056 q 362 1105 424 1056 q 279 1261 300 1154 q 285 1288 276 1278 q 306 1299 293 1297 q 321 1295 314 1299 q 332 1285 328 1292 q 338 1271 336 1279 q 400 1152 353 1186 q 503 1118 447 1118 q 606 1152 558 1118 q 668 1271 654 1186 q 674 1285 669 1279 q 685 1295 678 1292 q 700 1299 693 1299 q 721 1288 713 1297 q 726 1261 729 1278 q 644 1105 706 1154 q 503 1056 582 1056 z "},"Ắ":{"ha":1003,"x_min":53,"x_max":951,"o":"m 93 -8 q 65 -1 75 -8 q 53 21 54 7 q 60 51 53 35 l 450 949 q 474 978 460 969 q 501 988 488 988 q 531 978 518 988 q 553 949 544 969 l 943 51 q 951 21 951 35 q 941 -1 950 7 q 914 -8 932 -8 q 883 2 894 -8 q 863 31 871 13 l 756 282 l 801 261 l 200 261 l 247 282 l 140 31 q 120 1 132 10 q 93 -8 108 -8 m 500 874 l 264 318 l 232 335 l 769 335 l 740 318 l 503 874 l 500 874 m 503 1056 q 366 1103 419 1056 q 299 1235 313 1151 q 303 1263 296 1253 q 322 1274 310 1272 q 342 1268 335 1275 q 353 1244 350 1261 q 403 1151 364 1185 q 503 1117 442 1117 q 603 1151 564 1117 q 653 1244 642 1185 q 665 1268 657 1261 q 685 1274 674 1275 q 705 1262 699 1272 q 707 1233 711 1251 q 672 1138 700 1178 q 600 1077 643 1099 q 503 1056 557 1056 m 524 1203 q 506 1193 517 1194 q 486 1197 494 1192 q 475 1213 478 1203 q 481 1236 472 1222 l 586 1401 q 608 1422 594 1417 q 633 1424 621 1426 q 652 1411 644 1421 q 660 1390 660 1401 q 650 1364 661 1378 l 524 1203 z "},"Ặ":{"ha":1003,"x_min":53,"x_max":951,"o":"m 93 -8 q 65 -1 75 -8 q 53 21 54 7 q 60 51 53 35 l 450 949 q 474 978 460 969 q 501 988 488 988 q 531 978 518 988 q 553 949 544 969 l 943 51 q 951 21 951 35 q 941 -1 950 7 q 914 -8 932 -8 q 883 2 894 -8 q 863 31 871 13 l 756 282 l 801 261 l 200 261 l 247 282 l 140 31 q 120 1 132 10 q 93 -8 108 -8 m 500 874 l 264 318 l 232 335 l 769 335 l 740 318 l 503 874 l 500 874 m 503 -254 q 460 -239 476 -254 q 444 -196 444 -224 q 460 -154 444 -168 q 503 -140 476 -140 q 546 -154 531 -140 q 561 -196 561 -168 q 546 -239 561 -224 q 503 -254 531 -254 m 503 1056 q 362 1105 424 1056 q 279 1261 300 1154 q 285 1288 276 1278 q 306 1299 293 1297 q 321 1295 314 1299 q 332 1285 328 1292 q 338 1271 336 1279 q 400 1152 353 1186 q 503 1118 447 1118 q 606 1152 558 1118 q 668 1271 654 1186 q 674 1285 669 1279 q 685 1295 678 1292 q 700 1299 693 1299 q 721 1288 713 1297 q 726 1261 729 1278 q 644 1105 706 1154 q 503 1056 582 1056 z "},"Ằ":{"ha":1003,"x_min":53,"x_max":951,"o":"m 93 -8 q 65 -1 75 -8 q 53 21 54 7 q 60 51 53 35 l 450 949 q 474 978 460 969 q 501 988 488 988 q 531 978 518 988 q 553 949 544 969 l 943 51 q 951 21 951 35 q 941 -1 950 7 q 914 -8 932 -8 q 883 2 894 -8 q 863 31 871 13 l 756 282 l 801 261 l 200 261 l 247 282 l 140 31 q 120 1 132 10 q 93 -8 108 -8 m 500 874 l 264 318 l 232 335 l 769 335 l 740 318 l 503 874 l 500 874 m 503 1056 q 366 1103 421 1056 q 299 1233 311 1150 q 302 1262 296 1251 q 321 1274 308 1272 q 342 1268 333 1275 q 353 1244 350 1261 q 403 1151 364 1185 q 503 1117 442 1117 q 603 1151 564 1117 q 653 1244 642 1185 q 665 1268 657 1261 q 683 1274 672 1275 q 704 1263 697 1272 q 707 1235 711 1253 q 671 1139 699 1179 q 601 1077 643 1099 q 503 1056 558 1056 m 482 1203 l 356 1364 q 345 1390 344 1378 q 353 1411 346 1401 q 373 1424 361 1421 q 398 1422 385 1426 q 419 1401 411 1417 l 525 1236 q 531 1213 533 1222 q 519 1197 528 1203 q 500 1193 511 1192 q 482 1203 489 1194 z "},"Ẳ":{"ha":1003,"x_min":53,"x_max":951,"o":"m 93 -8 q 65 -1 75 -8 q 53 21 54 7 q 60 51 53 35 l 450 949 q 474 978 460 969 q 501 988 488 988 q 531 978 518 988 q 553 949 544 969 l 943 51 q 951 21 951 35 q 941 -1 950 7 q 914 -8 932 -8 q 883 2 894 -8 q 863 31 871 13 l 756 282 l 801 261 l 200 261 l 247 282 l 140 31 q 120 1 132 10 q 93 -8 108 -8 m 500 874 l 264 318 l 232 335 l 769 335 l 740 318 l 503 874 l 500 874 m 503 1056 q 366 1103 421 1056 q 299 1233 311 1150 q 302 1262 296 1251 q 321 1274 308 1272 q 342 1268 333 1275 q 353 1244 350 1261 q 403 1151 364 1185 q 503 1117 442 1117 q 603 1151 564 1117 q 653 1244 642 1185 q 665 1268 657 1261 q 683 1274 672 1275 q 704 1263 697 1272 q 707 1235 711 1253 q 671 1139 699 1179 q 601 1077 643 1099 q 503 1056 558 1056 m 521 1203 q 498 1199 508 1197 q 482 1206 488 1200 q 478 1219 476 1211 q 492 1236 479 1228 q 544 1278 526 1258 q 561 1324 561 1299 q 546 1356 561 1346 q 494 1365 531 1365 q 467 1363 482 1365 q 436 1357 453 1361 q 411 1357 421 1354 q 397 1371 401 1360 q 399 1390 394 1382 q 419 1404 404 1399 q 462 1414 439 1411 q 508 1417 485 1417 q 598 1397 565 1417 q 631 1336 631 1378 q 615 1282 631 1307 q 574 1238 600 1257 q 521 1203 549 1218 z "},"Ẵ":{"ha":1003,"x_min":53,"x_max":951,"o":"m 93 -8 q 65 -1 75 -8 q 53 21 54 7 q 60 51 53 35 l 450 949 q 474 978 460 969 q 501 988 488 988 q 531 978 518 988 q 553 949 544 969 l 943 51 q 951 21 951 35 q 941 -1 950 7 q 914 -8 932 -8 q 883 2 894 -8 q 863 31 871 13 l 756 282 l 801 261 l 200 261 l 247 282 l 140 31 q 120 1 132 10 q 93 -8 108 -8 m 500 874 l 264 318 l 232 335 l 769 335 l 740 318 l 503 874 l 500 874 m 503 1056 q 380 1089 432 1056 q 304 1176 328 1122 q 303 1203 299 1193 q 321 1215 308 1214 q 342 1213 333 1218 q 358 1194 351 1208 q 413 1138 375 1158 q 503 1117 451 1117 q 593 1138 556 1117 q 647 1194 631 1158 q 663 1213 654 1208 q 685 1215 672 1218 q 703 1203 699 1214 q 701 1176 708 1193 q 626 1089 678 1122 q 503 1056 575 1056 m 319 1276 q 301 1288 308 1278 q 299 1314 294 1297 q 340 1391 310 1365 q 414 1417 371 1417 q 481 1397 453 1417 q 535 1357 510 1376 q 590 1338 561 1338 q 631 1349 615 1338 q 654 1389 647 1361 q 666 1412 657 1404 q 688 1418 675 1419 q 706 1407 700 1417 q 708 1381 711 1397 q 667 1303 697 1329 q 593 1278 636 1278 q 525 1298 554 1278 q 470 1338 496 1318 q 415 1357 444 1357 q 375 1345 390 1357 q 353 1306 360 1333 q 341 1283 349 1290 q 319 1276 333 1275 z "},"Ǎ":{"ha":1003,"x_min":53,"x_max":951,"o":"m 93 -8 q 65 -1 75 -8 q 53 21 54 7 q 60 51 53 35 l 450 949 q 474 978 460 969 q 501 988 488 988 q 531 978 518 988 q 553 949 544 969 l 943 51 q 951 21 951 35 q 941 -1 950 7 q 914 -8 932 -8 q 883 2 894 -8 q 863 31 871 13 l 756 282 l 801 261 l 200 261 l 247 282 l 140 31 q 120 1 132 10 q 93 -8 108 -8 m 500 874 l 264 318 l 232 335 l 769 335 l 740 318 l 503 874 l 500 874 m 503 1051 q 472 1058 486 1051 q 446 1082 457 1065 l 314 1267 q 308 1290 306 1279 q 319 1306 310 1300 q 340 1310 328 1311 q 361 1296 351 1308 l 503 1125 l 644 1296 q 666 1310 654 1308 q 687 1306 678 1311 q 698 1290 696 1300 q 692 1267 700 1279 l 561 1082 q 534 1058 549 1065 q 503 1051 519 1051 z "},"Â":{"ha":1003,"x_min":53,"x_max":951,"o":"m 93 -8 q 65 -1 75 -8 q 53 21 54 7 q 60 51 53 35 l 450 949 q 474 978 460 969 q 501 988 488 988 q 531 978 518 988 q 553 949 544 969 l 943 51 q 951 21 951 35 q 941 -1 950 7 q 914 -8 932 -8 q 883 2 894 -8 q 863 31 871 13 l 756 282 l 801 261 l 200 261 l 247 282 l 140 31 q 120 1 132 10 q 93 -8 108 -8 m 500 874 l 264 318 l 232 335 l 769 335 l 740 318 l 503 874 l 500 874 m 361 1065 q 340 1053 351 1054 q 319 1057 328 1051 q 308 1073 310 1063 q 314 1094 306 1083 l 446 1279 q 472 1303 457 1297 q 503 1310 486 1310 q 534 1303 519 1310 q 561 1279 549 1297 l 692 1094 q 698 1073 700 1083 q 687 1057 696 1063 q 666 1053 678 1051 q 644 1065 654 1054 l 503 1238 l 361 1065 z "},"Ấ":{"ha":1003,"x_min":53,"x_max":951,"o":"m 93 -8 q 65 -1 75 -8 q 53 21 54 7 q 60 51 53 35 l 450 949 q 474 978 460 969 q 501 988 488 988 q 531 978 518 988 q 553 949 544 969 l 943 51 q 951 21 951 35 q 941 -1 950 7 q 914 -8 932 -8 q 883 2 894 -8 q 863 31 871 13 l 756 282 l 801 261 l 200 261 l 247 282 l 140 31 q 120 1 132 10 q 93 -8 108 -8 m 500 874 l 264 318 l 232 335 l 769 335 l 740 318 l 503 874 l 500 874 m 374 1067 q 353 1053 364 1056 q 335 1057 343 1051 q 324 1073 326 1063 q 331 1096 322 1083 l 447 1267 q 473 1291 458 1285 q 503 1297 488 1297 q 524 1294 514 1297 q 542 1285 533 1292 q 558 1267 551 1279 l 675 1096 q 681 1073 683 1083 q 672 1057 679 1063 q 653 1053 664 1051 q 632 1067 642 1056 l 503 1225 l 374 1067 m 681 1199 q 664 1189 674 1190 q 646 1193 654 1188 q 635 1208 638 1199 q 640 1232 633 1218 l 740 1403 q 760 1423 749 1418 q 783 1425 772 1428 q 802 1413 794 1422 q 810 1392 810 1404 q 803 1368 811 1381 l 681 1199 z "},"Ậ":{"ha":1003,"x_min":53,"x_max":951,"o":"m 93 -8 q 65 -1 75 -8 q 53 21 54 7 q 60 51 53 35 l 450 949 q 474 978 460 969 q 501 988 488 988 q 531 978 518 988 q 553 949 544 969 l 943 51 q 951 21 951 35 q 941 -1 950 7 q 914 -8 932 -8 q 883 2 894 -8 q 863 31 871 13 l 756 282 l 801 261 l 200 261 l 247 282 l 140 31 q 120 1 132 10 q 93 -8 108 -8 m 500 874 l 264 318 l 232 335 l 769 335 l 740 318 l 503 874 l 500 874 m 503 -254 q 460 -239 476 -254 q 444 -196 444 -224 q 460 -154 444 -168 q 503 -140 476 -140 q 546 -154 531 -140 q 561 -196 561 -168 q 546 -239 561 -224 q 503 -254 531 -254 m 361 1065 q 340 1053 351 1054 q 319 1057 328 1051 q 308 1073 310 1063 q 314 1094 306 1083 l 446 1279 q 472 1303 457 1297 q 503 1310 486 1310 q 534 1303 519 1310 q 561 1279 549 1297 l 692 1094 q 698 1073 700 1083 q 687 1057 696 1063 q 666 1053 678 1051 q 644 1065 654 1054 l 503 1238 l 361 1065 z "},"Ầ":{"ha":1003,"x_min":53,"x_max":951,"o":"m 93 -8 q 65 -1 75 -8 q 53 21 54 7 q 60 51 53 35 l 450 949 q 474 978 460 969 q 501 988 488 988 q 531 978 518 988 q 553 949 544 969 l 943 51 q 951 21 951 35 q 941 -1 950 7 q 914 -8 932 -8 q 883 2 894 -8 q 863 31 871 13 l 756 282 l 801 261 l 200 261 l 247 282 l 140 31 q 120 1 132 10 q 93 -8 108 -8 m 500 874 l 264 318 l 232 335 l 769 335 l 740 318 l 503 874 l 500 874 m 374 1067 q 353 1053 364 1056 q 335 1057 343 1051 q 324 1073 326 1063 q 331 1096 322 1083 l 447 1267 q 473 1291 458 1285 q 503 1297 488 1297 q 524 1294 514 1297 q 542 1285 533 1292 q 558 1267 551 1279 l 675 1096 q 681 1073 683 1083 q 672 1057 679 1063 q 653 1053 664 1051 q 632 1067 642 1056 l 503 1225 l 374 1067 m 685 1199 l 563 1368 q 555 1392 554 1381 q 563 1413 556 1404 q 582 1425 571 1422 q 604 1423 593 1428 q 625 1403 615 1418 l 725 1232 q 731 1208 733 1218 q 719 1193 728 1199 q 701 1189 711 1188 q 685 1199 692 1190 z "},"Ẩ":{"ha":1003,"x_min":53,"x_max":951,"o":"m 93 -8 q 65 -1 75 -8 q 53 21 54 7 q 60 51 53 35 l 450 949 q 474 978 460 969 q 501 988 488 988 q 531 978 518 988 q 553 949 544 969 l 943 51 q 951 21 951 35 q 941 -1 950 7 q 914 -8 932 -8 q 883 2 894 -8 q 863 31 871 13 l 756 282 l 801 261 l 200 261 l 247 282 l 140 31 q 120 1 132 10 q 93 -8 108 -8 m 500 874 l 264 318 l 232 335 l 769 335 l 740 318 l 503 874 l 500 874 m 374 1067 q 353 1053 364 1056 q 335 1057 343 1051 q 324 1073 326 1063 q 331 1096 322 1083 l 447 1267 q 473 1291 458 1285 q 503 1297 488 1297 q 524 1294 514 1297 q 542 1285 533 1292 q 558 1267 551 1279 l 675 1096 q 681 1073 683 1083 q 672 1057 679 1063 q 653 1053 664 1051 q 632 1067 642 1056 l 503 1225 l 374 1067 m 682 1201 q 653 1199 665 1194 q 640 1215 642 1203 q 654 1236 639 1226 q 708 1279 690 1258 q 725 1324 725 1300 q 710 1356 725 1346 q 658 1365 694 1365 q 631 1364 646 1365 q 600 1358 617 1363 q 575 1357 585 1354 q 561 1371 565 1360 q 563 1392 558 1383 q 583 1406 568 1400 q 626 1415 603 1413 q 672 1418 649 1418 q 761 1398 729 1418 q 793 1336 793 1378 q 777 1281 793 1307 q 735 1236 761 1256 q 682 1201 710 1217 z "},"Ẫ":{"ha":1003,"x_min":53,"x_max":951,"o":"m 93 -8 q 65 -1 75 -8 q 53 21 54 7 q 60 51 53 35 l 450 949 q 474 978 460 969 q 501 988 488 988 q 531 978 518 988 q 553 949 544 969 l 943 51 q 951 21 951 35 q 941 -1 950 7 q 914 -8 932 -8 q 883 2 894 -8 q 863 31 871 13 l 756 282 l 801 261 l 200 261 l 247 282 l 140 31 q 120 1 132 10 q 93 -8 108 -8 m 500 874 l 264 318 l 232 335 l 769 335 l 740 318 l 503 874 l 500 874 m 371 1064 q 343 1054 357 1051 q 326 1068 329 1057 q 333 1093 322 1079 l 444 1226 q 474 1249 460 1243 q 503 1254 488 1254 q 524 1252 514 1254 q 542 1244 533 1250 q 561 1226 551 1238 l 672 1093 q 681 1073 682 1082 q 673 1058 679 1064 q 656 1053 667 1053 q 635 1064 646 1054 l 503 1189 l 371 1064 m 319 1278 q 301 1289 308 1279 q 299 1315 294 1299 q 340 1392 310 1367 q 414 1417 371 1417 q 481 1397 453 1417 q 535 1358 510 1378 q 590 1339 561 1339 q 631 1351 615 1339 q 654 1390 647 1363 q 666 1413 657 1406 q 688 1418 675 1419 q 706 1408 700 1417 q 708 1381 711 1399 q 667 1304 697 1329 q 593 1279 636 1279 q 525 1299 554 1279 q 470 1338 496 1318 q 415 1357 444 1357 q 375 1345 390 1357 q 353 1306 360 1333 q 341 1284 349 1292 q 319 1278 333 1276 z "},"Ȁ":{"ha":1003,"x_min":53,"x_max":951,"o":"m 93 -8 q 65 -1 75 -8 q 53 21 54 7 q 60 51 53 35 l 450 949 q 474 978 460 969 q 501 988 488 988 q 531 978 518 988 q 553 949 544 969 l 943 51 q 951 21 951 35 q 941 -1 950 7 q 914 -8 932 -8 q 883 2 894 -8 q 863 31 871 13 l 756 282 l 801 261 l 200 261 l 247 282 l 140 31 q 120 1 132 10 q 93 -8 108 -8 m 500 874 l 264 318 l 232 335 l 769 335 l 740 318 l 503 874 l 500 874 m 556 1067 l 433 1251 q 425 1278 424 1265 q 435 1299 426 1290 q 455 1310 443 1307 q 478 1307 467 1313 q 499 1285 490 1301 l 599 1088 q 601 1067 604 1076 q 590 1055 599 1058 q 573 1053 582 1051 q 556 1067 564 1056 m 394 1065 l 269 1251 q 260 1278 258 1265 q 269 1299 261 1290 q 290 1310 278 1307 q 313 1307 301 1313 q 333 1285 325 1301 l 435 1088 q 438 1069 440 1078 q 428 1056 436 1060 q 410 1053 419 1051 q 394 1065 401 1056 z "},"Ä":{"ha":1003,"x_min":53,"x_max":951,"o":"m 93 -8 q 65 -1 75 -8 q 53 21 54 7 q 60 51 53 35 l 450 949 q 474 978 460 969 q 501 988 488 988 q 531 978 518 988 q 553 949 544 969 l 943 51 q 951 21 951 35 q 941 -1 950 7 q 914 -8 932 -8 q 883 2 894 -8 q 863 31 871 13 l 756 282 l 801 261 l 200 261 l 247 282 l 140 31 q 120 1 132 10 q 93 -8 108 -8 m 500 874 l 264 318 l 232 335 l 769 335 l 740 318 l 503 874 l 500 874 m 619 1125 q 578 1139 593 1125 q 564 1181 564 1153 q 578 1221 564 1207 q 619 1235 593 1235 q 660 1221 646 1235 q 675 1181 675 1207 q 660 1139 675 1153 q 619 1125 646 1125 m 388 1125 q 346 1139 361 1125 q 331 1181 331 1153 q 346 1221 331 1207 q 388 1235 361 1235 q 428 1221 414 1235 q 442 1181 442 1207 q 428 1139 442 1153 q 388 1125 414 1125 z "},"Ȧ":{"ha":1003,"x_min":53,"x_max":951,"o":"m 93 -8 q 65 -1 75 -8 q 53 21 54 7 q 60 51 53 35 l 450 949 q 474 978 460 969 q 501 988 488 988 q 531 978 518 988 q 553 949 544 969 l 943 51 q 951 21 951 35 q 941 -1 950 7 q 914 -8 932 -8 q 883 2 894 -8 q 863 31 871 13 l 756 282 l 801 261 l 200 261 l 247 282 l 140 31 q 120 1 132 10 q 93 -8 108 -8 m 500 874 l 264 318 l 232 335 l 769 335 l 740 318 l 503 874 l 500 874 m 503 1124 q 461 1139 476 1124 q 446 1181 446 1154 q 461 1223 446 1208 q 503 1238 476 1238 q 545 1223 531 1238 q 560 1181 560 1208 q 545 1139 560 1154 q 503 1124 531 1124 z "},"Ạ":{"ha":1003,"x_min":53,"x_max":951,"o":"m 93 -8 q 65 -1 75 -8 q 53 21 54 7 q 60 51 53 35 l 450 949 q 474 978 460 969 q 501 988 488 988 q 531 978 518 988 q 553 949 544 969 l 943 51 q 951 21 951 35 q 941 -1 950 7 q 914 -8 932 -8 q 883 2 894 -8 q 863 31 871 13 l 756 282 l 801 261 l 200 261 l 247 282 l 140 31 q 120 1 132 10 q 93 -8 108 -8 m 500 874 l 264 318 l 232 335 l 769 335 l 740 318 l 503 874 l 500 874 m 503 -254 q 460 -239 476 -254 q 444 -196 444 -224 q 460 -154 444 -168 q 503 -140 476 -140 q 546 -154 531 -140 q 561 -196 561 -168 q 546 -239 561 -224 q 503 -254 531 -254 z "},"À":{"ha":1003,"x_min":53,"x_max":951,"o":"m 93 -8 q 65 -1 75 -8 q 53 21 54 7 q 60 51 53 35 l 450 949 q 474 978 460 969 q 501 988 488 988 q 531 978 518 988 q 553 949 544 969 l 943 51 q 951 21 951 35 q 941 -1 950 7 q 914 -8 932 -8 q 883 2 894 -8 q 863 31 871 13 l 756 282 l 801 261 l 200 261 l 247 282 l 140 31 q 120 1 132 10 q 93 -8 108 -8 m 500 874 l 264 318 l 232 335 l 769 335 l 740 318 l 503 874 l 500 874 m 464 1068 l 315 1249 q 305 1274 304 1263 q 313 1295 306 1286 q 333 1308 321 1304 q 358 1308 346 1313 q 381 1289 371 1304 l 513 1100 q 518 1077 521 1088 q 506 1060 515 1067 q 485 1056 497 1054 q 464 1068 474 1057 z "},"Ả":{"ha":1003,"x_min":53,"x_max":951,"o":"m 93 -8 q 65 -1 75 -8 q 53 21 54 7 q 60 51 53 35 l 450 949 q 474 978 460 969 q 501 988 488 988 q 531 978 518 988 q 553 949 544 969 l 943 51 q 951 21 951 35 q 941 -1 950 7 q 914 -8 932 -8 q 883 2 894 -8 q 863 31 871 13 l 756 282 l 801 261 l 200 261 l 247 282 l 140 31 q 120 1 132 10 q 93 -8 108 -8 m 500 874 l 264 318 l 232 335 l 769 335 l 740 318 l 503 874 l 500 874 m 503 1054 q 479 1061 488 1054 q 471 1083 471 1068 q 485 1131 471 1113 q 517 1161 499 1149 q 549 1186 535 1174 q 563 1215 563 1199 q 546 1241 563 1232 q 493 1250 529 1250 q 465 1248 481 1250 q 433 1240 449 1246 q 403 1237 414 1235 q 389 1251 393 1239 q 391 1274 386 1264 q 411 1290 396 1285 q 458 1303 432 1299 q 507 1307 483 1307 q 602 1284 568 1307 q 636 1224 636 1261 q 621 1176 636 1193 q 586 1147 606 1158 q 551 1119 567 1135 q 536 1076 536 1104 q 527 1060 536 1067 q 503 1054 518 1054 z "},"Ȃ":{"ha":1003,"x_min":53,"x_max":951,"o":"m 93 -8 q 65 -1 75 -8 q 53 21 54 7 q 60 51 53 35 l 450 949 q 474 978 460 969 q 501 988 488 988 q 531 978 518 988 q 553 949 544 969 l 943 51 q 951 21 951 35 q 941 -1 950 7 q 914 -8 932 -8 q 883 2 894 -8 q 863 31 871 13 l 756 282 l 801 261 l 200 261 l 247 282 l 140 31 q 120 1 132 10 q 93 -8 108 -8 m 500 874 l 264 318 l 232 335 l 769 335 l 740 318 l 503 874 l 500 874 m 306 1053 q 285 1064 293 1054 q 279 1090 276 1074 q 362 1247 300 1197 q 503 1296 424 1296 q 644 1247 582 1296 q 726 1090 707 1197 q 721 1064 729 1074 q 700 1053 713 1054 q 685 1056 693 1053 q 674 1067 678 1060 q 668 1081 669 1074 q 605 1199 651 1165 q 503 1233 558 1233 q 401 1199 447 1233 q 338 1081 354 1165 q 332 1067 336 1074 q 321 1056 328 1060 q 306 1053 314 1053 z "},"Ā":{"ha":1003,"x_min":53,"x_max":951,"o":"m 93 -8 q 65 -1 75 -8 q 53 21 54 7 q 60 51 53 35 l 450 949 q 474 978 460 969 q 501 988 488 988 q 531 978 518 988 q 553 949 544 969 l 943 51 q 951 21 951 35 q 941 -1 950 7 q 914 -8 932 -8 q 883 2 894 -8 q 863 31 871 13 l 756 282 l 801 261 l 200 261 l 247 282 l 140 31 q 120 1 132 10 q 93 -8 108 -8 m 500 874 l 264 318 l 232 335 l 769 335 l 740 318 l 503 874 l 500 874 m 315 1136 q 281 1168 281 1136 q 290 1193 281 1185 q 315 1201 299 1201 l 690 1201 q 725 1168 725 1201 q 716 1145 725 1154 q 690 1136 707 1136 l 315 1136 z "},"Ą":{"ha":1003,"x_min":53,"x_max":1031,"o":"m 929 -265 q 830 -230 868 -265 q 792 -133 792 -194 q 815 -48 792 -89 q 878 24 838 -7 l 879 6 q 871 17 875 10 q 863 31 867 24 l 756 282 l 801 261 l 200 261 l 247 282 l 140 31 q 120 1 132 10 q 93 -8 108 -8 q 65 -1 75 -8 q 53 21 54 7 q 60 51 53 35 l 450 949 q 474 978 460 969 q 501 988 488 988 q 531 978 518 988 q 553 949 544 969 l 943 51 q 951 19 953 33 q 935 -4 949 4 q 904 -29 922 -12 q 872 -70 886 -46 q 858 -125 858 -94 q 882 -186 858 -167 q 940 -206 906 -206 q 967 -203 954 -206 q 992 -197 979 -201 q 1017 -198 1008 -192 q 1028 -215 1026 -204 q 1026 -237 1031 -226 q 1008 -253 1021 -247 q 968 -262 988 -260 q 929 -265 949 -265 m 500 874 l 264 318 l 232 335 l 769 335 l 740 318 l 503 874 l 500 874 z "},"Å":{"ha":1003,"x_min":53,"x_max":951,"o":"m 93 -8 q 65 -1 75 -8 q 53 21 54 7 q 60 51 53 35 l 450 949 q 474 978 460 969 q 501 988 488 988 q 531 978 518 988 q 553 949 544 969 l 943 51 q 951 21 951 35 q 941 -1 950 7 q 914 -8 932 -8 q 883 2 894 -8 q 863 31 871 13 l 756 282 l 801 261 l 200 261 l 247 282 l 140 31 q 120 1 132 10 q 93 -8 108 -8 m 500 874 l 264 318 l 232 335 l 769 335 l 740 318 l 503 874 l 500 874 m 503 1054 q 422 1076 458 1054 q 364 1133 385 1097 q 343 1211 343 1168 q 364 1290 343 1256 q 422 1347 385 1325 q 503 1368 458 1368 q 585 1347 549 1368 q 642 1290 621 1325 q 663 1211 663 1256 q 642 1133 663 1168 q 585 1076 621 1097 q 503 1054 549 1054 m 503 1107 q 578 1137 550 1107 q 607 1211 607 1167 q 578 1285 607 1256 q 503 1315 550 1315 q 428 1285 457 1315 q 399 1211 399 1256 q 428 1137 399 1167 q 503 1107 457 1107 z "},"Ǻ":{"ha":1003,"x_min":53,"x_max":951,"o":"m 93 -8 q 65 -1 75 -8 q 53 21 54 7 q 60 51 53 35 l 450 949 q 474 978 460 969 q 501 988 488 988 q 531 978 518 988 q 553 949 544 969 l 943 51 q 951 21 951 35 q 941 -1 950 7 q 914 -8 932 -8 q 883 2 894 -8 q 863 31 871 13 l 756 282 l 801 261 l 200 261 l 247 282 l 140 31 q 120 1 132 10 q 93 -8 108 -8 m 500 874 l 264 318 l 232 335 l 769 335 l 740 318 l 503 874 l 500 874 m 503 1054 q 422 1075 458 1054 q 365 1131 386 1096 q 344 1210 344 1167 q 365 1288 344 1253 q 422 1343 386 1322 q 503 1364 458 1364 q 553 1357 531 1364 q 596 1335 576 1350 l 701 1433 q 727 1444 714 1446 q 749 1434 740 1443 q 758 1413 758 1425 q 746 1389 758 1400 l 635 1296 q 661 1210 661 1257 q 640 1131 661 1167 q 583 1075 619 1096 q 503 1054 547 1054 m 503 1104 q 578 1135 550 1104 q 607 1210 607 1165 q 578 1284 607 1254 q 503 1314 550 1314 q 428 1284 457 1314 q 399 1210 399 1254 q 428 1135 399 1165 q 503 1104 457 1104 z "},"Ã":{"ha":1003,"x_min":53,"x_max":951,"o":"m 93 -8 q 65 -1 75 -8 q 53 21 54 7 q 60 51 53 35 l 450 949 q 474 978 460 969 q 501 988 488 988 q 531 978 518 988 q 553 949 544 969 l 943 51 q 951 21 951 35 q 941 -1 950 7 q 914 -8 932 -8 q 883 2 894 -8 q 863 31 871 13 l 756 282 l 801 261 l 200 261 l 247 282 l 140 31 q 120 1 132 10 q 93 -8 108 -8 m 500 874 l 264 318 l 232 335 l 769 335 l 740 318 l 503 874 l 500 874 m 251 1089 q 231 1099 239 1090 q 225 1124 224 1107 q 279 1234 238 1194 q 379 1274 321 1274 q 450 1256 417 1274 q 515 1217 483 1239 q 574 1178 546 1196 q 631 1161 603 1161 q 692 1187 668 1161 q 725 1257 717 1213 q 737 1276 729 1269 q 754 1282 744 1282 q 775 1272 767 1281 q 781 1247 783 1264 q 727 1138 768 1178 q 628 1097 686 1097 q 556 1115 590 1097 q 492 1153 522 1132 q 432 1192 461 1175 q 375 1210 403 1210 q 313 1184 338 1210 q 281 1114 289 1158 q 270 1096 278 1103 q 251 1089 263 1089 z "},"Æ":{"ha":1356,"x_min":11,"x_max":1294,"o":"m 50 -8 q 22 -1 32 -8 q 11 19 11 7 q 19 46 11 32 l 563 951 q 584 972 572 965 q 613 979 596 979 l 1253 979 q 1284 969 1274 979 q 1294 943 1294 960 q 1284 915 1294 924 q 1253 906 1274 906 l 651 906 l 668 942 l 760 511 l 728 533 l 1225 533 q 1256 524 1244 533 q 1267 497 1267 515 q 1256 469 1267 479 q 1225 460 1244 460 l 743 460 l 767 482 l 858 42 l 822 74 l 1253 74 q 1284 65 1274 74 q 1294 38 1294 56 q 1284 10 1294 19 q 1253 0 1274 0 l 826 0 q 781 36 790 0 l 729 286 l 764 261 l 218 261 l 253 285 l 97 21 q 78 -1 89 7 q 50 -8 67 -8 m 601 872 l 271 314 l 258 335 l 736 335 l 722 314 l 604 872 l 601 872 z "},"Ǽ":{"ha":1356,"x_min":11,"x_max":1294,"o":"m 50 -8 q 22 -1 32 -8 q 11 19 11 7 q 19 46 11 32 l 563 951 q 584 972 572 965 q 613 979 596 979 l 1253 979 q 1284 969 1274 979 q 1294 943 1294 960 q 1284 915 1294 924 q 1253 906 1274 906 l 651 906 l 668 942 l 760 511 l 728 533 l 1225 533 q 1256 524 1244 533 q 1267 497 1267 515 q 1256 469 1267 479 q 1225 460 1244 460 l 743 460 l 767 482 l 858 42 l 822 74 l 1253 74 q 1284 65 1274 74 q 1294 38 1294 56 q 1284 10 1294 19 q 1253 0 1274 0 l 826 0 q 781 36 790 0 l 729 286 l 764 261 l 218 261 l 253 285 l 97 21 q 78 -1 89 7 q 50 -8 67 -8 m 601 872 l 271 314 l 258 335 l 736 335 l 722 314 l 604 872 l 601 872 m 714 1068 q 693 1056 704 1057 q 673 1060 682 1054 q 661 1077 664 1067 q 667 1100 658 1088 l 797 1289 q 820 1308 807 1304 q 845 1308 833 1313 q 865 1295 857 1304 q 874 1274 874 1286 q 863 1249 874 1263 l 714 1068 z "},"B":{"ha":932,"x_min":128,"x_max":839,"o":"m 175 0 q 140 13 153 0 q 128 49 128 25 l 128 931 q 140 967 128 954 q 175 979 153 979 l 501 979 q 672 949 603 979 q 779 863 742 919 q 817 722 817 806 q 762 569 817 631 q 614 489 707 508 l 614 508 q 778 434 718 497 q 839 267 839 371 q 756 68 839 136 q 519 0 672 0 l 175 0 m 211 72 l 513 72 q 693 120 633 72 q 753 265 753 168 q 693 413 753 365 q 513 460 633 460 l 211 460 l 211 72 m 211 532 l 492 532 q 669 580 608 532 q 731 719 731 628 q 669 859 731 811 q 492 907 608 907 l 211 907 l 211 532 z "},"Ɓ":{"ha":1088,"x_min":0,"x_max":996,"o":"m 332 0 q 296 13 308 0 q 283 49 283 25 l 283 908 l 235 908 q 115 871 154 908 q 75 753 75 833 l 75 724 q 72 702 75 711 q 59 688 68 693 q 39 682 50 682 q 18 688 26 682 q 5 703 10 693 q 0 724 0 713 l 0 758 q 60 924 0 868 q 249 979 121 979 l 657 979 q 828 949 758 979 q 935 863 899 919 q 972 722 972 806 q 918 569 972 631 q 769 489 864 508 l 769 508 q 935 434 874 497 q 996 267 996 371 q 913 68 996 136 q 675 0 829 0 l 332 0 m 367 72 l 668 72 q 849 120 789 72 q 908 265 908 168 q 849 413 908 365 q 668 460 789 460 l 367 460 l 367 72 m 367 532 l 647 532 q 825 580 764 532 q 886 719 886 628 q 825 859 886 811 q 647 907 764 907 l 367 907 l 367 532 z "},"C":{"ha":931,"x_min":89,"x_max":867,"o":"m 536 -11 q 296 49 396 -11 q 142 222 196 110 q 89 490 89 335 q 119 699 89 607 q 206 856 149 792 q 348 956 264 921 q 536 990 432 990 q 707 964 628 990 q 843 886 786 938 q 861 860 857 874 q 862 834 865 846 q 849 815 858 822 q 826 808 839 807 q 797 821 813 808 q 680 889 744 867 q 538 911 615 911 q 342 862 422 911 q 222 718 263 813 q 181 490 181 624 q 222 261 181 356 q 342 117 263 167 q 538 68 422 68 q 679 91 614 68 q 799 160 744 114 q 827 172 814 172 q 849 165 840 172 q 863 145 858 157 q 863 121 867 133 q 847 97 860 108 q 709 16 788 43 q 536 -11 631 -11 z "},"Ć":{"ha":931,"x_min":89,"x_max":867,"o":"m 536 -11 q 296 49 396 -11 q 142 222 196 110 q 89 490 89 335 q 119 699 89 607 q 206 856 149 792 q 348 956 264 921 q 536 990 432 990 q 707 964 628 990 q 843 886 786 938 q 861 860 857 874 q 862 834 865 846 q 849 815 858 822 q 826 808 839 807 q 797 821 813 808 q 680 889 744 867 q 538 911 615 911 q 342 862 422 911 q 222 718 263 813 q 181 490 181 624 q 222 261 181 356 q 342 117 263 167 q 538 68 422 68 q 679 91 614 68 q 799 160 744 114 q 827 172 814 172 q 849 165 840 172 q 863 145 858 157 q 863 121 867 133 q 847 97 860 108 q 709 16 788 43 q 536 -11 631 -11 m 572 1068 q 551 1056 563 1057 q 531 1060 540 1054 q 519 1077 522 1067 q 525 1100 517 1088 l 656 1289 q 678 1308 665 1304 q 703 1308 692 1313 q 724 1295 715 1304 q 732 1274 732 1286 q 721 1249 732 1263 l 572 1068 z "},"Č":{"ha":931,"x_min":89,"x_max":867,"o":"m 536 -11 q 296 49 396 -11 q 142 222 196 110 q 89 490 89 335 q 119 699 89 607 q 206 856 149 792 q 348 956 264 921 q 536 990 432 990 q 707 964 628 990 q 843 886 786 938 q 861 860 857 874 q 862 834 865 846 q 849 815 858 822 q 826 808 839 807 q 797 821 813 808 q 680 889 744 867 q 538 911 615 911 q 342 862 422 911 q 222 718 263 813 q 181 490 181 624 q 222 261 181 356 q 342 117 263 167 q 538 68 422 68 q 679 91 614 68 q 799 160 744 114 q 827 172 814 172 q 849 165 840 172 q 863 145 858 157 q 863 121 867 133 q 847 97 860 108 q 709 16 788 43 q 536 -11 631 -11 m 533 1051 q 502 1058 517 1051 q 476 1082 488 1065 l 344 1267 q 338 1290 336 1279 q 349 1306 340 1300 q 370 1310 358 1311 q 392 1296 382 1308 l 533 1125 l 675 1296 q 697 1310 685 1308 q 717 1306 708 1311 q 728 1290 726 1300 q 722 1267 731 1279 l 592 1082 q 565 1058 579 1065 q 533 1051 550 1051 z "},"Ç":{"ha":931,"x_min":89,"x_max":867,"o":"m 536 -11 q 296 49 396 -11 q 142 222 196 110 q 89 490 89 335 q 119 699 89 607 q 206 856 149 792 q 348 956 264 921 q 536 990 432 990 q 707 964 628 990 q 843 886 786 938 q 861 860 857 874 q 862 834 865 846 q 849 815 858 822 q 826 808 839 807 q 797 821 813 808 q 680 889 744 867 q 538 911 615 911 q 342 862 422 911 q 222 718 263 813 q 181 490 181 624 q 222 261 181 356 q 342 117 263 167 q 538 68 422 68 q 679 91 614 68 q 799 160 744 114 q 827 172 814 172 q 849 165 840 172 q 863 145 858 157 q 863 121 867 133 q 847 97 860 108 q 709 16 788 43 q 536 -11 631 -11 m 538 -265 q 487 -261 514 -265 q 440 -249 460 -257 q 422 -231 426 -242 q 422 -209 418 -219 q 435 -194 425 -199 q 460 -194 444 -189 q 494 -205 475 -201 q 539 -208 514 -208 q 599 -194 576 -208 q 622 -153 622 -179 q 610 -122 622 -133 q 569 -111 597 -111 q 547 -112 558 -111 q 522 -117 536 -112 q 501 -122 508 -121 q 488 -117 494 -122 q 481 -105 482 -112 q 482 -85 481 -97 l 499 28 l 561 28 l 543 -76 l 514 -71 q 547 -64 531 -67 q 576 -61 563 -61 q 656 -85 624 -61 q 689 -154 689 -110 q 647 -234 689 -203 q 538 -265 604 -265 z "},"Ḉ":{"ha":931,"x_min":89,"x_max":867,"o":"m 536 -11 q 296 49 396 -11 q 142 222 196 110 q 89 490 89 335 q 119 699 89 607 q 206 856 149 792 q 348 956 264 921 q 536 990 432 990 q 707 964 628 990 q 843 886 786 938 q 861 860 857 874 q 862 834 865 846 q 849 815 858 822 q 826 808 839 807 q 797 821 813 808 q 680 889 744 867 q 538 911 615 911 q 342 862 422 911 q 222 718 263 813 q 181 490 181 624 q 222 261 181 356 q 342 117 263 167 q 538 68 422 68 q 679 91 614 68 q 799 160 744 114 q 827 172 814 172 q 849 165 840 172 q 863 145 858 157 q 863 121 867 133 q 847 97 860 108 q 709 16 788 43 q 536 -11 631 -11 m 538 -265 q 487 -261 514 -265 q 440 -249 460 -257 q 422 -231 426 -242 q 422 -209 418 -219 q 435 -194 425 -199 q 460 -194 444 -189 q 494 -205 475 -201 q 539 -208 514 -208 q 599 -194 576 -208 q 622 -153 622 -179 q 610 -122 622 -133 q 569 -111 597 -111 q 547 -112 558 -111 q 522 -117 536 -112 q 501 -122 508 -121 q 488 -117 494 -122 q 481 -105 482 -112 q 482 -85 481 -97 l 499 28 l 561 28 l 543 -76 l 514 -71 q 547 -64 531 -67 q 576 -61 563 -61 q 656 -85 624 -61 q 689 -154 689 -110 q 647 -234 689 -203 q 538 -265 604 -265 m 572 1068 q 551 1056 563 1057 q 531 1060 540 1054 q 519 1077 522 1067 q 525 1100 517 1088 l 656 1289 q 678 1308 665 1304 q 703 1308 692 1313 q 724 1295 715 1304 q 732 1274 732 1286 q 721 1249 732 1263 l 572 1068 z "},"Ĉ":{"ha":931,"x_min":89,"x_max":867,"o":"m 536 -11 q 296 49 396 -11 q 142 222 196 110 q 89 490 89 335 q 119 699 89 607 q 206 856 149 792 q 348 956 264 921 q 536 990 432 990 q 707 964 628 990 q 843 886 786 938 q 861 860 857 874 q 862 834 865 846 q 849 815 858 822 q 826 808 839 807 q 797 821 813 808 q 680 889 744 867 q 538 911 615 911 q 342 862 422 911 q 222 718 263 813 q 181 490 181 624 q 222 261 181 356 q 342 117 263 167 q 538 68 422 68 q 679 91 614 68 q 799 160 744 114 q 827 172 814 172 q 849 165 840 172 q 863 145 858 157 q 863 121 867 133 q 847 97 860 108 q 709 16 788 43 q 536 -11 631 -11 m 392 1065 q 370 1053 382 1054 q 349 1057 358 1051 q 338 1073 340 1063 q 344 1094 336 1083 l 476 1279 q 502 1303 488 1297 q 533 1310 517 1310 q 565 1303 550 1310 q 592 1279 579 1297 l 722 1094 q 728 1073 731 1083 q 717 1057 726 1063 q 697 1053 708 1051 q 675 1065 685 1054 l 533 1238 l 392 1065 z "},"Ċ":{"ha":931,"x_min":89,"x_max":867,"o":"m 536 -11 q 296 49 396 -11 q 142 222 196 110 q 89 490 89 335 q 119 699 89 607 q 206 856 149 792 q 348 956 264 921 q 536 990 432 990 q 707 964 628 990 q 843 886 786 938 q 861 860 857 874 q 862 834 865 846 q 849 815 858 822 q 826 808 839 807 q 797 821 813 808 q 680 889 744 867 q 538 911 615 911 q 342 862 422 911 q 222 718 263 813 q 181 490 181 624 q 222 261 181 356 q 342 117 263 167 q 538 68 422 68 q 679 91 614 68 q 799 160 744 114 q 827 172 814 172 q 849 165 840 172 q 863 145 858 157 q 863 121 867 133 q 847 97 860 108 q 709 16 788 43 q 536 -11 631 -11 m 533 1124 q 492 1139 507 1124 q 476 1181 476 1154 q 492 1223 476 1208 q 533 1238 507 1238 q 576 1223 561 1238 q 590 1181 590 1208 q 576 1139 590 1154 q 533 1124 561 1124 z "},"D":{"ha":1018,"x_min":128,"x_max":931,"o":"m 175 0 q 140 13 153 0 q 128 49 128 25 l 128 931 q 140 967 128 954 q 175 979 153 979 l 443 979 q 803 854 676 979 q 931 490 931 729 q 898 279 931 371 q 803 126 865 188 q 650 32 740 64 q 443 0 560 0 l 175 0 m 213 75 l 436 75 q 613 101 538 75 q 739 179 689 128 q 814 309 789 231 q 839 490 839 388 q 738 801 839 697 q 436 904 638 904 l 213 904 l 213 75 z "},"Ǆ":{"ha":1806,"x_min":128,"x_max":1783,"o":"m 175 0 q 140 13 153 0 q 128 49 128 25 l 128 931 q 140 967 128 954 q 175 979 153 979 l 443 979 q 803 854 676 979 q 931 490 931 729 q 898 279 931 371 q 803 126 865 188 q 650 32 740 64 q 443 0 560 0 l 175 0 m 213 75 l 436 75 q 613 101 538 75 q 739 179 689 128 q 814 309 789 231 q 839 490 839 388 q 738 801 839 697 q 436 904 638 904 l 213 904 l 213 75 m 1104 0 q 1078 7 1089 0 q 1063 26 1067 14 q 1062 53 1058 38 q 1078 86 1065 68 l 1678 942 l 1678 903 l 1099 903 q 1067 913 1078 903 q 1056 942 1056 924 q 1067 969 1056 960 q 1099 979 1078 979 l 1714 979 q 1742 972 1731 979 q 1757 953 1753 965 q 1757 926 1761 942 q 1742 893 1753 911 l 1142 39 l 1142 76 l 1740 76 q 1772 67 1761 76 q 1783 39 1783 57 q 1772 10 1783 19 q 1740 0 1761 0 l 1104 0 m 1418 1051 q 1387 1058 1401 1051 q 1361 1082 1372 1065 l 1229 1267 q 1223 1290 1221 1279 q 1234 1306 1225 1300 q 1255 1310 1243 1311 q 1276 1296 1267 1308 l 1418 1125 l 1560 1296 q 1581 1310 1569 1308 q 1602 1306 1593 1311 q 1613 1290 1611 1300 q 1607 1267 1615 1279 l 1476 1082 q 1449 1058 1464 1065 q 1418 1051 1435 1051 z "},"Ð":{"ha":1018,"x_min":-7,"x_max":931,"o":"m 175 0 q 140 13 153 0 q 128 49 128 25 l 128 931 q 140 967 128 954 q 175 979 153 979 l 443 979 q 803 854 676 979 q 931 490 931 729 q 898 279 931 371 q 803 126 865 188 q 650 32 740 64 q 443 0 560 0 l 175 0 m 213 75 l 436 75 q 613 101 538 75 q 739 179 689 128 q 814 309 789 231 q 839 490 839 388 q 738 801 839 697 q 436 904 638 904 l 213 904 l 213 75 m 31 463 q 3 472 13 463 q -6 499 -6 482 q 3 523 -6 514 q 31 532 13 532 l 463 532 q 490 524 481 532 q 499 499 499 515 q 490 472 499 482 q 463 463 481 463 l 31 463 z "},"Ď":{"ha":1018,"x_min":128,"x_max":931,"o":"m 175 0 q 140 13 153 0 q 128 49 128 25 l 128 931 q 140 967 128 954 q 175 979 153 979 l 443 979 q 803 854 676 979 q 931 490 931 729 q 898 279 931 371 q 803 126 865 188 q 650 32 740 64 q 443 0 560 0 l 175 0 m 213 75 l 436 75 q 613 101 538 75 q 739 179 689 128 q 814 309 789 231 q 839 490 839 388 q 738 801 839 697 q 436 904 638 904 l 213 904 l 213 75 m 508 1051 q 477 1058 492 1051 q 451 1082 463 1065 l 319 1267 q 313 1290 311 1279 q 324 1306 315 1300 q 345 1310 333 1311 q 367 1296 357 1308 l 508 1125 l 650 1296 q 672 1310 660 1308 q 692 1306 683 1311 q 703 1290 701 1300 q 697 1267 706 1279 l 567 1082 q 540 1058 554 1065 q 508 1051 525 1051 z "},"Đ":{"ha":1018,"x_min":-7,"x_max":931,"o":"m 175 0 q 140 13 153 0 q 128 49 128 25 l 128 931 q 140 967 128 954 q 175 979 153 979 l 443 979 q 803 854 676 979 q 931 490 931 729 q 898 279 931 371 q 803 126 865 188 q 650 32 740 64 q 443 0 560 0 l 175 0 m 213 75 l 436 75 q 613 101 538 75 q 739 179 689 128 q 814 309 789 231 q 839 490 839 388 q 738 801 839 697 q 436 904 638 904 l 213 904 l 213 75 m 31 463 q 3 472 13 463 q -6 499 -6 482 q 3 523 -6 514 q 31 532 13 532 l 463 532 q 490 524 481 532 q 499 499 499 515 q 490 472 499 482 q 463 463 481 463 l 31 463 z "},"Ḍ":{"ha":1018,"x_min":128,"x_max":931,"o":"m 175 0 q 140 13 153 0 q 128 49 128 25 l 128 931 q 140 967 128 954 q 175 979 153 979 l 443 979 q 803 854 676 979 q 931 490 931 729 q 898 279 931 371 q 803 126 865 188 q 650 32 740 64 q 443 0 560 0 l 175 0 m 213 75 l 436 75 q 613 101 538 75 q 739 179 689 128 q 814 309 789 231 q 839 490 839 388 q 738 801 839 697 q 436 904 638 904 l 213 904 l 213 75 m 510 -254 q 467 -239 483 -254 q 451 -196 451 -224 q 467 -154 451 -168 q 510 -140 483 -140 q 553 -154 538 -140 q 568 -196 568 -168 q 553 -239 568 -224 q 510 -254 538 -254 z "},"Ɗ":{"ha":1175,"x_min":0,"x_max":1086,"o":"m 332 0 q 296 13 308 0 q 283 49 283 25 l 283 908 l 235 908 q 115 871 154 908 q 75 753 75 833 l 75 724 q 72 702 75 711 q 59 688 68 693 q 39 682 50 682 q 18 688 26 682 q 5 703 10 693 q 0 724 0 713 l 0 758 q 59 924 0 868 q 236 979 118 979 l 599 979 q 960 854 833 979 q 1086 490 1086 729 q 1053 279 1086 371 q 959 126 1021 188 q 807 32 897 64 q 599 0 717 0 l 332 0 m 369 75 l 592 75 q 769 101 693 75 q 894 179 844 128 q 970 309 944 231 q 996 490 996 388 q 894 801 996 697 q 592 904 793 904 l 369 904 l 369 75 z "},"Ḏ":{"ha":1018,"x_min":128,"x_max":931,"o":"m 175 0 q 140 13 153 0 q 128 49 128 25 l 128 931 q 140 967 128 954 q 175 979 153 979 l 443 979 q 803 854 676 979 q 931 490 931 729 q 898 279 931 371 q 803 126 865 188 q 650 32 740 64 q 443 0 560 0 l 175 0 m 213 75 l 436 75 q 613 101 538 75 q 739 179 689 128 q 814 309 789 231 q 839 490 839 388 q 738 801 839 697 q 436 904 638 904 l 213 904 l 213 75 m 343 -211 q 308 -179 308 -211 q 317 -156 308 -164 q 343 -147 326 -147 l 676 -147 q 711 -179 711 -147 q 702 -203 711 -194 q 676 -211 693 -211 l 343 -211 z "},"ǅ":{"ha":1656,"x_min":128,"x_max":1621,"o":"m 175 0 q 140 13 153 0 q 128 49 128 25 l 128 931 q 140 967 128 954 q 175 979 153 979 l 443 979 q 803 854 676 979 q 931 490 931 729 q 898 279 931 371 q 803 126 865 188 q 650 32 740 64 q 443 0 560 0 l 175 0 m 213 75 l 436 75 q 613 101 538 75 q 739 179 689 128 q 814 309 789 231 q 839 490 839 388 q 738 801 839 697 q 436 904 638 904 l 213 904 l 213 75 m 1131 0 q 1108 6 1117 0 q 1095 23 1099 13 q 1095 47 1092 33 q 1110 72 1099 60 l 1517 629 l 1517 606 l 1125 606 q 1098 615 1107 606 q 1089 640 1089 624 q 1098 665 1089 656 q 1125 674 1107 674 l 1558 674 q 1585 667 1575 674 q 1599 651 1596 661 q 1600 629 1603 642 q 1588 604 1597 617 l 1175 43 l 1175 68 l 1585 68 q 1621 35 1621 68 q 1611 9 1621 18 q 1585 0 1601 0 l 1131 0 m 1347 749 q 1317 758 1331 749 q 1293 785 1303 767 l 1171 1008 q 1167 1033 1164 1022 q 1181 1048 1171 1043 q 1201 1051 1190 1053 q 1218 1038 1211 1049 l 1347 828 l 1476 1038 q 1494 1051 1483 1049 q 1514 1048 1504 1053 q 1527 1033 1524 1043 q 1524 1008 1531 1022 l 1401 785 q 1378 758 1392 767 q 1347 749 1364 749 z "},"E":{"ha":800,"x_min":128,"x_max":739,"o":"m 175 0 q 140 13 153 0 q 128 49 128 25 l 128 931 q 140 967 128 954 q 175 979 153 979 l 700 979 q 729 969 719 979 q 739 943 739 960 q 729 915 739 924 q 700 906 719 906 l 211 906 l 211 533 l 672 533 q 701 524 692 533 q 711 497 711 515 q 701 469 711 479 q 672 460 692 460 l 211 460 l 211 74 l 700 74 q 729 65 719 74 q 739 38 739 56 q 729 10 739 19 q 700 0 719 0 l 175 0 z "},"É":{"ha":800,"x_min":128,"x_max":739,"o":"m 175 0 q 140 13 153 0 q 128 49 128 25 l 128 931 q 140 967 128 954 q 175 979 153 979 l 700 979 q 729 969 719 979 q 739 943 739 960 q 729 915 739 924 q 700 906 719 906 l 211 906 l 211 533 l 672 533 q 701 524 692 533 q 711 497 711 515 q 701 469 711 479 q 672 460 692 460 l 211 460 l 211 74 l 700 74 q 729 65 719 74 q 739 38 739 56 q 729 10 739 19 q 700 0 719 0 l 175 0 m 486 1068 q 465 1056 476 1057 q 445 1060 454 1054 q 433 1077 436 1067 q 439 1100 431 1088 l 569 1289 q 592 1308 579 1304 q 617 1308 606 1313 q 638 1295 629 1304 q 646 1274 646 1286 q 635 1249 646 1263 l 486 1068 z "},"Ĕ":{"ha":800,"x_min":128,"x_max":739,"o":"m 175 0 q 140 13 153 0 q 128 49 128 25 l 128 931 q 140 967 128 954 q 175 979 153 979 l 700 979 q 729 969 719 979 q 739 943 739 960 q 729 915 739 924 q 700 906 719 906 l 211 906 l 211 533 l 672 533 q 701 524 692 533 q 711 497 711 515 q 701 469 711 479 q 672 460 692 460 l 211 460 l 211 74 l 700 74 q 729 65 719 74 q 739 38 739 56 q 729 10 739 19 q 700 0 719 0 l 175 0 m 447 1056 q 306 1105 368 1056 q 224 1261 244 1154 q 229 1288 221 1278 q 250 1299 238 1297 q 265 1295 258 1299 q 276 1285 272 1292 q 282 1271 281 1279 q 344 1152 297 1186 q 447 1118 392 1118 q 551 1152 503 1118 q 613 1271 599 1186 q 618 1285 614 1279 q 630 1295 622 1292 q 644 1299 638 1299 q 665 1288 657 1297 q 671 1261 674 1278 q 588 1105 650 1154 q 447 1056 526 1056 z "},"Ě":{"ha":800,"x_min":128,"x_max":739,"o":"m 175 0 q 140 13 153 0 q 128 49 128 25 l 128 931 q 140 967 128 954 q 175 979 153 979 l 700 979 q 729 969 719 979 q 739 943 739 960 q 729 915 739 924 q 700 906 719 906 l 211 906 l 211 533 l 672 533 q 701 524 692 533 q 711 497 711 515 q 701 469 711 479 q 672 460 692 460 l 211 460 l 211 74 l 700 74 q 729 65 719 74 q 739 38 739 56 q 729 10 739 19 q 700 0 719 0 l 175 0 m 447 1051 q 416 1058 431 1051 q 390 1082 401 1065 l 258 1267 q 252 1290 250 1279 q 263 1306 254 1300 q 284 1310 272 1311 q 306 1296 296 1308 l 447 1125 l 589 1296 q 610 1310 599 1308 q 631 1306 622 1311 q 642 1290 640 1300 q 636 1267 644 1279 l 506 1082 q 478 1058 493 1065 q 447 1051 464 1051 z "},"Ȩ":{"ha":800,"x_min":128,"x_max":739,"o":"m 175 0 q 140 13 153 0 q 128 49 128 25 l 128 931 q 140 967 128 954 q 175 979 153 979 l 700 979 q 729 969 719 979 q 739 943 739 960 q 729 915 739 924 q 700 906 719 906 l 211 906 l 211 533 l 672 533 q 701 524 692 533 q 711 497 711 515 q 701 469 711 479 q 672 460 692 460 l 211 460 l 211 74 l 700 74 q 729 65 719 74 q 739 38 739 56 q 729 10 739 19 q 700 0 719 0 l 175 0 m 453 -265 q 402 -261 429 -265 q 356 -249 375 -257 q 338 -231 342 -242 q 337 -209 333 -219 q 350 -194 340 -199 q 375 -194 360 -189 q 410 -205 390 -201 q 454 -208 429 -208 q 515 -194 492 -208 q 538 -153 538 -179 q 525 -122 538 -133 q 485 -111 513 -111 q 463 -112 474 -111 q 438 -117 451 -112 q 417 -122 424 -121 q 403 -117 410 -122 q 397 -105 397 -112 q 397 -85 396 -97 l 414 28 l 476 28 l 458 -76 l 429 -71 q 462 -64 446 -67 q 492 -61 478 -61 q 572 -85 539 -61 q 604 -154 604 -110 q 562 -234 604 -203 q 453 -265 519 -265 z "},"Ḝ":{"ha":800,"x_min":128,"x_max":739,"o":"m 175 0 q 140 13 153 0 q 128 49 128 25 l 128 931 q 140 967 128 954 q 175 979 153 979 l 700 979 q 729 969 719 979 q 739 943 739 960 q 729 915 739 924 q 700 906 719 906 l 211 906 l 211 533 l 672 533 q 701 524 692 533 q 711 497 711 515 q 701 469 711 479 q 672 460 692 460 l 211 460 l 211 74 l 700 74 q 729 65 719 74 q 739 38 739 56 q 729 10 739 19 q 700 0 719 0 l 175 0 m 453 -265 q 402 -261 429 -265 q 356 -249 375 -257 q 338 -231 342 -242 q 337 -209 333 -219 q 350 -194 340 -199 q 375 -194 360 -189 q 410 -205 390 -201 q 454 -208 429 -208 q 515 -194 492 -208 q 538 -153 538 -179 q 525 -122 538 -133 q 485 -111 513 -111 q 463 -112 474 -111 q 438 -117 451 -112 q 417 -122 424 -121 q 403 -117 410 -122 q 397 -105 397 -112 q 397 -85 396 -97 l 414 28 l 476 28 l 458 -76 l 429 -71 q 462 -64 446 -67 q 492 -61 478 -61 q 572 -85 539 -61 q 604 -154 604 -110 q 562 -234 604 -203 q 453 -265 519 -265 m 447 1056 q 306 1105 368 1056 q 224 1261 244 1154 q 229 1288 221 1278 q 250 1299 238 1297 q 265 1295 258 1299 q 276 1285 272 1292 q 282 1271 281 1279 q 344 1152 297 1186 q 447 1118 392 1118 q 551 1152 503 1118 q 613 1271 599 1186 q 618 1285 614 1279 q 630 1295 622 1292 q 644 1299 638 1299 q 665 1288 657 1297 q 671 1261 674 1278 q 588 1105 650 1154 q 447 1056 526 1056 z "},"Ê":{"ha":800,"x_min":128,"x_max":739,"o":"m 175 0 q 140 13 153 0 q 128 49 128 25 l 128 931 q 140 967 128 954 q 175 979 153 979 l 700 979 q 729 969 719 979 q 739 943 739 960 q 729 915 739 924 q 700 906 719 906 l 211 906 l 211 533 l 672 533 q 701 524 692 533 q 711 497 711 515 q 701 469 711 479 q 672 460 692 460 l 211 460 l 211 74 l 700 74 q 729 65 719 74 q 739 38 739 56 q 729 10 739 19 q 700 0 719 0 l 175 0 m 306 1065 q 284 1053 296 1054 q 263 1057 272 1051 q 252 1073 254 1063 q 258 1094 250 1083 l 390 1279 q 416 1303 401 1297 q 447 1310 431 1310 q 478 1303 464 1310 q 506 1279 493 1297 l 636 1094 q 642 1073 644 1083 q 631 1057 640 1063 q 610 1053 622 1051 q 589 1065 599 1054 l 447 1238 l 306 1065 z "},"Ế":{"ha":800,"x_min":128,"x_max":756,"o":"m 175 0 q 140 13 153 0 q 128 49 128 25 l 128 931 q 140 967 128 954 q 175 979 153 979 l 700 979 q 729 969 719 979 q 739 943 739 960 q 729 915 739 924 q 700 906 719 906 l 211 906 l 211 533 l 672 533 q 701 524 692 533 q 711 497 711 515 q 701 469 711 479 q 672 460 692 460 l 211 460 l 211 74 l 700 74 q 729 65 719 74 q 739 38 739 56 q 729 10 739 19 q 700 0 719 0 l 175 0 m 318 1067 q 298 1053 308 1056 q 279 1057 288 1051 q 269 1073 271 1063 q 275 1096 267 1083 l 392 1267 q 417 1291 403 1285 q 447 1297 432 1297 q 468 1294 458 1297 q 487 1285 478 1292 q 503 1267 496 1279 l 619 1096 q 626 1073 628 1083 q 616 1057 624 1063 q 597 1053 608 1051 q 576 1067 586 1056 l 447 1225 l 318 1067 m 625 1199 q 608 1189 618 1190 q 590 1193 599 1188 q 580 1208 582 1199 q 585 1232 578 1218 l 685 1403 q 705 1423 693 1418 q 728 1425 717 1428 q 747 1413 739 1422 q 755 1392 754 1404 q 747 1368 756 1381 l 625 1199 z "},"Ệ":{"ha":800,"x_min":128,"x_max":739,"o":"m 175 0 q 140 13 153 0 q 128 49 128 25 l 128 931 q 140 967 128 954 q 175 979 153 979 l 700 979 q 729 969 719 979 q 739 943 739 960 q 729 915 739 924 q 700 906 719 906 l 211 906 l 211 533 l 672 533 q 701 524 692 533 q 711 497 711 515 q 701 469 711 479 q 672 460 692 460 l 211 460 l 211 74 l 700 74 q 729 65 719 74 q 739 38 739 56 q 729 10 739 19 q 700 0 719 0 l 175 0 m 447 -254 q 405 -239 421 -254 q 389 -196 389 -224 q 405 -154 389 -168 q 447 -140 421 -140 q 490 -154 475 -140 q 506 -196 506 -168 q 490 -239 506 -224 q 447 -254 475 -254 m 306 1065 q 284 1053 296 1054 q 263 1057 272 1051 q 252 1073 254 1063 q 258 1094 250 1083 l 390 1279 q 416 1303 401 1297 q 447 1310 431 1310 q 478 1303 464 1310 q 506 1279 493 1297 l 636 1094 q 642 1073 644 1083 q 631 1057 640 1063 q 610 1053 622 1051 q 589 1065 599 1054 l 447 1238 l 306 1065 z "},"Ề":{"ha":800,"x_min":128,"x_max":739,"o":"m 175 0 q 140 13 153 0 q 128 49 128 25 l 128 931 q 140 967 128 954 q 175 979 153 979 l 700 979 q 729 969 719 979 q 739 943 739 960 q 729 915 739 924 q 700 906 719 906 l 211 906 l 211 533 l 672 533 q 701 524 692 533 q 711 497 711 515 q 701 469 711 479 q 672 460 692 460 l 211 460 l 211 74 l 700 74 q 729 65 719 74 q 739 38 739 56 q 729 10 739 19 q 700 0 719 0 l 175 0 m 318 1067 q 298 1053 308 1056 q 279 1057 288 1051 q 269 1073 271 1063 q 275 1096 267 1083 l 392 1267 q 417 1291 403 1285 q 447 1297 432 1297 q 468 1294 458 1297 q 487 1285 478 1292 q 503 1267 496 1279 l 619 1096 q 626 1073 628 1083 q 616 1057 624 1063 q 597 1053 608 1051 q 576 1067 586 1056 l 447 1225 l 318 1067 m 629 1199 l 507 1368 q 499 1392 499 1381 q 508 1413 500 1404 q 526 1425 515 1422 q 549 1423 538 1428 q 569 1403 560 1418 l 669 1232 q 675 1208 678 1218 q 664 1193 672 1199 q 646 1189 656 1188 q 629 1199 636 1190 z "},"Ể":{"ha":800,"x_min":128,"x_max":739,"o":"m 175 0 q 140 13 153 0 q 128 49 128 25 l 128 931 q 140 967 128 954 q 175 979 153 979 l 700 979 q 729 969 719 979 q 739 943 739 960 q 729 915 739 924 q 700 906 719 906 l 211 906 l 211 533 l 672 533 q 701 524 692 533 q 711 497 711 515 q 701 469 711 479 q 672 460 692 460 l 211 460 l 211 74 l 700 74 q 729 65 719 74 q 739 38 739 56 q 729 10 739 19 q 700 0 719 0 l 175 0 m 318 1067 q 298 1053 308 1056 q 279 1057 288 1051 q 269 1073 271 1063 q 275 1096 267 1083 l 392 1267 q 417 1291 403 1285 q 447 1297 432 1297 q 468 1294 458 1297 q 487 1285 478 1292 q 503 1267 496 1279 l 619 1096 q 626 1073 628 1083 q 616 1057 624 1063 q 597 1053 608 1051 q 576 1067 586 1056 l 447 1225 l 318 1067 m 626 1201 q 598 1199 610 1194 q 585 1215 586 1203 q 599 1236 583 1226 q 652 1279 635 1258 q 669 1324 669 1300 q 654 1356 669 1346 q 603 1365 639 1365 q 576 1364 590 1365 q 544 1358 561 1363 q 519 1357 529 1354 q 506 1371 510 1360 q 508 1392 503 1383 q 528 1406 513 1400 q 570 1415 547 1413 q 617 1418 593 1418 q 706 1398 674 1418 q 738 1336 738 1378 q 722 1281 738 1307 q 680 1236 706 1256 q 626 1201 654 1217 z "},"Ễ":{"ha":800,"x_min":128,"x_max":739,"o":"m 175 0 q 140 13 153 0 q 128 49 128 25 l 128 931 q 140 967 128 954 q 175 979 153 979 l 700 979 q 729 969 719 979 q 739 943 739 960 q 729 915 739 924 q 700 906 719 906 l 211 906 l 211 533 l 672 533 q 701 524 692 533 q 711 497 711 515 q 701 469 711 479 q 672 460 692 460 l 211 460 l 211 74 l 700 74 q 729 65 719 74 q 739 38 739 56 q 729 10 739 19 q 700 0 719 0 l 175 0 m 315 1064 q 288 1054 301 1051 q 270 1068 274 1057 q 278 1093 267 1079 l 389 1226 q 418 1249 404 1243 q 447 1254 432 1254 q 468 1252 458 1254 q 487 1244 478 1250 q 506 1226 496 1238 l 617 1093 q 625 1073 626 1082 q 617 1058 624 1064 q 601 1053 611 1053 q 579 1064 590 1054 l 447 1189 l 315 1064 m 264 1278 q 246 1289 253 1279 q 243 1315 239 1299 q 285 1392 254 1367 q 358 1417 315 1417 q 426 1397 397 1417 q 480 1358 454 1378 q 535 1339 506 1339 q 576 1351 560 1339 q 599 1390 592 1363 q 610 1413 601 1406 q 632 1418 619 1419 q 650 1408 644 1417 q 653 1381 656 1399 q 611 1304 642 1329 q 538 1279 581 1279 q 469 1299 499 1279 q 415 1338 440 1318 q 360 1357 389 1357 q 319 1345 335 1357 q 297 1306 304 1333 q 285 1284 293 1292 q 264 1278 278 1276 z "},"Ȅ":{"ha":800,"x_min":128,"x_max":739,"o":"m 175 0 q 140 13 153 0 q 128 49 128 25 l 128 931 q 140 967 128 954 q 175 979 153 979 l 700 979 q 729 969 719 979 q 739 943 739 960 q 729 915 739 924 q 700 906 719 906 l 211 906 l 211 533 l 672 533 q 701 524 692 533 q 711 497 711 515 q 701 469 711 479 q 672 460 692 460 l 211 460 l 211 74 l 700 74 q 729 65 719 74 q 739 38 739 56 q 729 10 739 19 q 700 0 719 0 l 175 0 m 500 1067 l 378 1251 q 369 1278 368 1265 q 379 1299 371 1290 q 399 1310 388 1307 q 423 1307 411 1313 q 443 1285 435 1301 l 543 1088 q 546 1067 549 1076 q 535 1055 543 1058 q 517 1053 526 1051 q 500 1067 508 1056 m 339 1065 l 214 1251 q 204 1278 203 1265 q 214 1299 206 1290 q 234 1310 222 1307 q 258 1307 246 1313 q 278 1285 269 1301 l 379 1088 q 383 1069 385 1078 q 372 1056 381 1060 q 355 1053 364 1051 q 339 1065 346 1056 z "},"Ë":{"ha":800,"x_min":128,"x_max":739,"o":"m 175 0 q 140 13 153 0 q 128 49 128 25 l 128 931 q 140 967 128 954 q 175 979 153 979 l 700 979 q 729 969 719 979 q 739 943 739 960 q 729 915 739 924 q 700 906 719 906 l 211 906 l 211 533 l 672 533 q 701 524 692 533 q 711 497 711 515 q 701 469 711 479 q 672 460 692 460 l 211 460 l 211 74 l 700 74 q 729 65 719 74 q 739 38 739 56 q 729 10 739 19 q 700 0 719 0 l 175 0 m 564 1125 q 523 1139 538 1125 q 508 1181 508 1153 q 523 1221 508 1207 q 564 1235 538 1235 q 605 1221 590 1235 q 619 1181 619 1207 q 605 1139 619 1153 q 564 1125 590 1125 m 332 1125 q 290 1139 306 1125 q 275 1181 275 1153 q 290 1221 275 1207 q 332 1235 306 1235 q 372 1221 358 1235 q 386 1181 386 1207 q 372 1139 386 1153 q 332 1125 358 1125 z "},"Ė":{"ha":800,"x_min":128,"x_max":739,"o":"m 175 0 q 140 13 153 0 q 128 49 128 25 l 128 931 q 140 967 128 954 q 175 979 153 979 l 700 979 q 729 969 719 979 q 739 943 739 960 q 729 915 739 924 q 700 906 719 906 l 211 906 l 211 533 l 672 533 q 701 524 692 533 q 711 497 711 515 q 701 469 711 479 q 672 460 692 460 l 211 460 l 211 74 l 700 74 q 729 65 719 74 q 739 38 739 56 q 729 10 739 19 q 700 0 719 0 l 175 0 m 447 1124 q 406 1139 421 1124 q 390 1181 390 1154 q 406 1223 390 1208 q 447 1238 421 1238 q 490 1223 475 1238 q 504 1181 504 1208 q 490 1139 504 1154 q 447 1124 475 1124 z "},"Ẹ":{"ha":800,"x_min":128,"x_max":739,"o":"m 175 0 q 140 13 153 0 q 128 49 128 25 l 128 931 q 140 967 128 954 q 175 979 153 979 l 700 979 q 729 969 719 979 q 739 943 739 960 q 729 915 739 924 q 700 906 719 906 l 211 906 l 211 533 l 672 533 q 701 524 692 533 q 711 497 711 515 q 701 469 711 479 q 672 460 692 460 l 211 460 l 211 74 l 700 74 q 729 65 719 74 q 739 38 739 56 q 729 10 739 19 q 700 0 719 0 l 175 0 m 447 -254 q 405 -239 421 -254 q 389 -196 389 -224 q 405 -154 389 -168 q 447 -140 421 -140 q 490 -154 475 -140 q 506 -196 506 -168 q 490 -239 506 -224 q 447 -254 475 -254 z "},"È":{"ha":800,"x_min":128,"x_max":739,"o":"m 175 0 q 140 13 153 0 q 128 49 128 25 l 128 931 q 140 967 128 954 q 175 979 153 979 l 700 979 q 729 969 719 979 q 739 943 739 960 q 729 915 739 924 q 700 906 719 906 l 211 906 l 211 533 l 672 533 q 701 524 692 533 q 711 497 711 515 q 701 469 711 479 q 672 460 692 460 l 211 460 l 211 74 l 700 74 q 729 65 719 74 q 739 38 739 56 q 729 10 739 19 q 700 0 719 0 l 175 0 m 408 1068 l 260 1249 q 249 1274 249 1263 q 258 1295 250 1286 q 278 1308 265 1304 q 303 1308 290 1313 q 325 1289 315 1304 l 457 1100 q 463 1077 465 1088 q 451 1060 460 1067 q 430 1056 442 1054 q 408 1068 418 1057 z "},"Ẻ":{"ha":800,"x_min":128,"x_max":739,"o":"m 175 0 q 140 13 153 0 q 128 49 128 25 l 128 931 q 140 967 128 954 q 175 979 153 979 l 700 979 q 729 969 719 979 q 739 943 739 960 q 729 915 739 924 q 700 906 719 906 l 211 906 l 211 533 l 672 533 q 701 524 692 533 q 711 497 711 515 q 701 469 711 479 q 672 460 692 460 l 211 460 l 211 74 l 700 74 q 729 65 719 74 q 739 38 739 56 q 729 10 739 19 q 700 0 719 0 l 175 0 m 447 1054 q 424 1061 432 1054 q 415 1083 415 1068 q 429 1131 415 1113 q 461 1161 443 1149 q 493 1186 479 1174 q 507 1215 507 1199 q 490 1241 507 1232 q 438 1250 474 1250 q 409 1248 425 1250 q 378 1240 393 1246 q 348 1237 358 1235 q 333 1251 338 1239 q 335 1274 331 1264 q 356 1290 340 1285 q 402 1303 376 1299 q 451 1307 428 1307 q 547 1284 513 1307 q 581 1224 581 1261 q 565 1176 581 1193 q 531 1147 550 1158 q 496 1119 511 1135 q 481 1076 481 1104 q 472 1060 481 1067 q 447 1054 463 1054 z "},"Ȇ":{"ha":800,"x_min":128,"x_max":739,"o":"m 175 0 q 140 13 153 0 q 128 49 128 25 l 128 931 q 140 967 128 954 q 175 979 153 979 l 700 979 q 729 969 719 979 q 739 943 739 960 q 729 915 739 924 q 700 906 719 906 l 211 906 l 211 533 l 672 533 q 701 524 692 533 q 711 497 711 515 q 701 469 711 479 q 672 460 692 460 l 211 460 l 211 74 l 700 74 q 729 65 719 74 q 739 38 739 56 q 729 10 739 19 q 700 0 719 0 l 175 0 m 250 1053 q 229 1064 238 1054 q 224 1090 221 1074 q 306 1247 244 1197 q 447 1296 368 1296 q 589 1247 526 1296 q 671 1090 651 1197 q 665 1064 674 1074 q 644 1053 657 1054 q 630 1056 638 1053 q 618 1067 622 1060 q 613 1081 614 1074 q 549 1199 596 1165 q 447 1233 503 1233 q 345 1199 392 1233 q 282 1081 299 1165 q 276 1067 281 1074 q 265 1056 272 1060 q 250 1053 258 1053 z "},"Ē":{"ha":800,"x_min":128,"x_max":739,"o":"m 175 0 q 140 13 153 0 q 128 49 128 25 l 128 931 q 140 967 128 954 q 175 979 153 979 l 700 979 q 729 969 719 979 q 739 943 739 960 q 729 915 739 924 q 700 906 719 906 l 211 906 l 211 533 l 672 533 q 701 524 692 533 q 711 497 711 515 q 701 469 711 479 q 672 460 692 460 l 211 460 l 211 74 l 700 74 q 729 65 719 74 q 739 38 739 56 q 729 10 739 19 q 700 0 719 0 l 175 0 m 260 1136 q 225 1168 225 1136 q 234 1193 225 1185 q 260 1201 243 1201 l 635 1201 q 669 1168 669 1201 q 660 1145 669 1154 q 635 1136 651 1136 l 260 1136 z "},"Ḗ":{"ha":800,"x_min":128,"x_max":739,"o":"m 175 0 q 140 13 153 0 q 128 49 128 25 l 128 931 q 140 967 128 954 q 175 979 153 979 l 700 979 q 729 969 719 979 q 739 943 739 960 q 729 915 739 924 q 700 906 719 906 l 211 906 l 211 533 l 672 533 q 701 524 692 533 q 711 497 711 515 q 701 469 711 479 q 672 460 692 460 l 211 460 l 211 74 l 700 74 q 729 65 719 74 q 739 38 739 56 q 729 10 739 19 q 700 0 719 0 l 175 0 m 279 1101 q 253 1110 263 1101 q 243 1133 243 1118 q 253 1157 243 1149 q 279 1165 263 1165 l 615 1165 q 642 1157 633 1165 q 651 1133 651 1149 q 642 1110 651 1118 q 615 1101 633 1101 l 279 1101 m 476 1214 q 458 1203 469 1204 q 439 1208 447 1203 q 428 1223 431 1213 q 433 1247 426 1233 l 538 1411 q 560 1433 547 1428 q 585 1435 574 1438 q 605 1422 597 1432 q 613 1401 613 1413 q 604 1375 614 1389 l 476 1214 z "},"Ḕ":{"ha":800,"x_min":128,"x_max":739,"o":"m 175 0 q 140 13 153 0 q 128 49 128 25 l 128 931 q 140 967 128 954 q 175 979 153 979 l 700 979 q 729 969 719 979 q 739 943 739 960 q 729 915 739 924 q 700 906 719 906 l 211 906 l 211 533 l 672 533 q 701 524 692 533 q 711 497 711 515 q 701 469 711 479 q 672 460 692 460 l 211 460 l 211 74 l 700 74 q 729 65 719 74 q 739 38 739 56 q 729 10 739 19 q 700 0 719 0 l 175 0 m 418 1214 l 290 1375 q 281 1401 281 1389 q 290 1422 282 1413 q 309 1435 297 1432 q 334 1433 321 1438 q 357 1411 347 1428 l 461 1247 q 466 1223 468 1233 q 456 1208 464 1213 q 436 1203 447 1203 q 418 1214 425 1204 m 279 1101 q 253 1110 263 1101 q 243 1133 243 1118 q 253 1157 243 1149 q 279 1165 263 1165 l 615 1165 q 642 1157 633 1165 q 651 1133 651 1149 q 642 1110 651 1118 q 615 1101 633 1101 l 279 1101 z "},"Ę":{"ha":800,"x_min":128,"x_max":760,"o":"m 175 0 q 140 13 153 0 q 128 49 128 25 l 128 931 q 140 967 128 954 q 175 979 153 979 l 700 979 q 729 969 719 979 q 739 943 739 960 q 729 915 739 924 q 700 906 719 906 l 211 906 l 211 533 l 672 533 q 701 524 692 533 q 711 497 711 515 q 701 469 711 479 q 672 460 692 460 l 211 460 l 211 74 l 700 74 q 729 65 719 74 q 739 38 739 56 q 729 10 739 19 q 700 0 719 0 l 175 0 m 658 -265 q 559 -230 597 -265 q 521 -133 521 -194 q 555 -31 521 -79 q 649 47 589 17 l 683 0 q 640 -26 663 -8 q 603 -69 618 -44 q 588 -125 588 -94 q 611 -186 588 -167 q 669 -206 635 -206 q 696 -203 683 -206 q 721 -197 708 -201 q 747 -198 738 -192 q 758 -215 756 -204 q 755 -237 760 -226 q 738 -253 750 -247 q 697 -262 717 -260 q 658 -265 678 -265 z "},"Ẽ":{"ha":800,"x_min":128,"x_max":739,"o":"m 175 0 q 140 13 153 0 q 128 49 128 25 l 128 931 q 140 967 128 954 q 175 979 153 979 l 700 979 q 729 969 719 979 q 739 943 739 960 q 729 915 739 924 q 700 906 719 906 l 211 906 l 211 533 l 672 533 q 701 524 692 533 q 711 497 711 515 q 701 469 711 479 q 672 460 692 460 l 211 460 l 211 74 l 700 74 q 729 65 719 74 q 739 38 739 56 q 729 10 739 19 q 700 0 719 0 l 175 0 m 196 1089 q 176 1099 183 1090 q 169 1124 168 1107 q 224 1234 182 1194 q 324 1274 265 1274 q 394 1256 361 1274 q 459 1217 428 1239 q 519 1178 490 1196 q 575 1161 547 1161 q 637 1187 613 1161 q 669 1257 661 1213 q 681 1276 674 1269 q 699 1282 689 1282 q 719 1272 711 1281 q 725 1247 728 1264 q 672 1138 713 1178 q 572 1097 631 1097 q 501 1115 535 1097 q 436 1153 467 1132 q 376 1192 406 1175 q 319 1210 347 1210 q 258 1184 282 1210 q 225 1114 233 1158 q 215 1096 222 1103 q 196 1089 207 1089 z "},"Ə":{"ha":1054,"x_min":89,"x_max":965,"o":"m 535 -11 q 339 24 422 -11 q 200 124 256 58 q 117 283 144 190 q 89 488 89 375 q 98 522 89 511 q 125 532 107 532 l 901 532 l 901 457 l 154 457 l 178 490 q 217 259 178 354 q 334 115 256 164 q 531 65 413 65 q 716 116 639 65 q 834 261 793 167 q 875 490 875 356 q 830 719 875 625 q 699 863 785 814 q 492 913 614 913 q 325 890 397 913 q 189 815 253 867 q 163 806 175 806 q 142 815 151 807 q 130 833 133 822 q 130 857 126 844 q 147 881 133 869 q 303 963 214 935 q 497 990 393 990 q 747 930 642 990 q 908 758 851 869 q 965 490 965 646 q 935 281 965 374 q 849 123 906 188 q 712 24 792 58 q 535 -11 632 -11 z "},"F":{"ha":753,"x_min":128,"x_max":726,"o":"m 175 -8 q 140 4 153 -8 q 128 39 128 17 l 128 931 q 140 967 128 954 q 175 979 153 979 l 688 979 q 716 969 706 979 q 726 943 726 960 q 716 915 726 924 q 688 906 706 906 l 213 906 l 213 532 l 660 532 q 688 523 678 532 q 699 496 699 514 q 688 468 699 478 q 660 458 678 458 l 213 458 l 213 39 q 175 -8 213 -8 z "},"G":{"ha":1003,"x_min":89,"x_max":883,"o":"m 563 -11 q 303 48 408 -11 q 143 219 197 107 q 89 490 89 332 q 119 699 89 607 q 208 856 150 792 q 349 956 265 921 q 540 990 433 990 q 717 964 633 990 q 861 881 800 938 q 876 858 874 869 q 875 834 879 846 q 862 815 871 822 q 841 806 853 807 q 815 815 829 806 q 690 889 758 867 q 539 911 621 911 q 343 862 424 911 q 221 718 263 813 q 179 490 179 624 q 275 175 179 283 q 564 67 371 67 q 703 81 636 67 q 828 119 769 94 l 807 61 l 807 429 l 588 429 q 558 440 568 429 q 547 467 547 450 q 558 492 547 483 q 588 501 568 501 l 844 501 q 874 491 864 501 q 883 463 883 481 l 883 89 q 878 61 883 72 q 861 44 874 50 q 723 5 806 21 q 563 -11 640 -11 z "},"Ğ":{"ha":1003,"x_min":89,"x_max":883,"o":"m 563 -11 q 303 48 408 -11 q 143 219 197 107 q 89 490 89 332 q 119 699 89 607 q 208 856 150 792 q 349 956 265 921 q 540 990 433 990 q 717 964 633 990 q 861 881 800 938 q 876 858 874 869 q 875 834 879 846 q 862 815 871 822 q 841 806 853 807 q 815 815 829 806 q 690 889 758 867 q 539 911 621 911 q 343 862 424 911 q 221 718 263 813 q 179 490 179 624 q 275 175 179 283 q 564 67 371 67 q 703 81 636 67 q 828 119 769 94 l 807 61 l 807 429 l 588 429 q 558 440 568 429 q 547 467 547 450 q 558 492 547 483 q 588 501 568 501 l 844 501 q 874 491 864 501 q 883 463 883 481 l 883 89 q 878 61 883 72 q 861 44 874 50 q 723 5 806 21 q 563 -11 640 -11 m 538 1056 q 397 1105 458 1056 q 314 1261 335 1154 q 319 1288 311 1278 q 340 1299 328 1297 q 356 1295 349 1299 q 367 1285 363 1292 q 372 1271 371 1279 q 435 1152 388 1186 q 538 1118 482 1118 q 641 1152 593 1118 q 703 1271 689 1186 q 708 1285 704 1279 q 720 1295 713 1292 q 735 1299 728 1299 q 756 1288 747 1297 q 761 1261 764 1278 q 678 1105 740 1154 q 538 1056 617 1056 z "},"Ǧ":{"ha":1003,"x_min":89,"x_max":883,"o":"m 563 -11 q 303 48 408 -11 q 143 219 197 107 q 89 490 89 332 q 119 699 89 607 q 208 856 150 792 q 349 956 265 921 q 540 990 433 990 q 717 964 633 990 q 861 881 800 938 q 876 858 874 869 q 875 834 879 846 q 862 815 871 822 q 841 806 853 807 q 815 815 829 806 q 690 889 758 867 q 539 911 621 911 q 343 862 424 911 q 221 718 263 813 q 179 490 179 624 q 275 175 179 283 q 564 67 371 67 q 703 81 636 67 q 828 119 769 94 l 807 61 l 807 429 l 588 429 q 558 440 568 429 q 547 467 547 450 q 558 492 547 483 q 588 501 568 501 l 844 501 q 874 491 864 501 q 883 463 883 481 l 883 89 q 878 61 883 72 q 861 44 874 50 q 723 5 806 21 q 563 -11 640 -11 m 538 1051 q 506 1058 521 1051 q 481 1082 492 1065 l 349 1267 q 342 1290 340 1279 q 353 1306 344 1300 q 374 1310 363 1311 q 396 1296 386 1308 l 538 1125 l 679 1296 q 701 1310 689 1308 q 722 1306 713 1311 q 733 1290 731 1300 q 726 1267 735 1279 l 596 1082 q 569 1058 583 1065 q 538 1051 554 1051 z "},"Ĝ":{"ha":1003,"x_min":89,"x_max":883,"o":"m 563 -11 q 303 48 408 -11 q 143 219 197 107 q 89 490 89 332 q 119 699 89 607 q 208 856 150 792 q 349 956 265 921 q 540 990 433 990 q 717 964 633 990 q 861 881 800 938 q 876 858 874 869 q 875 834 879 846 q 862 815 871 822 q 841 806 853 807 q 815 815 829 806 q 690 889 758 867 q 539 911 621 911 q 343 862 424 911 q 221 718 263 813 q 179 490 179 624 q 275 175 179 283 q 564 67 371 67 q 703 81 636 67 q 828 119 769 94 l 807 61 l 807 429 l 588 429 q 558 440 568 429 q 547 467 547 450 q 558 492 547 483 q 588 501 568 501 l 844 501 q 874 491 864 501 q 883 463 883 481 l 883 89 q 878 61 883 72 q 861 44 874 50 q 723 5 806 21 q 563 -11 640 -11 m 396 1065 q 374 1053 386 1054 q 353 1057 363 1051 q 342 1073 344 1063 q 349 1094 340 1083 l 481 1279 q 506 1303 492 1297 q 538 1310 521 1310 q 569 1303 554 1310 q 596 1279 583 1297 l 726 1094 q 733 1073 735 1083 q 722 1057 731 1063 q 701 1053 713 1051 q 679 1065 689 1054 l 538 1238 l 396 1065 z "},"Ģ":{"ha":1003,"x_min":89,"x_max":883,"o":"m 563 -11 q 303 48 408 -11 q 143 219 197 107 q 89 490 89 332 q 119 699 89 607 q 208 856 150 792 q 349 956 265 921 q 540 990 433 990 q 717 964 633 990 q 861 881 800 938 q 876 858 874 869 q 875 834 879 846 q 862 815 871 822 q 841 806 853 807 q 815 815 829 806 q 690 889 758 867 q 539 911 621 911 q 343 862 424 911 q 221 718 263 813 q 179 490 179 624 q 275 175 179 283 q 564 67 371 67 q 703 81 636 67 q 828 119 769 94 l 807 61 l 807 429 l 588 429 q 558 440 568 429 q 547 467 547 450 q 558 492 547 483 q 588 501 568 501 l 844 501 q 874 491 864 501 q 883 463 883 481 l 883 89 q 878 61 883 72 q 861 44 874 50 q 723 5 806 21 q 563 -11 640 -11 m 558 -340 q 536 -356 549 -354 q 515 -352 524 -358 q 506 -334 507 -346 q 515 -307 506 -322 q 540 -259 532 -285 q 547 -212 547 -233 l 551 -229 q 503 -212 521 -229 q 486 -169 486 -196 q 502 -126 486 -142 q 546 -110 518 -110 q 592 -128 575 -110 q 608 -183 608 -147 q 603 -237 608 -208 q 587 -292 597 -265 q 558 -340 576 -319 z "},"Ġ":{"ha":1003,"x_min":89,"x_max":883,"o":"m 563 -11 q 303 48 408 -11 q 143 219 197 107 q 89 490 89 332 q 119 699 89 607 q 208 856 150 792 q 349 956 265 921 q 540 990 433 990 q 717 964 633 990 q 861 881 800 938 q 876 858 874 869 q 875 834 879 846 q 862 815 871 822 q 841 806 853 807 q 815 815 829 806 q 690 889 758 867 q 539 911 621 911 q 343 862 424 911 q 221 718 263 813 q 179 490 179 624 q 275 175 179 283 q 564 67 371 67 q 703 81 636 67 q 828 119 769 94 l 807 61 l 807 429 l 588 429 q 558 440 568 429 q 547 467 547 450 q 558 492 547 483 q 588 501 568 501 l 844 501 q 874 491 864 501 q 883 463 883 481 l 883 89 q 878 61 883 72 q 861 44 874 50 q 723 5 806 21 q 563 -11 640 -11 m 538 1124 q 496 1139 511 1124 q 481 1181 481 1154 q 496 1223 481 1208 q 538 1238 511 1238 q 580 1223 565 1238 q 594 1181 594 1208 q 580 1139 594 1154 q 538 1124 565 1124 z "},"Ḡ":{"ha":1003,"x_min":89,"x_max":883,"o":"m 563 -11 q 303 48 408 -11 q 143 219 197 107 q 89 490 89 332 q 119 699 89 607 q 208 856 150 792 q 349 956 265 921 q 540 990 433 990 q 717 964 633 990 q 861 881 800 938 q 876 858 874 869 q 875 834 879 846 q 862 815 871 822 q 841 806 853 807 q 815 815 829 806 q 690 889 758 867 q 539 911 621 911 q 343 862 424 911 q 221 718 263 813 q 179 490 179 624 q 275 175 179 283 q 564 67 371 67 q 703 81 636 67 q 828 119 769 94 l 807 61 l 807 429 l 588 429 q 558 440 568 429 q 547 467 547 450 q 558 492 547 483 q 588 501 568 501 l 844 501 q 874 491 864 501 q 883 463 883 481 l 883 89 q 878 61 883 72 q 861 44 874 50 q 723 5 806 21 q 563 -11 640 -11 m 350 1136 q 315 1168 315 1136 q 324 1193 315 1185 q 350 1201 333 1201 l 725 1201 q 760 1168 760 1201 q 751 1145 760 1154 q 725 1136 742 1136 l 350 1136 z "},"H":{"ha":1050,"x_min":128,"x_max":922,"o":"m 169 -8 q 139 3 150 -8 q 128 36 128 15 l 128 943 q 139 976 128 965 q 169 988 150 988 q 201 976 190 988 q 213 943 213 965 l 213 535 l 838 535 l 838 943 q 849 976 838 965 q 881 988 860 988 q 911 976 900 988 q 922 943 922 965 l 922 36 q 911 3 922 15 q 881 -8 900 -8 q 849 3 860 -8 q 838 36 838 15 l 838 458 l 213 458 l 213 36 q 202 3 213 15 q 169 -8 192 -8 z "},"Ħ":{"ha":1096,"x_min":11,"x_max":1085,"o":"m 193 -8 q 162 3 174 -8 q 150 36 150 15 l 150 742 l 172 726 l 50 726 q 11 763 11 726 q 22 788 11 779 q 50 797 33 797 l 167 797 l 150 776 l 150 943 q 162 976 150 965 q 193 988 174 988 q 225 976 214 988 q 236 943 236 965 l 236 776 l 221 797 l 875 797 l 860 776 l 860 943 q 872 976 860 965 q 903 988 883 988 q 935 976 924 988 q 946 943 946 965 l 946 776 l 928 797 l 1046 797 q 1085 763 1085 797 q 1075 736 1085 746 q 1046 726 1065 726 l 922 726 l 946 742 l 946 36 q 935 3 946 15 q 903 -8 924 -8 q 872 3 883 -8 q 860 36 860 15 l 860 456 l 236 456 l 236 36 q 226 3 236 15 q 193 -8 215 -8 m 236 531 l 860 531 l 860 726 l 236 726 l 236 531 z "},"Ḫ":{"ha":1050,"x_min":128,"x_max":922,"o":"m 169 -8 q 139 3 150 -8 q 128 36 128 15 l 128 943 q 139 976 128 965 q 169 988 150 988 q 201 976 190 988 q 213 943 213 965 l 213 535 l 838 535 l 838 943 q 849 976 838 965 q 881 988 860 988 q 911 976 900 988 q 922 943 922 965 l 922 36 q 911 3 922 15 q 881 -8 900 -8 q 849 3 860 -8 q 838 36 838 15 l 838 458 l 213 458 l 213 36 q 202 3 213 15 q 169 -8 192 -8 m 526 -299 q 390 -251 443 -299 q 322 -119 336 -203 q 327 -91 319 -100 q 347 -81 335 -82 q 362 -82 356 -79 q 373 -91 368 -85 q 381 -108 378 -97 q 428 -203 390 -169 q 526 -236 467 -236 q 624 -203 586 -236 q 672 -108 663 -169 q 685 -85 676 -92 q 706 -81 693 -79 q 727 -91 719 -82 q 731 -119 735 -100 q 663 -251 717 -203 q 526 -299 610 -299 z "},"Ĥ":{"ha":1050,"x_min":128,"x_max":922,"o":"m 169 -8 q 139 3 150 -8 q 128 36 128 15 l 128 943 q 139 976 128 965 q 169 988 150 988 q 201 976 190 988 q 213 943 213 965 l 213 535 l 838 535 l 838 943 q 849 976 838 965 q 881 988 860 988 q 911 976 900 988 q 922 943 922 965 l 922 36 q 911 3 922 15 q 881 -8 900 -8 q 849 3 860 -8 q 838 36 838 15 l 838 458 l 213 458 l 213 36 q 202 3 213 15 q 169 -8 192 -8 m 383 1065 q 362 1053 374 1054 q 341 1057 350 1051 q 330 1073 332 1063 q 336 1094 328 1083 l 468 1279 q 494 1303 479 1297 q 525 1310 508 1310 q 556 1303 542 1310 q 583 1279 571 1297 l 714 1094 q 720 1073 722 1083 q 709 1057 718 1063 q 688 1053 700 1051 q 667 1065 676 1054 l 525 1238 l 383 1065 z "},"Ḥ":{"ha":1050,"x_min":128,"x_max":922,"o":"m 169 -8 q 139 3 150 -8 q 128 36 128 15 l 128 943 q 139 976 128 965 q 169 988 150 988 q 201 976 190 988 q 213 943 213 965 l 213 535 l 838 535 l 838 943 q 849 976 838 965 q 881 988 860 988 q 911 976 900 988 q 922 943 922 965 l 922 36 q 911 3 922 15 q 881 -8 900 -8 q 849 3 860 -8 q 838 36 838 15 l 838 458 l 213 458 l 213 36 q 202 3 213 15 q 169 -8 192 -8 m 526 -254 q 484 -239 500 -254 q 468 -196 468 -224 q 484 -154 468 -168 q 526 -140 500 -140 q 569 -154 554 -140 q 585 -196 585 -168 q 569 -239 585 -224 q 526 -254 554 -254 z "},"I":{"ha":340,"x_min":128,"x_max":213,"o":"m 169 -8 q 139 3 150 -8 q 128 36 128 15 l 128 943 q 139 976 128 965 q 169 988 150 988 q 201 976 190 988 q 213 943 213 965 l 213 36 q 202 3 213 15 q 169 -8 192 -8 z "},"Ĳ":{"ha":771,"x_min":128,"x_max":644,"o":"m 169 -8 q 139 3 150 -8 q 128 36 128 15 l 128 943 q 139 976 128 965 q 169 988 150 988 q 201 976 190 988 q 213 943 213 965 l 213 36 q 202 3 213 15 q 169 -8 192 -8 m 368 -7 q 335 3 347 -8 q 324 32 324 15 q 333 55 324 44 q 358 67 342 65 l 404 71 q 518 125 478 76 q 558 254 558 174 l 558 944 q 569 976 558 965 q 601 988 581 988 q 633 976 622 988 q 644 944 644 965 l 644 253 q 618 121 644 176 q 540 34 592 65 q 413 -4 488 3 l 368 -7 z "},"Í":{"ha":340,"x_min":128,"x_max":369,"o":"m 169 -8 q 139 3 150 -8 q 128 36 128 15 l 128 943 q 139 976 128 965 q 169 988 150 988 q 201 976 190 988 q 213 943 213 965 l 213 36 q 202 3 213 15 q 169 -8 192 -8 m 208 1068 q 188 1056 199 1057 q 167 1060 176 1054 q 156 1077 158 1067 q 161 1100 153 1088 l 292 1289 q 315 1308 301 1304 q 340 1308 328 1313 q 360 1295 351 1304 q 368 1274 368 1286 q 357 1249 368 1263 l 208 1068 z "},"Ĭ":{"ha":340,"x_min":-56,"x_max":397,"o":"m 169 -8 q 139 3 150 -8 q 128 36 128 15 l 128 943 q 139 976 128 965 q 169 988 150 988 q 201 976 190 988 q 213 943 213 965 l 213 36 q 202 3 213 15 q 169 -8 192 -8 m 169 1056 q 28 1105 90 1056 q -54 1261 -33 1154 q -49 1288 -57 1278 q -28 1299 -40 1297 q -12 1295 -19 1299 q -1 1285 -6 1292 q 4 1271 3 1279 q 67 1152 19 1186 q 169 1118 114 1118 q 273 1152 225 1118 q 335 1271 321 1186 q 340 1285 336 1279 q 352 1295 344 1292 q 367 1299 360 1299 q 388 1288 379 1297 q 393 1261 396 1278 q 310 1105 372 1154 q 169 1056 249 1056 z "},"Î":{"ha":340,"x_min":-28,"x_max":368,"o":"m 169 -8 q 139 3 150 -8 q 128 36 128 15 l 128 943 q 139 976 128 965 q 169 988 150 988 q 201 976 190 988 q 213 943 213 965 l 213 36 q 202 3 213 15 q 169 -8 192 -8 m 28 1065 q 6 1053 18 1054 q -15 1057 -6 1051 q -26 1073 -24 1063 q -19 1094 -28 1083 l 113 1279 q 138 1303 124 1297 q 169 1310 153 1310 q 201 1303 186 1310 q 228 1279 215 1297 l 358 1094 q 365 1073 367 1083 q 353 1057 363 1063 q 333 1053 344 1051 q 311 1065 321 1054 l 169 1238 l 28 1065 z "},"Ȉ":{"ha":340,"x_min":-74,"x_max":271,"o":"m 169 -8 q 139 3 150 -8 q 128 36 128 15 l 128 943 q 139 976 128 965 q 169 988 150 988 q 201 976 190 988 q 213 943 213 965 l 213 36 q 202 3 213 15 q 169 -8 192 -8 m 222 1067 l 100 1251 q 92 1278 90 1265 q 101 1299 93 1290 q 122 1310 110 1307 q 145 1307 133 1313 q 165 1285 157 1301 l 265 1088 q 268 1067 271 1076 q 257 1055 265 1058 q 240 1053 249 1051 q 222 1067 231 1056 m 61 1065 l -64 1251 q -74 1278 -75 1265 q -64 1299 -72 1290 q -44 1310 -56 1307 q -20 1307 -32 1313 q 0 1285 -8 1301 l 101 1088 q 105 1069 107 1078 q 94 1056 103 1060 q 77 1053 86 1051 q 61 1065 68 1056 z "},"Ï":{"ha":340,"x_min":-1,"x_max":342,"o":"m 169 -8 q 139 3 150 -8 q 128 36 128 15 l 128 943 q 139 976 128 965 q 169 988 150 988 q 201 976 190 988 q 213 943 213 965 l 213 36 q 202 3 213 15 q 169 -8 192 -8 m 286 1125 q 245 1139 260 1125 q 231 1181 231 1153 q 245 1221 231 1207 q 286 1235 260 1235 q 327 1221 313 1235 q 342 1181 342 1207 q 327 1139 342 1153 q 286 1125 313 1125 m 54 1125 q 13 1139 28 1125 q -3 1181 -3 1153 q 13 1221 -3 1207 q 54 1235 28 1235 q 94 1221 81 1235 q 108 1181 108 1207 q 94 1139 108 1153 q 54 1125 81 1125 z "},"Ḯ":{"ha":340,"x_min":-1,"x_max":342,"o":"m 169 -8 q 139 3 150 -8 q 128 36 128 15 l 128 943 q 139 976 128 965 q 169 988 150 988 q 201 976 190 988 q 213 943 213 965 l 213 36 q 202 3 213 15 q 169 -8 192 -8 m 199 1214 q 180 1203 190 1204 q 161 1208 169 1203 q 151 1223 153 1213 q 156 1247 149 1233 l 260 1411 q 283 1432 269 1428 q 308 1433 296 1436 q 327 1422 319 1431 q 335 1401 335 1413 q 326 1375 336 1389 l 199 1214 m 54 1067 q 13 1079 28 1067 q -3 1117 -3 1092 q 13 1154 -3 1142 q 54 1167 28 1167 q 94 1154 81 1167 q 108 1117 108 1142 q 94 1079 108 1092 q 54 1067 81 1067 m 286 1067 q 245 1079 260 1067 q 231 1117 231 1092 q 245 1154 231 1142 q 286 1167 260 1167 q 327 1154 313 1167 q 342 1117 342 1142 q 327 1079 342 1092 q 286 1067 313 1067 z "},"İ":{"ha":340,"x_min":113,"x_max":228,"o":"m 169 -8 q 139 3 150 -8 q 128 36 128 15 l 128 943 q 139 976 128 965 q 169 988 150 988 q 201 976 190 988 q 213 943 213 965 l 213 36 q 202 3 213 15 q 169 -8 192 -8 m 169 1124 q 128 1139 143 1124 q 113 1181 113 1154 q 128 1223 113 1208 q 169 1238 143 1238 q 212 1223 197 1238 q 226 1181 226 1208 q 212 1139 226 1154 q 169 1124 197 1124 z "},"Ị":{"ha":340,"x_min":113,"x_max":229,"o":"m 169 -8 q 139 3 150 -8 q 128 36 128 15 l 128 943 q 139 976 128 965 q 169 988 150 988 q 201 976 190 988 q 213 943 213 965 l 213 36 q 202 3 213 15 q 169 -8 192 -8 m 169 -254 q 127 -239 143 -254 q 111 -196 111 -224 q 127 -154 111 -168 q 169 -140 143 -140 q 213 -154 197 -140 q 228 -196 228 -168 q 213 -239 228 -224 q 169 -254 197 -254 z "},"Ì":{"ha":340,"x_min":-28,"x_max":213,"o":"m 169 -8 q 139 3 150 -8 q 128 36 128 15 l 128 943 q 139 976 128 965 q 169 988 150 988 q 201 976 190 988 q 213 943 213 965 l 213 36 q 202 3 213 15 q 169 -8 192 -8 m 131 1068 l -18 1249 q -28 1274 -29 1263 q -20 1295 -28 1286 q 0 1308 -12 1304 q 25 1308 13 1313 q 47 1289 38 1304 l 179 1100 q 185 1077 188 1088 q 173 1060 182 1067 q 152 1056 164 1054 q 131 1068 140 1057 z "},"Ỉ":{"ha":340,"x_min":53,"x_max":304,"o":"m 169 -8 q 139 3 150 -8 q 128 36 128 15 l 128 943 q 139 976 128 965 q 169 988 150 988 q 201 976 190 988 q 213 943 213 965 l 213 36 q 202 3 213 15 q 169 -8 192 -8 m 169 1054 q 146 1061 154 1054 q 138 1083 138 1068 q 151 1131 138 1113 q 183 1161 165 1149 q 215 1186 201 1174 q 229 1215 229 1199 q 213 1241 229 1232 q 160 1250 196 1250 q 131 1248 147 1250 q 100 1240 115 1246 q 70 1237 81 1235 q 56 1251 60 1239 q 58 1274 53 1264 q 78 1290 63 1285 q 124 1303 99 1299 q 174 1307 150 1307 q 269 1284 235 1307 q 303 1224 303 1261 q 288 1176 303 1193 q 253 1147 272 1158 q 218 1119 233 1135 q 203 1076 203 1104 q 194 1060 203 1067 q 169 1054 185 1054 z "},"Ȋ":{"ha":340,"x_min":-56,"x_max":397,"o":"m 169 -8 q 139 3 150 -8 q 128 36 128 15 l 128 943 q 139 976 128 965 q 169 988 150 988 q 201 976 190 988 q 213 943 213 965 l 213 36 q 202 3 213 15 q 169 -8 192 -8 m -28 1053 q -49 1064 -40 1054 q -54 1090 -57 1074 q 28 1247 -33 1197 q 169 1296 90 1296 q 311 1247 249 1296 q 393 1090 374 1197 q 388 1064 396 1074 q 367 1053 379 1054 q 352 1056 360 1053 q 340 1067 344 1060 q 335 1081 336 1074 q 272 1199 318 1165 q 169 1233 225 1233 q 67 1199 114 1233 q 4 1081 21 1165 q -1 1067 3 1074 q -12 1056 -6 1060 q -28 1053 -19 1053 z "},"Ī":{"ha":340,"x_min":-53,"x_max":393,"o":"m 169 -8 q 139 3 150 -8 q 128 36 128 15 l 128 943 q 139 976 128 965 q 169 988 150 988 q 201 976 190 988 q 213 943 213 965 l 213 36 q 202 3 213 15 q 169 -8 192 -8 m -18 1136 q -53 1168 -53 1136 q -44 1193 -53 1185 q -18 1201 -35 1201 l 357 1201 q 392 1168 392 1201 q 383 1145 392 1154 q 357 1136 374 1136 l -18 1136 z "},"Į":{"ha":340,"x_min":42,"x_max":281,"o":"m 179 -265 q 80 -230 118 -265 q 42 -133 42 -194 q 67 -45 42 -87 q 139 28 92 -3 l 133 11 q 129 24 131 17 q 128 36 128 31 l 128 943 q 139 976 128 965 q 169 988 150 988 q 201 976 190 988 q 213 943 213 965 l 213 36 q 207 10 213 21 q 192 -6 201 0 q 135 -53 161 -22 q 108 -125 108 -83 q 132 -186 108 -167 q 190 -206 156 -206 q 217 -203 204 -206 q 242 -197 229 -201 q 267 -198 258 -192 q 278 -215 276 -204 q 276 -237 281 -226 q 258 -253 271 -247 q 219 -262 239 -260 q 179 -265 199 -265 z "},"Ĩ":{"ha":340,"x_min":-110,"x_max":451,"o":"m 169 -8 q 139 3 150 -8 q 128 36 128 15 l 128 943 q 139 976 128 965 q 169 988 150 988 q 201 976 190 988 q 213 943 213 965 l 213 36 q 202 3 213 15 q 169 -8 192 -8 m -82 1089 q -102 1099 -94 1090 q -108 1124 -110 1107 q -54 1234 -96 1194 q 46 1274 -12 1274 q 117 1256 83 1274 q 181 1217 150 1239 q 241 1178 213 1196 q 297 1161 269 1161 q 359 1187 335 1161 q 392 1257 383 1213 q 403 1276 396 1269 q 421 1282 411 1282 q 442 1272 433 1281 q 447 1247 450 1264 q 394 1138 435 1178 q 294 1097 353 1097 q 223 1115 257 1097 q 158 1153 189 1132 q 99 1192 128 1175 q 42 1210 69 1210 q -20 1184 4 1210 q -53 1114 -44 1158 q -63 1096 -56 1103 q -82 1089 -71 1089 z "},"J":{"ha":431,"x_min":-17,"x_max":304,"o":"m 28 -7 q -5 3 7 -8 q -17 32 -17 15 q -8 55 -17 44 q 18 67 1 65 l 64 71 q 178 125 138 76 q 218 254 218 174 l 218 944 q 229 976 218 965 q 261 988 240 988 q 293 976 282 988 q 304 944 304 965 l 304 253 q 278 121 304 176 q 199 34 251 65 q 72 -4 147 3 l 28 -7 z "},"Ĵ":{"ha":431,"x_min":-17,"x_max":458,"o":"m 28 -7 q -5 3 7 -8 q -17 32 -17 15 q -8 55 -17 44 q 18 67 1 65 l 64 71 q 178 125 138 76 q 218 254 218 174 l 218 944 q 229 976 218 965 q 261 988 240 988 q 293 976 282 988 q 304 944 304 965 l 304 253 q 278 121 304 176 q 199 34 251 65 q 72 -4 147 3 l 28 -7 m 119 1065 q 98 1053 110 1054 q 77 1057 86 1051 q 66 1073 68 1063 q 72 1094 64 1083 l 204 1279 q 230 1303 215 1297 q 261 1310 244 1310 q 292 1303 278 1310 q 319 1279 307 1297 l 450 1094 q 456 1073 458 1083 q 445 1057 454 1063 q 424 1053 436 1051 q 403 1065 413 1054 l 261 1238 l 119 1065 z "},"K":{"ha":843,"x_min":128,"x_max":814,"o":"m 169 -8 q 139 3 150 -8 q 128 36 128 15 l 128 944 q 139 976 128 965 q 169 988 150 988 q 201 976 190 988 q 213 944 213 965 l 213 529 l 215 529 l 692 963 q 721 981 707 975 q 750 988 735 988 q 778 978 769 988 q 786 956 788 969 q 771 931 785 943 l 265 474 l 268 526 l 794 57 q 813 26 811 42 q 803 1 814 11 q 774 -8 793 -8 q 745 -1 757 -8 q 718 18 733 6 l 215 465 l 213 465 l 213 36 q 202 3 213 15 q 169 -8 192 -8 z "},"Ķ":{"ha":843,"x_min":128,"x_max":814,"o":"m 169 -8 q 139 3 150 -8 q 128 36 128 15 l 128 944 q 139 976 128 965 q 169 988 150 988 q 201 976 190 988 q 213 944 213 965 l 213 529 l 215 529 l 692 963 q 721 981 707 975 q 750 988 735 988 q 778 978 769 988 q 786 956 788 969 q 771 931 785 943 l 265 474 l 268 526 l 794 57 q 813 26 811 42 q 803 1 814 11 q 774 -8 793 -8 q 745 -1 757 -8 q 718 18 733 6 l 215 465 l 213 465 l 213 36 q 202 3 213 15 q 169 -8 192 -8 m 440 -340 q 418 -356 431 -354 q 397 -352 406 -358 q 388 -334 389 -346 q 397 -307 388 -322 q 422 -259 414 -285 q 429 -212 429 -233 l 433 -229 q 385 -212 403 -229 q 368 -169 368 -196 q 384 -126 368 -142 q 428 -110 400 -110 q 474 -128 457 -110 q 490 -183 490 -147 q 485 -237 490 -208 q 469 -292 479 -265 q 440 -340 458 -319 z "},"L":{"ha":743,"x_min":128,"x_max":732,"o":"m 171 0 q 140 12 151 0 q 128 44 128 24 l 128 942 q 139 975 128 964 q 169 986 150 986 q 201 975 190 986 q 213 942 213 964 l 213 76 l 690 76 q 722 67 711 76 q 732 39 732 57 q 722 10 732 19 q 690 0 711 0 l 171 0 z "},"Ǉ":{"ha":1229,"x_min":128,"x_max":1103,"o":"m 171 0 q 140 12 151 0 q 128 44 128 24 l 128 942 q 139 975 128 964 q 169 986 150 986 q 201 975 190 986 q 213 942 213 964 l 213 76 l 690 76 q 722 67 711 76 q 732 39 732 57 q 722 10 732 19 q 690 0 711 0 l 171 0 m 826 -7 q 794 3 806 -8 q 782 32 782 15 q 791 55 782 44 q 817 67 800 65 l 863 71 q 976 125 936 76 q 1017 254 1017 174 l 1017 944 q 1028 976 1017 965 q 1060 988 1039 988 q 1092 976 1081 988 q 1103 944 1103 965 l 1103 253 q 1076 121 1103 176 q 998 34 1050 65 q 871 -4 946 3 l 826 -7 z "},"Ĺ":{"ha":743,"x_min":128,"x_max":732,"o":"m 171 0 q 140 12 151 0 q 128 44 128 24 l 128 942 q 139 975 128 964 q 169 986 150 986 q 201 975 190 986 q 213 942 213 964 l 213 76 l 690 76 q 722 67 711 76 q 732 39 732 57 q 722 10 732 19 q 690 0 711 0 l 171 0 m 208 1068 q 188 1056 199 1057 q 167 1060 176 1054 q 156 1077 158 1067 q 161 1100 153 1088 l 292 1289 q 315 1308 301 1304 q 340 1308 328 1313 q 360 1295 351 1304 q 368 1274 368 1286 q 357 1249 368 1263 l 208 1068 z "},"Ľ":{"ha":743,"x_min":128,"x_max":732,"o":"m 171 0 q 140 12 151 0 q 128 44 128 24 l 128 942 q 139 975 128 964 q 169 986 150 986 q 201 975 190 986 q 213 942 213 964 l 213 76 l 690 76 q 722 67 711 76 q 732 39 732 57 q 722 10 732 19 q 690 0 711 0 l 171 0 m 406 668 q 385 676 393 668 q 378 697 378 683 l 378 946 q 388 977 378 967 q 419 988 399 988 q 449 977 439 988 q 458 944 460 967 l 436 696 q 406 668 433 668 z "},"Ļ":{"ha":743,"x_min":128,"x_max":732,"o":"m 171 0 q 140 12 151 0 q 128 44 128 24 l 128 942 q 139 975 128 964 q 169 986 150 986 q 201 975 190 986 q 213 942 213 964 l 213 76 l 690 76 q 722 67 711 76 q 732 39 732 57 q 722 10 732 19 q 690 0 711 0 l 171 0 m 436 -340 q 414 -356 426 -354 q 393 -352 401 -358 q 384 -334 385 -346 q 393 -307 383 -322 q 417 -259 410 -285 q 425 -212 425 -233 l 429 -229 q 381 -212 399 -229 q 364 -169 364 -196 q 380 -126 364 -142 q 424 -110 396 -110 q 469 -128 453 -110 q 486 -183 486 -147 q 481 -237 486 -208 q 465 -292 475 -265 q 436 -340 454 -319 z "},"Ŀ":{"ha":743,"x_min":128,"x_max":732,"o":"m 171 0 q 140 12 151 0 q 128 44 128 24 l 128 942 q 139 975 128 964 q 169 986 150 986 q 201 975 190 986 q 213 942 213 964 l 213 76 l 690 76 q 722 67 711 76 q 732 39 732 57 q 722 10 732 19 q 690 0 711 0 l 171 0 m 547 475 q 501 493 519 475 q 482 539 482 511 q 501 585 482 567 q 547 603 519 603 q 593 585 576 603 q 610 539 610 567 q 593 493 610 511 q 547 475 576 475 z "},"Ḷ":{"ha":743,"x_min":128,"x_max":732,"o":"m 171 0 q 140 12 151 0 q 128 44 128 24 l 128 942 q 139 975 128 964 q 169 986 150 986 q 201 975 190 986 q 213 942 213 964 l 213 76 l 690 76 q 722 67 711 76 q 732 39 732 57 q 722 10 732 19 q 690 0 711 0 l 171 0 m 425 -254 q 383 -239 399 -254 q 367 -196 367 -224 q 383 -154 367 -168 q 425 -140 399 -140 q 468 -154 453 -140 q 483 -196 483 -168 q 468 -239 483 -224 q 425 -254 453 -254 z "},"ǈ":{"ha":1056,"x_min":128,"x_max":963,"o":"m 171 0 q 140 12 151 0 q 128 44 128 24 l 128 942 q 139 975 128 964 q 169 986 150 986 q 201 975 190 986 q 213 942 213 964 l 213 76 l 690 76 q 722 67 711 76 q 732 39 732 57 q 722 10 732 19 q 690 0 711 0 l 171 0 m 706 -265 q 679 -260 689 -267 q 665 -242 669 -253 q 663 -222 661 -232 q 672 -203 664 -211 q 696 -196 681 -196 q 819 -153 779 -193 q 860 -26 860 -114 l 860 639 q 871 672 860 661 q 901 683 882 683 q 933 672 922 683 q 944 639 944 661 l 944 -21 q 916 -158 944 -104 q 835 -237 888 -211 q 706 -265 782 -264 m 901 847 q 857 863 874 847 q 840 906 840 878 q 857 948 840 933 q 901 963 874 963 q 947 948 931 963 q 963 906 963 933 q 947 863 963 878 q 901 847 931 847 z "},"Ḻ":{"ha":743,"x_min":128,"x_max":732,"o":"m 171 0 q 140 12 151 0 q 128 44 128 24 l 128 942 q 139 975 128 964 q 169 986 150 986 q 201 975 190 986 q 213 942 213 964 l 213 76 l 690 76 q 722 67 711 76 q 732 39 732 57 q 722 10 732 19 q 690 0 711 0 l 171 0 m 258 -211 q 224 -179 224 -211 q 233 -156 224 -164 q 258 -147 242 -147 l 592 -147 q 626 -179 626 -147 q 617 -203 626 -194 q 592 -211 608 -211 l 258 -211 z "},"Ł":{"ha":743,"x_min":-22,"x_max":732,"o":"m 171 0 q 140 12 151 0 q 128 44 128 24 l 128 942 q 139 975 128 964 q 169 986 150 986 q 201 975 190 986 q 213 942 213 964 l 213 76 l 690 76 q 722 67 711 76 q 732 39 732 57 q 722 10 732 19 q 690 0 711 0 l 171 0 m 38 385 q 11 378 24 376 q -10 387 -1 379 q -20 406 -18 394 q -17 428 -22 417 q 3 449 -11 439 l 426 692 q 453 699 442 700 q 474 690 465 697 q 484 671 482 682 q 481 648 486 660 q 461 628 476 636 l 38 385 z "},"M":{"ha":1179,"x_min":131,"x_max":1050,"o":"m 169 -8 q 141 3 151 -8 q 131 33 131 14 l 131 946 q 141 977 131 967 q 168 988 151 988 q 196 981 186 988 q 214 958 206 974 l 611 204 l 572 204 l 967 958 q 985 981 976 974 q 1013 988 994 988 q 1040 977 1029 988 q 1050 946 1050 967 l 1050 33 q 1040 3 1050 14 q 1011 -8 1031 -8 q 981 3 992 -8 q 971 33 971 14 l 971 876 l 1004 876 l 632 171 q 617 150 625 157 q 593 143 608 143 q 567 151 576 143 q 551 171 558 158 l 175 878 l 208 878 l 208 33 q 199 3 208 14 q 169 -8 189 -8 z "},"Ṃ":{"ha":1179,"x_min":131,"x_max":1050,"o":"m 169 -8 q 141 3 151 -8 q 131 33 131 14 l 131 946 q 141 977 131 967 q 168 988 151 988 q 196 981 186 988 q 214 958 206 974 l 611 204 l 572 204 l 967 958 q 985 981 976 974 q 1013 988 994 988 q 1040 977 1029 988 q 1050 946 1050 967 l 1050 33 q 1040 3 1050 14 q 1011 -8 1031 -8 q 981 3 992 -8 q 971 33 971 14 l 971 876 l 1004 876 l 632 171 q 617 150 625 157 q 593 143 608 143 q 567 151 576 143 q 551 171 558 158 l 175 878 l 208 878 l 208 33 q 199 3 208 14 q 169 -8 189 -8 m 590 -254 q 548 -239 564 -254 q 532 -196 532 -224 q 548 -154 532 -168 q 590 -140 564 -140 q 633 -154 618 -140 q 649 -196 649 -168 q 633 -239 649 -224 q 590 -254 618 -254 z "},"N":{"ha":1022,"x_min":128,"x_max":894,"o":"m 168 -8 q 138 3 149 -8 q 128 35 128 14 l 128 943 q 138 976 128 965 q 164 988 147 988 q 190 982 182 988 q 208 961 199 976 l 847 101 l 815 101 l 815 946 q 826 977 815 967 q 856 988 836 988 q 884 977 874 988 q 894 946 894 967 l 894 35 q 885 3 894 14 q 860 -8 876 -8 q 835 -2 844 -8 q 814 18 825 4 l 176 878 l 207 878 l 207 35 q 197 3 207 14 q 168 -8 186 -8 z "},"Ǌ":{"ha":1453,"x_min":128,"x_max":1325,"o":"m 168 -8 q 138 3 149 -8 q 128 35 128 14 l 128 943 q 138 976 128 965 q 164 988 147 988 q 190 982 182 988 q 208 961 199 976 l 847 101 l 815 101 l 815 946 q 826 977 815 967 q 856 988 836 988 q 884 977 874 988 q 894 946 894 967 l 894 35 q 885 3 894 14 q 860 -8 876 -8 q 835 -2 844 -8 q 814 18 825 4 l 176 878 l 207 878 l 207 35 q 197 3 207 14 q 168 -8 186 -8 m 1050 -7 q 1017 3 1029 -8 q 1006 32 1006 15 q 1015 55 1006 44 q 1040 67 1024 65 l 1086 71 q 1200 125 1160 76 q 1240 254 1240 174 l 1240 944 q 1251 976 1240 965 q 1283 988 1263 988 q 1315 976 1304 988 q 1326 944 1326 965 l 1326 253 q 1300 121 1326 176 q 1222 34 1274 65 q 1094 -4 1169 3 l 1050 -7 z "},"Ń":{"ha":1022,"x_min":128,"x_max":894,"o":"m 168 -8 q 138 3 149 -8 q 128 35 128 14 l 128 943 q 138 976 128 965 q 164 988 147 988 q 190 982 182 988 q 208 961 199 976 l 847 101 l 815 101 l 815 946 q 826 977 815 967 q 856 988 836 988 q 884 977 874 988 q 894 946 894 967 l 894 35 q 885 3 894 14 q 860 -8 876 -8 q 835 -2 844 -8 q 814 18 825 4 l 176 878 l 207 878 l 207 35 q 197 3 207 14 q 168 -8 186 -8 m 550 1068 q 529 1056 540 1057 q 509 1060 518 1054 q 497 1077 500 1067 q 503 1100 494 1088 l 633 1289 q 656 1308 643 1304 q 681 1308 669 1313 q 701 1295 693 1304 q 710 1274 710 1286 q 699 1249 710 1263 l 550 1068 z "},"Ň":{"ha":1022,"x_min":128,"x_max":894,"o":"m 168 -8 q 138 3 149 -8 q 128 35 128 14 l 128 943 q 138 976 128 965 q 164 988 147 988 q 190 982 182 988 q 208 961 199 976 l 847 101 l 815 101 l 815 946 q 826 977 815 967 q 856 988 836 988 q 884 977 874 988 q 894 946 894 967 l 894 35 q 885 3 894 14 q 860 -8 876 -8 q 835 -2 844 -8 q 814 18 825 4 l 176 878 l 207 878 l 207 35 q 197 3 207 14 q 168 -8 186 -8 m 511 1051 q 480 1058 494 1051 q 454 1082 465 1065 l 322 1267 q 316 1290 314 1279 q 327 1306 318 1300 q 348 1310 336 1311 q 369 1296 360 1308 l 511 1125 l 653 1296 q 674 1310 663 1308 q 695 1306 686 1311 q 706 1290 704 1300 q 700 1267 708 1279 l 569 1082 q 542 1058 557 1065 q 511 1051 528 1051 z "},"Ņ":{"ha":1022,"x_min":128,"x_max":894,"o":"m 168 -8 q 138 3 149 -8 q 128 35 128 14 l 128 943 q 138 976 128 965 q 164 988 147 988 q 190 982 182 988 q 208 961 199 976 l 847 101 l 815 101 l 815 946 q 826 977 815 967 q 856 988 836 988 q 884 977 874 988 q 894 946 894 967 l 894 35 q 885 3 894 14 q 860 -8 876 -8 q 835 -2 844 -8 q 814 18 825 4 l 176 878 l 207 878 l 207 35 q 197 3 207 14 q 168 -8 186 -8 m 522 -340 q 500 -356 513 -354 q 479 -352 488 -358 q 470 -334 471 -346 q 479 -307 469 -322 q 503 -259 496 -285 q 511 -212 511 -233 l 515 -229 q 467 -212 485 -229 q 450 -169 450 -196 q 466 -126 450 -142 q 510 -110 482 -110 q 556 -128 539 -110 q 572 -183 572 -147 q 567 -237 572 -208 q 551 -292 561 -265 q 522 -340 540 -319 z "},"Ṅ":{"ha":1022,"x_min":128,"x_max":894,"o":"m 168 -8 q 138 3 149 -8 q 128 35 128 14 l 128 943 q 138 976 128 965 q 164 988 147 988 q 190 982 182 988 q 208 961 199 976 l 847 101 l 815 101 l 815 946 q 826 977 815 967 q 856 988 836 988 q 884 977 874 988 q 894 946 894 967 l 894 35 q 885 3 894 14 q 860 -8 876 -8 q 835 -2 844 -8 q 814 18 825 4 l 176 878 l 207 878 l 207 35 q 197 3 207 14 q 168 -8 186 -8 m 511 1124 q 469 1139 485 1124 q 454 1181 454 1154 q 469 1223 454 1208 q 511 1238 485 1238 q 553 1223 539 1238 q 568 1181 568 1208 q 553 1139 568 1154 q 511 1124 539 1124 z "},"Ṇ":{"ha":1022,"x_min":128,"x_max":894,"o":"m 168 -8 q 138 3 149 -8 q 128 35 128 14 l 128 943 q 138 976 128 965 q 164 988 147 988 q 190 982 182 988 q 208 961 199 976 l 847 101 l 815 101 l 815 946 q 826 977 815 967 q 856 988 836 988 q 884 977 874 988 q 894 946 894 967 l 894 35 q 885 3 894 14 q 860 -8 876 -8 q 835 -2 844 -8 q 814 18 825 4 l 176 878 l 207 878 l 207 35 q 197 3 207 14 q 168 -8 186 -8 m 511 -254 q 469 -239 485 -254 q 453 -196 453 -224 q 469 -154 453 -168 q 511 -140 485 -140 q 554 -154 539 -140 q 569 -196 569 -168 q 554 -239 569 -224 q 511 -254 539 -254 z "},"ǋ":{"ha":1335,"x_min":128,"x_max":1242,"o":"m 168 -8 q 138 3 149 -8 q 128 35 128 14 l 128 943 q 138 976 128 965 q 164 988 147 988 q 190 982 182 988 q 208 961 199 976 l 847 101 l 815 101 l 815 946 q 826 977 815 967 q 856 988 836 988 q 884 977 874 988 q 894 946 894 967 l 894 35 q 885 3 894 14 q 860 -8 876 -8 q 835 -2 844 -8 q 814 18 825 4 l 176 878 l 207 878 l 207 35 q 197 3 207 14 q 168 -8 186 -8 m 985 -265 q 958 -260 968 -267 q 944 -242 949 -253 q 942 -222 940 -232 q 951 -203 943 -211 q 975 -196 960 -196 q 1099 -153 1058 -193 q 1139 -26 1139 -114 l 1139 639 q 1150 672 1139 661 q 1181 683 1161 683 q 1213 672 1201 683 q 1224 639 1224 661 l 1224 -21 q 1195 -158 1224 -104 q 1114 -237 1167 -211 q 985 -265 1061 -264 m 1181 847 q 1136 863 1153 847 q 1119 906 1119 878 q 1136 948 1119 933 q 1181 963 1153 963 q 1226 948 1210 963 q 1242 906 1242 933 q 1226 863 1242 878 q 1181 847 1210 847 z "},"Ṉ":{"ha":1022,"x_min":128,"x_max":894,"o":"m 168 -8 q 138 3 149 -8 q 128 35 128 14 l 128 943 q 138 976 128 965 q 164 988 147 988 q 190 982 182 988 q 208 961 199 976 l 847 101 l 815 101 l 815 946 q 826 977 815 967 q 856 988 836 988 q 884 977 874 988 q 894 946 894 967 l 894 35 q 885 3 894 14 q 860 -8 876 -8 q 835 -2 844 -8 q 814 18 825 4 l 176 878 l 207 878 l 207 35 q 197 3 207 14 q 168 -8 186 -8 m 344 -211 q 310 -179 310 -211 q 319 -156 310 -164 q 344 -147 328 -147 l 678 -147 q 713 -179 713 -147 q 703 -203 713 -194 q 678 -211 694 -211 l 344 -211 z "},"Ñ":{"ha":1022,"x_min":128,"x_max":894,"o":"m 168 -8 q 138 3 149 -8 q 128 35 128 14 l 128 943 q 138 976 128 965 q 164 988 147 988 q 190 982 182 988 q 208 961 199 976 l 847 101 l 815 101 l 815 946 q 826 977 815 967 q 856 988 836 988 q 884 977 874 988 q 894 946 894 967 l 894 35 q 885 3 894 14 q 860 -8 876 -8 q 835 -2 844 -8 q 814 18 825 4 l 176 878 l 207 878 l 207 35 q 197 3 207 14 q 168 -8 186 -8 m 260 1089 q 240 1099 247 1090 q 233 1124 232 1107 q 288 1234 246 1194 q 388 1274 329 1274 q 458 1256 425 1274 q 523 1217 492 1239 q 583 1178 554 1196 q 639 1161 611 1161 q 701 1187 676 1161 q 733 1257 725 1213 q 745 1276 738 1269 q 763 1282 753 1282 q 783 1272 775 1281 q 789 1247 792 1264 q 735 1138 776 1178 q 636 1097 694 1097 q 565 1115 599 1097 q 500 1153 531 1132 q 440 1192 469 1175 q 383 1210 411 1210 q 322 1184 346 1210 q 289 1114 297 1158 q 278 1096 286 1103 q 260 1089 271 1089 z "},"Ŋ":{"ha":1022,"x_min":128,"x_max":894,"o":"m 656 -265 q 628 -260 639 -267 q 615 -242 618 -253 q 613 -222 611 -232 q 624 -203 615 -211 q 646 -196 632 -196 q 772 -153 729 -192 q 815 -26 815 -114 l 815 43 l 828 0 l 176 878 l 207 878 l 207 35 q 197 3 207 14 q 168 -8 186 -8 q 138 3 149 -8 q 128 35 128 14 l 128 943 q 138 976 128 965 q 164 988 147 988 q 190 982 182 988 q 208 961 199 976 l 847 101 l 815 101 l 815 946 q 826 977 815 967 q 856 988 836 988 q 884 977 874 988 q 894 946 894 967 l 894 -19 q 831 -206 894 -147 q 656 -265 768 -264 z "},"O":{"ha":1054,"x_min":89,"x_max":965,"o":"m 526 -11 q 294 50 393 -11 q 142 224 196 111 q 89 490 89 336 q 119 699 89 607 q 206 856 149 792 q 344 956 263 921 q 526 990 425 990 q 761 930 663 990 q 913 758 860 869 q 965 492 965 646 q 935 282 965 375 q 847 124 904 189 q 709 24 790 58 q 526 -11 628 -11 m 526 67 q 715 117 638 67 q 834 261 793 167 q 875 490 875 356 q 784 802 875 692 q 526 913 693 913 q 339 863 417 913 q 220 718 261 813 q 179 490 179 624 q 271 178 179 290 q 526 67 363 67 z "},"Ó":{"ha":1054,"x_min":89,"x_max":965,"o":"m 526 -11 q 294 50 393 -11 q 142 224 196 111 q 89 490 89 336 q 119 699 89 607 q 206 856 149 792 q 344 956 263 921 q 526 990 425 990 q 761 930 663 990 q 913 758 860 869 q 965 492 965 646 q 935 282 965 375 q 847 124 904 189 q 709 24 790 58 q 526 -11 628 -11 m 526 67 q 715 117 638 67 q 834 261 793 167 q 875 490 875 356 q 784 802 875 692 q 526 913 693 913 q 339 863 417 913 q 220 718 261 813 q 179 490 179 624 q 271 178 179 290 q 526 67 363 67 m 565 1068 q 544 1056 556 1057 q 524 1060 533 1054 q 513 1077 515 1067 q 518 1100 510 1088 l 649 1289 q 672 1308 658 1304 q 697 1308 685 1313 q 717 1295 708 1304 q 725 1274 725 1286 q 714 1249 725 1263 l 565 1068 z "},"Ŏ":{"ha":1054,"x_min":89,"x_max":965,"o":"m 526 -11 q 294 50 393 -11 q 142 224 196 111 q 89 490 89 336 q 119 699 89 607 q 206 856 149 792 q 344 956 263 921 q 526 990 425 990 q 761 930 663 990 q 913 758 860 869 q 965 492 965 646 q 935 282 965 375 q 847 124 904 189 q 709 24 790 58 q 526 -11 628 -11 m 526 67 q 715 117 638 67 q 834 261 793 167 q 875 490 875 356 q 784 802 875 692 q 526 913 693 913 q 339 863 417 913 q 220 718 261 813 q 179 490 179 624 q 271 178 179 290 q 526 67 363 67 m 526 1056 q 385 1105 447 1056 q 303 1261 324 1154 q 308 1288 300 1278 q 329 1299 317 1297 q 344 1295 338 1299 q 356 1285 351 1292 q 361 1271 360 1279 q 424 1152 376 1186 q 526 1118 471 1118 q 630 1152 582 1118 q 692 1271 678 1186 q 697 1285 693 1279 q 709 1295 701 1292 q 724 1299 717 1299 q 744 1288 736 1297 q 750 1261 753 1278 q 667 1105 729 1154 q 526 1056 606 1056 z "},"Ô":{"ha":1054,"x_min":89,"x_max":965,"o":"m 526 -11 q 294 50 393 -11 q 142 224 196 111 q 89 490 89 336 q 119 699 89 607 q 206 856 149 792 q 344 956 263 921 q 526 990 425 990 q 761 930 663 990 q 913 758 860 869 q 965 492 965 646 q 935 282 965 375 q 847 124 904 189 q 709 24 790 58 q 526 -11 628 -11 m 526 67 q 715 117 638 67 q 834 261 793 167 q 875 490 875 356 q 784 802 875 692 q 526 913 693 913 q 339 863 417 913 q 220 718 261 813 q 179 490 179 624 q 271 178 179 290 q 526 67 363 67 m 385 1065 q 363 1053 375 1054 q 342 1057 351 1051 q 331 1073 333 1063 q 338 1094 329 1083 l 469 1279 q 495 1303 481 1297 q 526 1310 510 1310 q 558 1303 543 1310 q 585 1279 572 1297 l 715 1094 q 722 1073 724 1083 q 710 1057 719 1063 q 690 1053 701 1051 q 668 1065 678 1054 l 526 1238 l 385 1065 z "},"Ố":{"ha":1054,"x_min":89,"x_max":965,"o":"m 526 -11 q 294 50 393 -11 q 142 224 196 111 q 89 490 89 336 q 119 699 89 607 q 206 856 149 792 q 344 956 263 921 q 526 990 425 990 q 761 930 663 990 q 913 758 860 869 q 965 492 965 646 q 935 282 965 375 q 847 124 904 189 q 709 24 790 58 q 526 -11 628 -11 m 526 67 q 715 117 638 67 q 834 261 793 167 q 875 490 875 356 q 784 802 875 692 q 526 913 693 913 q 339 863 417 913 q 220 718 261 813 q 179 490 179 624 q 271 178 179 290 q 526 67 363 67 m 397 1067 q 377 1053 388 1056 q 358 1057 367 1051 q 348 1073 350 1063 q 354 1096 346 1083 l 471 1267 q 497 1291 482 1285 q 526 1297 511 1297 q 547 1294 538 1297 q 566 1285 557 1292 q 582 1267 575 1279 l 699 1096 q 705 1073 707 1083 q 695 1057 703 1063 q 676 1053 688 1051 q 656 1067 665 1056 l 526 1225 l 397 1067 m 704 1199 q 688 1189 697 1190 q 669 1193 678 1188 q 659 1208 661 1199 q 664 1232 657 1218 l 764 1403 q 784 1423 772 1418 q 807 1425 796 1428 q 826 1413 818 1422 q 834 1392 833 1404 q 826 1368 835 1381 l 704 1199 z "},"Ộ":{"ha":1054,"x_min":89,"x_max":965,"o":"m 526 -11 q 294 50 393 -11 q 142 224 196 111 q 89 490 89 336 q 119 699 89 607 q 206 856 149 792 q 344 956 263 921 q 526 990 425 990 q 761 930 663 990 q 913 758 860 869 q 965 492 965 646 q 935 282 965 375 q 847 124 904 189 q 709 24 790 58 q 526 -11 628 -11 m 526 67 q 715 117 638 67 q 834 261 793 167 q 875 490 875 356 q 784 802 875 692 q 526 913 693 913 q 339 863 417 913 q 220 718 261 813 q 179 490 179 624 q 271 178 179 290 q 526 67 363 67 m 526 -254 q 484 -239 500 -254 q 468 -196 468 -224 q 484 -154 468 -168 q 526 -140 500 -140 q 569 -154 554 -140 q 585 -196 585 -168 q 569 -239 585 -224 q 526 -254 554 -254 m 385 1065 q 363 1053 375 1054 q 342 1057 351 1051 q 331 1073 333 1063 q 338 1094 329 1083 l 469 1279 q 495 1303 481 1297 q 526 1310 510 1310 q 558 1303 543 1310 q 585 1279 572 1297 l 715 1094 q 722 1073 724 1083 q 710 1057 719 1063 q 690 1053 701 1051 q 668 1065 678 1054 l 526 1238 l 385 1065 z "},"Ồ":{"ha":1054,"x_min":89,"x_max":965,"o":"m 526 -11 q 294 50 393 -11 q 142 224 196 111 q 89 490 89 336 q 119 699 89 607 q 206 856 149 792 q 344 956 263 921 q 526 990 425 990 q 761 930 663 990 q 913 758 860 869 q 965 492 965 646 q 935 282 965 375 q 847 124 904 189 q 709 24 790 58 q 526 -11 628 -11 m 526 67 q 715 117 638 67 q 834 261 793 167 q 875 490 875 356 q 784 802 875 692 q 526 913 693 913 q 339 863 417 913 q 220 718 261 813 q 179 490 179 624 q 271 178 179 290 q 526 67 363 67 m 397 1067 q 377 1053 388 1056 q 358 1057 367 1051 q 348 1073 350 1063 q 354 1096 346 1083 l 471 1267 q 497 1291 482 1285 q 526 1297 511 1297 q 547 1294 538 1297 q 566 1285 557 1292 q 582 1267 575 1279 l 699 1096 q 705 1073 707 1083 q 695 1057 703 1063 q 676 1053 688 1051 q 656 1067 665 1056 l 526 1225 l 397 1067 m 708 1199 l 586 1368 q 578 1392 578 1381 q 587 1413 579 1404 q 606 1425 594 1422 q 628 1423 617 1428 q 649 1403 639 1418 l 749 1232 q 754 1208 757 1218 q 743 1193 751 1199 q 725 1189 735 1188 q 708 1199 715 1190 z "},"Ổ":{"ha":1054,"x_min":89,"x_max":965,"o":"m 526 -11 q 294 50 393 -11 q 142 224 196 111 q 89 490 89 336 q 119 699 89 607 q 206 856 149 792 q 344 956 263 921 q 526 990 425 990 q 761 930 663 990 q 913 758 860 869 q 965 492 965 646 q 935 282 965 375 q 847 124 904 189 q 709 24 790 58 q 526 -11 628 -11 m 526 67 q 715 117 638 67 q 834 261 793 167 q 875 490 875 356 q 784 802 875 692 q 526 913 693 913 q 339 863 417 913 q 220 718 261 813 q 179 490 179 624 q 271 178 179 290 q 526 67 363 67 m 397 1067 q 377 1053 388 1056 q 358 1057 367 1051 q 348 1073 350 1063 q 354 1096 346 1083 l 471 1267 q 497 1291 482 1285 q 526 1297 511 1297 q 547 1294 538 1297 q 566 1285 557 1292 q 582 1267 575 1279 l 699 1096 q 705 1073 707 1083 q 695 1057 703 1063 q 676 1053 688 1051 q 656 1067 665 1056 l 526 1225 l 397 1067 m 706 1201 q 677 1199 689 1194 q 664 1215 665 1203 q 678 1236 663 1226 q 731 1279 714 1258 q 749 1324 749 1300 q 733 1356 749 1346 q 682 1365 718 1365 q 655 1364 669 1365 q 624 1358 640 1363 q 599 1357 608 1354 q 585 1371 589 1360 q 587 1392 582 1383 q 607 1406 592 1400 q 649 1415 626 1413 q 696 1418 672 1418 q 785 1398 753 1418 q 817 1336 817 1378 q 801 1281 817 1307 q 759 1236 785 1256 q 706 1201 733 1217 z "},"Ỗ":{"ha":1054,"x_min":89,"x_max":965,"o":"m 526 -11 q 294 50 393 -11 q 142 224 196 111 q 89 490 89 336 q 119 699 89 607 q 206 856 149 792 q 344 956 263 921 q 526 990 425 990 q 761 930 663 990 q 913 758 860 869 q 965 492 965 646 q 935 282 965 375 q 847 124 904 189 q 709 24 790 58 q 526 -11 628 -11 m 526 67 q 715 117 638 67 q 834 261 793 167 q 875 490 875 356 q 784 802 875 692 q 526 913 693 913 q 339 863 417 913 q 220 718 261 813 q 179 490 179 624 q 271 178 179 290 q 526 67 363 67 m 394 1064 q 367 1054 381 1051 q 349 1068 353 1057 q 357 1093 346 1079 l 468 1226 q 497 1249 483 1243 q 526 1254 511 1254 q 547 1252 538 1254 q 566 1244 557 1250 q 585 1226 575 1238 l 696 1093 q 704 1073 706 1082 q 697 1058 703 1064 q 680 1053 690 1053 q 658 1064 669 1054 l 526 1189 l 394 1064 m 343 1278 q 325 1289 332 1279 q 322 1315 318 1299 q 364 1392 333 1367 q 438 1417 394 1417 q 505 1397 476 1417 q 559 1358 533 1378 q 614 1339 585 1339 q 655 1351 639 1339 q 678 1390 671 1363 q 690 1413 681 1406 q 711 1418 699 1419 q 729 1408 724 1417 q 732 1381 735 1399 q 690 1304 721 1329 q 617 1279 660 1279 q 549 1299 578 1279 q 494 1338 519 1318 q 439 1357 468 1357 q 399 1345 414 1357 q 376 1306 383 1333 q 365 1284 372 1292 q 343 1278 357 1276 z "},"Ȍ":{"ha":1054,"x_min":89,"x_max":965,"o":"m 526 -11 q 294 50 393 -11 q 142 224 196 111 q 89 490 89 336 q 119 699 89 607 q 206 856 149 792 q 344 956 263 921 q 526 990 425 990 q 761 930 663 990 q 913 758 860 869 q 965 492 965 646 q 935 282 965 375 q 847 124 904 189 q 709 24 790 58 q 526 -11 628 -11 m 526 67 q 715 117 638 67 q 834 261 793 167 q 875 490 875 356 q 784 802 875 692 q 526 913 693 913 q 339 863 417 913 q 220 718 261 813 q 179 490 179 624 q 271 178 179 290 q 526 67 363 67 m 579 1067 l 457 1251 q 449 1278 447 1265 q 458 1299 450 1290 q 478 1310 467 1307 q 502 1307 490 1313 q 522 1285 514 1301 l 622 1088 q 625 1067 628 1076 q 614 1055 622 1058 q 597 1053 606 1051 q 579 1067 588 1056 m 418 1065 l 293 1251 q 283 1278 282 1265 q 293 1299 285 1290 q 313 1310 301 1307 q 337 1307 325 1313 q 357 1285 349 1301 l 458 1088 q 462 1069 464 1078 q 451 1056 460 1060 q 434 1053 443 1051 q 418 1065 425 1056 z "},"Ö":{"ha":1054,"x_min":89,"x_max":965,"o":"m 526 -11 q 294 50 393 -11 q 142 224 196 111 q 89 490 89 336 q 119 699 89 607 q 206 856 149 792 q 344 956 263 921 q 526 990 425 990 q 761 930 663 990 q 913 758 860 869 q 965 492 965 646 q 935 282 965 375 q 847 124 904 189 q 709 24 790 58 q 526 -11 628 -11 m 526 67 q 715 117 638 67 q 834 261 793 167 q 875 490 875 356 q 784 802 875 692 q 526 913 693 913 q 339 863 417 913 q 220 718 261 813 q 179 490 179 624 q 271 178 179 290 q 526 67 363 67 m 643 1125 q 602 1139 617 1125 q 588 1181 588 1153 q 602 1221 588 1207 q 643 1235 617 1235 q 684 1221 669 1235 q 699 1181 699 1207 q 684 1139 699 1153 q 643 1125 669 1125 m 411 1125 q 369 1139 385 1125 q 354 1181 354 1153 q 369 1221 354 1207 q 411 1235 385 1235 q 451 1221 438 1235 q 465 1181 465 1207 q 451 1139 465 1153 q 411 1125 438 1125 z "},"Ȫ":{"ha":1054,"x_min":89,"x_max":965,"o":"m 526 -11 q 294 50 393 -11 q 142 224 196 111 q 89 490 89 336 q 119 699 89 607 q 206 856 149 792 q 344 956 263 921 q 526 990 425 990 q 761 930 663 990 q 913 758 860 869 q 965 492 965 646 q 935 282 965 375 q 847 124 904 189 q 709 24 790 58 q 526 -11 628 -11 m 526 67 q 715 117 638 67 q 834 261 793 167 q 875 490 875 356 q 784 802 875 692 q 526 913 693 913 q 339 863 417 913 q 220 718 261 813 q 179 490 179 624 q 271 178 179 290 q 526 67 363 67 m 358 1286 q 332 1295 342 1286 q 322 1318 322 1304 q 332 1342 322 1333 q 358 1351 342 1351 l 694 1351 q 722 1342 713 1351 q 731 1318 731 1333 q 722 1295 731 1304 q 694 1286 713 1286 l 358 1286 m 411 1108 q 369 1122 385 1108 q 354 1160 354 1135 q 369 1198 354 1185 q 411 1211 385 1211 q 451 1198 438 1211 q 465 1160 465 1185 q 451 1122 465 1135 q 411 1108 438 1108 m 643 1108 q 602 1122 617 1108 q 588 1160 588 1135 q 602 1198 588 1185 q 643 1211 617 1211 q 684 1198 669 1211 q 699 1160 699 1185 q 684 1122 699 1135 q 643 1108 669 1108 z "},"Ȱ":{"ha":1054,"x_min":89,"x_max":965,"o":"m 526 -11 q 294 50 393 -11 q 142 224 196 111 q 89 490 89 336 q 119 699 89 607 q 206 856 149 792 q 344 956 263 921 q 526 990 425 990 q 761 930 663 990 q 913 758 860 869 q 965 492 965 646 q 935 282 965 375 q 847 124 904 189 q 709 24 790 58 q 526 -11 628 -11 m 526 67 q 715 117 638 67 q 834 261 793 167 q 875 490 875 356 q 784 802 875 692 q 526 913 693 913 q 339 863 417 913 q 220 718 261 813 q 179 490 179 624 q 271 178 179 290 q 526 67 363 67 m 358 1286 q 332 1295 342 1286 q 322 1318 322 1304 q 332 1342 322 1333 q 358 1351 342 1351 l 694 1351 q 722 1342 713 1351 q 731 1318 731 1333 q 722 1295 731 1304 q 694 1286 713 1286 l 358 1286 m 528 1108 q 487 1122 501 1108 q 472 1160 472 1135 q 487 1198 472 1185 q 528 1211 501 1211 q 569 1198 554 1211 q 583 1160 583 1185 q 569 1122 583 1135 q 528 1108 554 1108 z "},"Ọ":{"ha":1054,"x_min":89,"x_max":965,"o":"m 526 -11 q 294 50 393 -11 q 142 224 196 111 q 89 490 89 336 q 119 699 89 607 q 206 856 149 792 q 344 956 263 921 q 526 990 425 990 q 761 930 663 990 q 913 758 860 869 q 965 492 965 646 q 935 282 965 375 q 847 124 904 189 q 709 24 790 58 q 526 -11 628 -11 m 526 67 q 715 117 638 67 q 834 261 793 167 q 875 490 875 356 q 784 802 875 692 q 526 913 693 913 q 339 863 417 913 q 220 718 261 813 q 179 490 179 624 q 271 178 179 290 q 526 67 363 67 m 526 -254 q 484 -239 500 -254 q 468 -196 468 -224 q 484 -154 468 -168 q 526 -140 500 -140 q 569 -154 554 -140 q 585 -196 585 -168 q 569 -239 585 -224 q 526 -254 554 -254 z "},"Ò":{"ha":1054,"x_min":89,"x_max":965,"o":"m 526 -11 q 294 50 393 -11 q 142 224 196 111 q 89 490 89 336 q 119 699 89 607 q 206 856 149 792 q 344 956 263 921 q 526 990 425 990 q 761 930 663 990 q 913 758 860 869 q 965 492 965 646 q 935 282 965 375 q 847 124 904 189 q 709 24 790 58 q 526 -11 628 -11 m 526 67 q 715 117 638 67 q 834 261 793 167 q 875 490 875 356 q 784 802 875 692 q 526 913 693 913 q 339 863 417 913 q 220 718 261 813 q 179 490 179 624 q 271 178 179 290 q 526 67 363 67 m 488 1068 l 339 1249 q 328 1274 328 1263 q 337 1295 329 1286 q 357 1308 344 1304 q 382 1308 369 1313 q 404 1289 394 1304 l 536 1100 q 542 1077 544 1088 q 530 1060 539 1067 q 509 1056 521 1054 q 488 1068 497 1057 z "},"Ỏ":{"ha":1054,"x_min":89,"x_max":965,"o":"m 526 -11 q 294 50 393 -11 q 142 224 196 111 q 89 490 89 336 q 119 699 89 607 q 206 856 149 792 q 344 956 263 921 q 526 990 425 990 q 761 930 663 990 q 913 758 860 869 q 965 492 965 646 q 935 282 965 375 q 847 124 904 189 q 709 24 790 58 q 526 -11 628 -11 m 526 67 q 715 117 638 67 q 834 261 793 167 q 875 490 875 356 q 784 802 875 692 q 526 913 693 913 q 339 863 417 913 q 220 718 261 813 q 179 490 179 624 q 271 178 179 290 q 526 67 363 67 m 526 1054 q 503 1061 511 1054 q 494 1083 494 1068 q 508 1131 494 1113 q 540 1161 522 1149 q 572 1186 558 1174 q 586 1215 586 1199 q 569 1241 586 1232 q 517 1250 553 1250 q 488 1248 504 1250 q 457 1240 472 1246 q 427 1237 438 1235 q 413 1251 417 1239 q 415 1274 410 1264 q 435 1290 419 1285 q 481 1303 456 1299 q 531 1307 507 1307 q 626 1284 592 1307 q 660 1224 660 1261 q 644 1176 660 1193 q 610 1147 629 1158 q 575 1119 590 1135 q 560 1076 560 1104 q 551 1060 560 1067 q 526 1054 542 1054 z "},"Ơ":{"ha":1054,"x_min":89,"x_max":965,"o":"m 526 -11 q 294 50 393 -11 q 142 224 196 111 q 89 490 89 336 q 119 699 89 607 q 206 856 149 792 q 344 956 263 921 q 526 990 425 990 q 761 930 663 990 q 913 758 860 869 q 965 492 965 646 q 935 282 965 375 q 847 124 904 189 q 709 24 790 58 q 526 -11 628 -11 m 526 67 q 715 117 638 67 q 834 261 793 167 q 875 490 875 356 q 784 802 875 692 q 526 913 693 913 q 339 863 417 913 q 220 718 261 813 q 179 490 179 624 q 271 178 179 290 q 526 67 363 67 m 675 918 l 603 985 q 669 981 640 982 q 726 979 697 979 q 824 997 790 979 q 872 1047 858 1014 q 886 1129 886 1081 q 896 1159 886 1149 q 925 1169 906 1169 q 953 1159 943 1169 q 963 1128 963 1149 q 939 1017 963 1064 q 871 944 915 969 q 764 918 826 918 l 675 918 z "},"Ớ":{"ha":1054,"x_min":89,"x_max":965,"o":"m 526 -11 q 294 50 393 -11 q 142 224 196 111 q 89 490 89 336 q 119 699 89 607 q 206 856 149 792 q 344 956 263 921 q 526 990 425 990 q 761 930 663 990 q 913 758 860 869 q 965 492 965 646 q 935 282 965 375 q 847 124 904 189 q 709 24 790 58 q 526 -11 628 -11 m 526 67 q 715 117 638 67 q 834 261 793 167 q 875 490 875 356 q 784 802 875 692 q 526 913 693 913 q 339 863 417 913 q 220 718 261 813 q 179 490 179 624 q 271 178 179 290 q 526 67 363 67 m 675 918 l 603 985 q 669 981 640 982 q 726 979 697 979 q 824 997 790 979 q 872 1047 858 1014 q 886 1129 886 1081 q 896 1159 886 1149 q 925 1169 906 1169 q 953 1159 943 1169 q 963 1128 963 1149 q 939 1017 963 1064 q 871 944 915 969 q 764 918 826 918 l 675 918 m 564 1068 q 543 1056 554 1057 q 523 1060 532 1054 q 511 1077 514 1067 q 517 1100 508 1088 l 647 1289 q 670 1308 657 1304 q 695 1308 683 1313 q 715 1295 707 1304 q 724 1274 724 1286 q 713 1249 724 1263 l 564 1068 z "},"Ợ":{"ha":1054,"x_min":89,"x_max":965,"o":"m 526 -11 q 294 50 393 -11 q 142 224 196 111 q 89 490 89 336 q 119 699 89 607 q 206 856 149 792 q 344 956 263 921 q 526 990 425 990 q 761 930 663 990 q 913 758 860 869 q 965 492 965 646 q 935 282 965 375 q 847 124 904 189 q 709 24 790 58 q 526 -11 628 -11 m 526 67 q 715 117 638 67 q 834 261 793 167 q 875 490 875 356 q 784 802 875 692 q 526 913 693 913 q 339 863 417 913 q 220 718 261 813 q 179 490 179 624 q 271 178 179 290 q 526 67 363 67 m 675 918 l 603 985 q 669 981 640 982 q 726 979 697 979 q 824 997 790 979 q 872 1047 858 1014 q 886 1129 886 1081 q 896 1159 886 1149 q 925 1169 906 1169 q 953 1159 943 1169 q 963 1128 963 1149 q 939 1017 963 1064 q 871 944 915 969 q 764 918 826 918 l 675 918 m 526 -254 q 484 -239 500 -254 q 468 -196 468 -224 q 484 -154 468 -168 q 526 -140 500 -140 q 569 -154 554 -140 q 585 -196 585 -168 q 569 -239 585 -224 q 526 -254 554 -254 z "},"Ờ":{"ha":1054,"x_min":89,"x_max":965,"o":"m 526 -11 q 294 50 393 -11 q 142 224 196 111 q 89 490 89 336 q 119 699 89 607 q 206 856 149 792 q 344 956 263 921 q 526 990 425 990 q 761 930 663 990 q 913 758 860 869 q 965 492 965 646 q 935 282 965 375 q 847 124 904 189 q 709 24 790 58 q 526 -11 628 -11 m 526 67 q 715 117 638 67 q 834 261 793 167 q 875 490 875 356 q 784 802 875 692 q 526 913 693 913 q 339 863 417 913 q 220 718 261 813 q 179 490 179 624 q 271 178 179 290 q 526 67 363 67 m 675 918 l 603 985 q 669 981 640 982 q 726 979 697 979 q 824 997 790 979 q 872 1047 858 1014 q 886 1129 886 1081 q 896 1159 886 1149 q 925 1169 906 1169 q 953 1159 943 1169 q 963 1128 963 1149 q 939 1017 963 1064 q 871 944 915 969 q 764 918 826 918 l 675 918 m 486 1068 l 338 1249 q 327 1274 326 1263 q 335 1295 328 1286 q 356 1308 343 1304 q 381 1308 368 1313 q 403 1289 393 1304 l 535 1100 q 540 1077 543 1088 q 528 1060 538 1067 q 508 1056 519 1054 q 486 1068 496 1057 z "},"Ở":{"ha":1054,"x_min":89,"x_max":965,"o":"m 526 -11 q 294 50 393 -11 q 142 224 196 111 q 89 490 89 336 q 119 699 89 607 q 206 856 149 792 q 344 956 263 921 q 526 990 425 990 q 761 930 663 990 q 913 758 860 869 q 965 492 965 646 q 935 282 965 375 q 847 124 904 189 q 709 24 790 58 q 526 -11 628 -11 m 526 67 q 715 117 638 67 q 834 261 793 167 q 875 490 875 356 q 784 802 875 692 q 526 913 693 913 q 339 863 417 913 q 220 718 261 813 q 179 490 179 624 q 271 178 179 290 q 526 67 363 67 m 675 918 l 603 985 q 669 981 640 982 q 726 979 697 979 q 824 997 790 979 q 872 1047 858 1014 q 886 1129 886 1081 q 896 1159 886 1149 q 925 1169 906 1169 q 953 1159 943 1169 q 963 1128 963 1149 q 939 1017 963 1064 q 871 944 915 969 q 764 918 826 918 l 675 918 m 525 1054 q 501 1061 510 1054 q 493 1083 493 1068 q 507 1131 493 1113 q 539 1161 521 1149 q 571 1186 557 1174 q 585 1215 585 1199 q 568 1241 585 1232 q 515 1250 551 1250 q 487 1248 503 1250 q 456 1240 471 1246 q 426 1237 436 1235 q 411 1251 415 1239 q 413 1274 408 1264 q 433 1290 418 1285 q 480 1303 454 1299 q 529 1307 506 1307 q 624 1284 590 1307 q 658 1224 658 1261 q 643 1176 658 1193 q 608 1147 628 1158 q 574 1119 589 1135 q 558 1076 558 1104 q 549 1060 558 1067 q 525 1054 540 1054 z "},"Ỡ":{"ha":1054,"x_min":89,"x_max":965,"o":"m 526 -11 q 294 50 393 -11 q 142 224 196 111 q 89 490 89 336 q 119 699 89 607 q 206 856 149 792 q 344 956 263 921 q 526 990 425 990 q 761 930 663 990 q 913 758 860 869 q 965 492 965 646 q 935 282 965 375 q 847 124 904 189 q 709 24 790 58 q 526 -11 628 -11 m 526 67 q 715 117 638 67 q 834 261 793 167 q 875 490 875 356 q 784 802 875 692 q 526 913 693 913 q 339 863 417 913 q 220 718 261 813 q 179 490 179 624 q 271 178 179 290 q 526 67 363 67 m 675 918 l 603 985 q 669 981 640 982 q 726 979 697 979 q 824 997 790 979 q 872 1047 858 1014 q 886 1129 886 1081 q 896 1159 886 1149 q 925 1169 906 1169 q 953 1159 943 1169 q 963 1128 963 1149 q 939 1017 963 1064 q 871 944 915 969 q 764 918 826 918 l 675 918 m 286 1089 q 267 1099 275 1090 q 261 1124 260 1107 q 315 1234 274 1194 q 413 1274 356 1274 q 477 1256 447 1274 q 532 1217 507 1239 q 583 1178 557 1196 q 635 1161 608 1161 q 695 1187 671 1161 q 728 1257 719 1213 q 740 1276 732 1269 q 757 1282 747 1282 q 778 1272 769 1281 q 782 1247 786 1264 q 731 1138 771 1178 q 632 1097 690 1097 q 568 1115 597 1097 q 513 1153 539 1132 q 461 1192 486 1175 q 410 1210 436 1210 q 349 1184 374 1210 q 317 1114 325 1158 q 306 1096 314 1103 q 286 1089 297 1089 z "},"Ő":{"ha":1054,"x_min":89,"x_max":965,"o":"m 526 -11 q 294 50 393 -11 q 142 224 196 111 q 89 490 89 336 q 119 699 89 607 q 206 856 149 792 q 344 956 263 921 q 526 990 425 990 q 761 930 663 990 q 913 758 860 869 q 965 492 965 646 q 935 282 965 375 q 847 124 904 189 q 709 24 790 58 q 526 -11 628 -11 m 526 67 q 715 117 638 67 q 834 261 793 167 q 875 490 875 356 q 784 802 875 692 q 526 913 693 913 q 339 863 417 913 q 220 718 261 813 q 179 490 179 624 q 271 178 179 290 q 526 67 363 67 m 474 1067 q 456 1053 465 1056 q 439 1055 447 1051 q 428 1067 431 1058 q 432 1088 426 1076 l 531 1285 q 551 1307 539 1301 q 574 1310 563 1313 q 594 1299 586 1307 q 604 1278 603 1290 q 596 1251 606 1265 l 474 1067 m 635 1065 q 619 1053 628 1056 q 601 1056 610 1051 q 591 1069 593 1060 q 594 1088 589 1078 l 696 1285 q 716 1307 704 1301 q 740 1310 728 1313 q 760 1299 751 1307 q 769 1278 768 1290 q 760 1251 771 1265 l 635 1065 z "},"Ȏ":{"ha":1054,"x_min":89,"x_max":965,"o":"m 526 -11 q 294 50 393 -11 q 142 224 196 111 q 89 490 89 336 q 119 699 89 607 q 206 856 149 792 q 344 956 263 921 q 526 990 425 990 q 761 930 663 990 q 913 758 860 869 q 965 492 965 646 q 935 282 965 375 q 847 124 904 189 q 709 24 790 58 q 526 -11 628 -11 m 526 67 q 715 117 638 67 q 834 261 793 167 q 875 490 875 356 q 784 802 875 692 q 526 913 693 913 q 339 863 417 913 q 220 718 261 813 q 179 490 179 624 q 271 178 179 290 q 526 67 363 67 m 329 1053 q 308 1064 317 1054 q 303 1090 300 1074 q 385 1247 324 1197 q 526 1296 447 1296 q 668 1247 606 1296 q 750 1090 731 1197 q 744 1064 753 1074 q 724 1053 736 1054 q 709 1056 717 1053 q 697 1067 701 1060 q 692 1081 693 1074 q 628 1199 675 1165 q 526 1233 582 1233 q 424 1199 471 1233 q 361 1081 378 1165 q 356 1067 360 1074 q 344 1056 351 1060 q 329 1053 338 1053 z "},"Ō":{"ha":1054,"x_min":89,"x_max":965,"o":"m 526 -11 q 294 50 393 -11 q 142 224 196 111 q 89 490 89 336 q 119 699 89 607 q 206 856 149 792 q 344 956 263 921 q 526 990 425 990 q 761 930 663 990 q 913 758 860 869 q 965 492 965 646 q 935 282 965 375 q 847 124 904 189 q 709 24 790 58 q 526 -11 628 -11 m 526 67 q 715 117 638 67 q 834 261 793 167 q 875 490 875 356 q 784 802 875 692 q 526 913 693 913 q 339 863 417 913 q 220 718 261 813 q 179 490 179 624 q 271 178 179 290 q 526 67 363 67 m 339 1136 q 304 1168 304 1136 q 313 1193 304 1185 q 339 1201 322 1201 l 714 1201 q 749 1168 749 1201 q 740 1145 749 1154 q 714 1136 731 1136 l 339 1136 z "},"Ṓ":{"ha":1054,"x_min":89,"x_max":965,"o":"m 526 -11 q 294 50 393 -11 q 142 224 196 111 q 89 490 89 336 q 119 699 89 607 q 206 856 149 792 q 344 956 263 921 q 526 990 425 990 q 761 930 663 990 q 913 758 860 869 q 965 492 965 646 q 935 282 965 375 q 847 124 904 189 q 709 24 790 58 q 526 -11 628 -11 m 526 67 q 715 117 638 67 q 834 261 793 167 q 875 490 875 356 q 784 802 875 692 q 526 913 693 913 q 339 863 417 913 q 220 718 261 813 q 179 490 179 624 q 271 178 179 290 q 526 67 363 67 m 358 1101 q 332 1110 342 1101 q 322 1133 322 1118 q 332 1157 322 1149 q 358 1165 342 1165 l 694 1165 q 722 1157 713 1165 q 731 1133 731 1149 q 722 1110 731 1118 q 694 1101 713 1101 l 358 1101 m 556 1214 q 538 1203 549 1204 q 518 1208 526 1203 q 508 1223 510 1213 q 513 1247 506 1233 l 617 1411 q 640 1433 626 1428 q 665 1435 653 1438 q 684 1422 676 1432 q 692 1401 692 1413 q 683 1375 693 1389 l 556 1214 z "},"Ṑ":{"ha":1054,"x_min":89,"x_max":965,"o":"m 526 -11 q 294 50 393 -11 q 142 224 196 111 q 89 490 89 336 q 119 699 89 607 q 206 856 149 792 q 344 956 263 921 q 526 990 425 990 q 761 930 663 990 q 913 758 860 869 q 965 492 965 646 q 935 282 965 375 q 847 124 904 189 q 709 24 790 58 q 526 -11 628 -11 m 526 67 q 715 117 638 67 q 834 261 793 167 q 875 490 875 356 q 784 802 875 692 q 526 913 693 913 q 339 863 417 913 q 220 718 261 813 q 179 490 179 624 q 271 178 179 290 q 526 67 363 67 m 497 1214 l 369 1375 q 360 1401 360 1389 q 369 1422 361 1413 q 388 1435 376 1432 q 413 1433 400 1438 q 436 1411 426 1428 l 540 1247 q 545 1223 547 1233 q 535 1208 543 1213 q 515 1203 526 1203 q 497 1214 504 1204 m 358 1101 q 332 1110 342 1101 q 322 1133 322 1118 q 332 1157 322 1149 q 358 1165 342 1165 l 694 1165 q 722 1157 713 1165 q 731 1133 731 1149 q 722 1110 731 1118 q 694 1101 713 1101 l 358 1101 z "},"Ǫ":{"ha":1054,"x_min":89,"x_max":965,"o":"m 526 -11 q 294 50 393 -11 q 142 224 196 111 q 89 490 89 336 q 119 699 89 607 q 206 856 149 792 q 344 956 263 921 q 526 990 425 990 q 761 930 663 990 q 913 758 860 869 q 965 492 965 646 q 935 282 965 375 q 847 124 904 189 q 709 24 790 58 q 526 -11 628 -11 m 526 67 q 715 117 638 67 q 834 261 793 167 q 875 490 875 356 q 784 802 875 692 q 526 913 693 913 q 339 863 417 913 q 220 718 261 813 q 179 490 179 624 q 271 178 179 290 q 526 67 363 67 m 579 -265 q 480 -230 518 -265 q 442 -133 442 -194 q 476 -31 442 -79 q 569 47 510 17 l 604 0 q 561 -26 583 -8 q 524 -69 539 -44 q 508 -125 508 -94 q 532 -186 508 -167 q 590 -206 556 -206 q 617 -203 604 -206 q 642 -197 629 -201 q 667 -198 658 -192 q 678 -215 676 -204 q 676 -237 681 -226 q 658 -253 671 -247 q 618 -262 638 -260 q 579 -265 599 -265 z "},"Ø":{"ha":1054,"x_min":89,"x_max":965,"o":"m 526 -11 q 294 50 393 -11 q 142 224 196 111 q 89 490 89 336 q 119 699 89 607 q 206 856 149 792 q 344 956 263 921 q 526 990 425 990 q 761 930 663 990 q 913 758 860 869 q 965 492 965 646 q 935 282 965 375 q 847 124 904 189 q 709 24 790 58 q 526 -11 628 -11 m 526 67 q 715 117 638 67 q 834 261 793 167 q 875 490 875 356 q 784 802 875 692 q 526 913 693 913 q 339 863 417 913 q 220 718 261 813 q 179 490 179 624 q 271 178 179 290 q 526 67 363 67 m 263 -33 q 245 -51 256 -47 q 224 -51 235 -54 q 205 -41 213 -49 q 196 -22 197 -33 q 203 4 194 -10 l 257 97 l 283 140 l 714 879 l 736 918 l 792 1013 q 809 1030 799 1026 q 831 1031 819 1033 q 849 1020 842 1028 q 858 1001 857 1013 q 853 975 860 989 l 797 882 l 772 839 l 342 100 l 319 61 l 263 -33 z "},"Ǿ":{"ha":1054,"x_min":89,"x_max":965,"o":"m 526 -11 q 294 50 393 -11 q 142 224 196 111 q 89 490 89 336 q 119 699 89 607 q 206 856 149 792 q 344 956 263 921 q 526 990 425 990 q 761 930 663 990 q 913 758 860 869 q 965 492 965 646 q 935 282 965 375 q 847 124 904 189 q 709 24 790 58 q 526 -11 628 -11 m 526 67 q 715 117 638 67 q 834 261 793 167 q 875 490 875 356 q 784 802 875 692 q 526 913 693 913 q 339 863 417 913 q 220 718 261 813 q 179 490 179 624 q 271 178 179 290 q 526 67 363 67 m 263 -33 q 245 -51 256 -47 q 224 -51 235 -54 q 205 -41 213 -49 q 196 -22 197 -33 q 203 4 194 -10 l 257 97 l 283 140 l 714 879 l 736 918 l 792 1013 q 809 1030 799 1026 q 831 1031 819 1033 q 849 1020 842 1028 q 858 1001 857 1013 q 853 975 860 989 l 797 882 l 772 839 l 342 100 l 319 61 l 263 -33 m 565 1068 q 544 1056 556 1057 q 524 1060 533 1054 q 513 1077 515 1067 q 518 1100 510 1088 l 649 1289 q 672 1308 658 1304 q 697 1308 685 1313 q 717 1295 708 1304 q 725 1274 725 1286 q 714 1249 725 1263 l 565 1068 z "},"Õ":{"ha":1054,"x_min":89,"x_max":965,"o":"m 526 -11 q 294 50 393 -11 q 142 224 196 111 q 89 490 89 336 q 119 699 89 607 q 206 856 149 792 q 344 956 263 921 q 526 990 425 990 q 761 930 663 990 q 913 758 860 869 q 965 492 965 646 q 935 282 965 375 q 847 124 904 189 q 709 24 790 58 q 526 -11 628 -11 m 526 67 q 715 117 638 67 q 834 261 793 167 q 875 490 875 356 q 784 802 875 692 q 526 913 693 913 q 339 863 417 913 q 220 718 261 813 q 179 490 179 624 q 271 178 179 290 q 526 67 363 67 m 275 1089 q 255 1099 263 1090 q 249 1124 247 1107 q 303 1234 261 1194 q 403 1274 344 1274 q 474 1256 440 1274 q 538 1217 507 1239 q 598 1178 569 1196 q 654 1161 626 1161 q 716 1187 692 1161 q 749 1257 740 1213 q 760 1276 753 1269 q 778 1282 768 1282 q 799 1272 790 1281 q 804 1247 807 1264 q 751 1138 792 1178 q 651 1097 710 1097 q 580 1115 614 1097 q 515 1153 546 1132 q 456 1192 485 1175 q 399 1210 426 1210 q 337 1184 361 1210 q 304 1114 313 1158 q 294 1096 301 1103 q 275 1089 286 1089 z "},"Ṍ":{"ha":1054,"x_min":89,"x_max":965,"o":"m 526 -11 q 294 50 393 -11 q 142 224 196 111 q 89 490 89 336 q 119 699 89 607 q 206 856 149 792 q 344 956 263 921 q 526 990 425 990 q 761 930 663 990 q 913 758 860 869 q 965 492 965 646 q 935 282 965 375 q 847 124 904 189 q 709 24 790 58 q 526 -11 628 -11 m 526 67 q 715 117 638 67 q 834 261 793 167 q 875 490 875 356 q 784 802 875 692 q 526 913 693 913 q 339 863 417 913 q 220 718 261 813 q 179 490 179 624 q 271 178 179 290 q 526 67 363 67 m 556 1214 q 538 1203 549 1204 q 518 1208 526 1203 q 508 1223 510 1213 q 513 1247 506 1233 l 617 1411 q 640 1432 626 1428 q 665 1433 653 1436 q 684 1422 676 1431 q 692 1400 692 1413 q 682 1375 693 1388 l 556 1214 m 343 1065 q 325 1076 332 1067 q 322 1103 318 1085 q 364 1179 333 1154 q 438 1204 394 1204 q 505 1185 476 1204 q 559 1146 533 1165 q 614 1126 585 1126 q 655 1138 639 1126 q 678 1178 671 1150 q 690 1200 681 1193 q 711 1206 699 1207 q 729 1195 724 1204 q 732 1168 735 1186 q 690 1092 721 1117 q 617 1067 660 1067 q 549 1086 578 1067 q 494 1125 519 1106 q 439 1144 468 1144 q 399 1133 414 1144 q 376 1093 383 1121 q 365 1072 372 1079 q 343 1065 357 1064 z "},"Ṏ":{"ha":1054,"x_min":89,"x_max":965,"o":"m 526 -11 q 294 50 393 -11 q 142 224 196 111 q 89 490 89 336 q 119 699 89 607 q 206 856 149 792 q 344 956 263 921 q 526 990 425 990 q 761 930 663 990 q 913 758 860 869 q 965 492 965 646 q 935 282 965 375 q 847 124 904 189 q 709 24 790 58 q 526 -11 628 -11 m 526 67 q 715 117 638 67 q 834 261 793 167 q 875 490 875 356 q 784 802 875 692 q 526 913 693 913 q 339 863 417 913 q 220 718 261 813 q 179 490 179 624 q 271 178 179 290 q 526 67 363 67 m 343 1065 q 325 1076 332 1067 q 322 1103 318 1085 q 364 1179 333 1154 q 438 1204 394 1204 q 505 1185 476 1204 q 559 1146 533 1165 q 614 1126 585 1126 q 655 1138 639 1126 q 678 1178 671 1150 q 690 1200 681 1193 q 711 1206 699 1207 q 729 1195 724 1204 q 732 1168 735 1186 q 690 1092 721 1117 q 617 1067 660 1067 q 549 1086 578 1067 q 494 1125 519 1106 q 439 1144 468 1144 q 399 1133 414 1144 q 376 1093 383 1121 q 365 1072 372 1079 q 343 1065 357 1064 m 411 1260 q 369 1273 385 1260 q 354 1311 354 1286 q 369 1348 354 1335 q 411 1361 385 1361 q 451 1348 438 1361 q 465 1311 465 1335 q 451 1273 465 1286 q 411 1260 438 1260 m 643 1260 q 602 1273 617 1260 q 588 1311 588 1286 q 602 1348 588 1335 q 643 1361 617 1361 q 684 1348 669 1361 q 699 1311 699 1335 q 684 1273 699 1286 q 643 1260 669 1260 z "},"Ȭ":{"ha":1054,"x_min":89,"x_max":965,"o":"m 526 -11 q 294 50 393 -11 q 142 224 196 111 q 89 490 89 336 q 119 699 89 607 q 206 856 149 792 q 344 956 263 921 q 526 990 425 990 q 761 930 663 990 q 913 758 860 869 q 965 492 965 646 q 935 282 965 375 q 847 124 904 189 q 709 24 790 58 q 526 -11 628 -11 m 526 67 q 715 117 638 67 q 834 261 793 167 q 875 490 875 356 q 784 802 875 692 q 526 913 693 913 q 339 863 417 913 q 220 718 261 813 q 179 490 179 624 q 271 178 179 290 q 526 67 363 67 m 358 1286 q 332 1295 342 1286 q 322 1318 322 1304 q 332 1342 322 1333 q 358 1351 342 1351 l 694 1351 q 722 1342 713 1351 q 731 1318 731 1333 q 722 1295 731 1304 q 694 1286 713 1286 l 358 1286 m 343 1065 q 325 1076 332 1067 q 322 1103 318 1085 q 364 1179 333 1154 q 438 1204 394 1204 q 505 1185 476 1204 q 559 1146 533 1165 q 614 1126 585 1126 q 655 1138 639 1126 q 678 1178 671 1150 q 690 1200 681 1193 q 711 1206 699 1207 q 729 1195 724 1204 q 732 1168 735 1186 q 690 1092 721 1117 q 617 1067 660 1067 q 549 1086 578 1067 q 494 1125 519 1106 q 439 1144 468 1144 q 399 1133 414 1144 q 376 1093 383 1121 q 365 1072 372 1079 q 343 1065 357 1064 z "},"Œ":{"ha":1447,"x_min":89,"x_max":1386,"o":"m 576 0 q 215 126 342 0 q 89 490 89 253 q 122 701 89 610 q 216 855 154 793 q 369 948 278 917 q 576 979 460 979 l 1347 979 q 1376 969 1367 979 q 1386 943 1386 960 q 1376 915 1386 924 q 1347 906 1367 906 l 858 906 l 858 533 l 1319 533 q 1348 524 1338 533 q 1358 497 1358 515 q 1348 469 1358 479 q 1319 460 1338 460 l 858 460 l 858 74 l 1347 74 q 1376 65 1367 74 q 1386 38 1386 56 q 1376 10 1386 19 q 1347 0 1367 0 l 576 0 m 583 75 l 775 75 l 775 904 l 583 904 q 406 878 482 904 q 281 801 331 853 q 205 671 231 749 q 179 490 179 593 q 280 179 179 283 q 583 75 381 75 z "},"P":{"ha":867,"x_min":128,"x_max":819,"o":"m 169 -8 q 139 3 150 -8 q 128 36 128 15 l 128 935 q 140 968 128 957 q 171 979 151 979 l 497 979 q 736 904 653 979 q 819 690 819 829 q 736 477 819 553 q 497 401 653 401 l 213 401 l 213 36 q 202 3 213 15 q 169 -8 192 -8 m 213 476 l 490 476 q 672 531 611 476 q 733 690 733 585 q 672 851 733 796 q 490 906 611 906 l 213 906 l 213 476 z "},"Þ":{"ha":868,"x_min":128,"x_max":821,"o":"m 169 -7 q 139 5 150 -7 q 128 38 128 17 l 128 942 q 139 975 128 964 q 171 986 150 986 q 202 976 192 986 q 213 944 213 965 l 213 796 l 499 796 q 738 721 654 796 q 821 507 821 646 q 738 294 821 369 q 499 219 654 219 l 213 219 l 213 38 q 202 5 213 17 q 169 -7 192 -7 m 213 293 l 490 293 q 673 347 613 293 q 733 507 733 401 q 673 667 733 613 q 490 722 613 722 l 213 722 l 213 293 z "},"Q":{"ha":1054,"x_min":89,"x_max":965,"o":"m 849 -197 q 858 -227 858 -214 q 849 -250 857 -240 q 827 -262 840 -260 q 801 -259 814 -265 q 778 -236 788 -253 l 692 -97 q 625 -33 667 -56 q 526 -11 583 -11 l 600 22 q 704 -1 667 22 q 779 -87 742 -24 l 849 -197 m 526 -11 q 294 50 393 -11 q 142 224 196 111 q 89 490 89 336 q 119 699 89 607 q 206 856 149 792 q 344 956 263 921 q 526 990 425 990 q 761 930 663 990 q 913 758 860 869 q 965 492 965 646 q 935 282 965 375 q 847 124 904 189 q 709 24 790 58 q 526 -11 628 -11 m 526 67 q 715 117 638 67 q 834 261 793 167 q 875 490 875 356 q 784 802 875 692 q 526 913 693 913 q 339 863 417 913 q 220 718 261 813 q 179 490 179 624 q 271 178 179 290 q 526 67 363 67 z "},"R":{"ha":918,"x_min":128,"x_max":853,"o":"m 169 -8 q 139 3 150 -8 q 128 36 128 15 l 128 935 q 140 968 128 957 q 171 979 151 979 l 497 979 q 736 907 653 979 q 819 701 819 835 q 782 553 819 615 q 672 460 744 492 q 497 428 599 428 l 513 446 l 532 446 q 624 418 585 446 q 696 328 664 390 l 843 54 q 852 24 853 39 q 842 1 851 10 q 817 -8 832 -8 q 787 0 799 -8 q 767 24 775 8 l 611 314 q 531 402 575 381 q 411 424 486 424 l 213 424 l 213 36 q 202 3 213 15 q 169 -8 192 -8 m 213 496 l 486 496 q 672 548 610 496 q 733 701 733 600 q 672 853 733 801 q 486 906 610 906 l 213 906 l 213 496 z "},"Ŕ":{"ha":918,"x_min":128,"x_max":853,"o":"m 169 -8 q 139 3 150 -8 q 128 36 128 15 l 128 935 q 140 968 128 957 q 171 979 151 979 l 497 979 q 736 907 653 979 q 819 701 819 835 q 782 553 819 615 q 672 460 744 492 q 497 428 599 428 l 513 446 l 532 446 q 624 418 585 446 q 696 328 664 390 l 843 54 q 852 24 853 39 q 842 1 851 10 q 817 -8 832 -8 q 787 0 799 -8 q 767 24 775 8 l 611 314 q 531 402 575 381 q 411 424 486 424 l 213 424 l 213 36 q 202 3 213 15 q 169 -8 192 -8 m 213 496 l 486 496 q 672 548 610 496 q 733 701 733 600 q 672 853 733 801 q 486 906 610 906 l 213 906 l 213 496 m 507 1068 q 486 1056 497 1057 q 466 1060 475 1054 q 454 1077 457 1067 q 460 1100 451 1088 l 590 1289 q 613 1308 600 1304 q 638 1308 626 1313 q 658 1295 650 1304 q 667 1274 667 1286 q 656 1249 667 1263 l 507 1068 z "},"Ř":{"ha":918,"x_min":128,"x_max":853,"o":"m 169 -8 q 139 3 150 -8 q 128 36 128 15 l 128 935 q 140 968 128 957 q 171 979 151 979 l 497 979 q 736 907 653 979 q 819 701 819 835 q 782 553 819 615 q 672 460 744 492 q 497 428 599 428 l 513 446 l 532 446 q 624 418 585 446 q 696 328 664 390 l 843 54 q 852 24 853 39 q 842 1 851 10 q 817 -8 832 -8 q 787 0 799 -8 q 767 24 775 8 l 611 314 q 531 402 575 381 q 411 424 486 424 l 213 424 l 213 36 q 202 3 213 15 q 169 -8 192 -8 m 213 496 l 486 496 q 672 548 610 496 q 733 701 733 600 q 672 853 733 801 q 486 906 610 906 l 213 906 l 213 496 m 468 1051 q 437 1058 451 1051 q 411 1082 422 1065 l 279 1267 q 273 1290 271 1279 q 284 1306 275 1300 q 305 1310 293 1311 q 326 1296 317 1308 l 468 1125 l 610 1296 q 631 1310 619 1308 q 652 1306 643 1311 q 663 1290 661 1300 q 657 1267 665 1279 l 526 1082 q 499 1058 514 1065 q 468 1051 485 1051 z "},"Ŗ":{"ha":918,"x_min":128,"x_max":853,"o":"m 169 -8 q 139 3 150 -8 q 128 36 128 15 l 128 935 q 140 968 128 957 q 171 979 151 979 l 497 979 q 736 907 653 979 q 819 701 819 835 q 782 553 819 615 q 672 460 744 492 q 497 428 599 428 l 513 446 l 532 446 q 624 418 585 446 q 696 328 664 390 l 843 54 q 852 24 853 39 q 842 1 851 10 q 817 -8 832 -8 q 787 0 799 -8 q 767 24 775 8 l 611 314 q 531 402 575 381 q 411 424 486 424 l 213 424 l 213 36 q 202 3 213 15 q 169 -8 192 -8 m 213 496 l 486 496 q 672 548 610 496 q 733 701 733 600 q 672 853 733 801 q 486 906 610 906 l 213 906 l 213 496 m 479 -340 q 457 -356 469 -354 q 436 -352 444 -358 q 427 -334 428 -346 q 436 -307 426 -322 q 460 -259 453 -285 q 468 -212 468 -233 l 472 -229 q 424 -212 442 -229 q 407 -169 407 -196 q 423 -126 407 -142 q 467 -110 439 -110 q 513 -128 496 -110 q 529 -183 529 -147 q 524 -237 529 -208 q 508 -292 518 -265 q 479 -340 497 -319 z "},"Ȑ":{"ha":918,"x_min":128,"x_max":853,"o":"m 169 -8 q 139 3 150 -8 q 128 36 128 15 l 128 935 q 140 968 128 957 q 171 979 151 979 l 497 979 q 736 907 653 979 q 819 701 819 835 q 782 553 819 615 q 672 460 744 492 q 497 428 599 428 l 513 446 l 532 446 q 624 418 585 446 q 696 328 664 390 l 843 54 q 852 24 853 39 q 842 1 851 10 q 817 -8 832 -8 q 787 0 799 -8 q 767 24 775 8 l 611 314 q 531 402 575 381 q 411 424 486 424 l 213 424 l 213 36 q 202 3 213 15 q 169 -8 192 -8 m 213 496 l 486 496 q 672 548 610 496 q 733 701 733 600 q 672 853 733 801 q 486 906 610 906 l 213 906 l 213 496 m 521 1067 l 399 1251 q 390 1278 389 1265 q 400 1299 392 1290 q 420 1310 408 1307 q 444 1307 432 1313 q 464 1285 456 1301 l 564 1088 q 567 1067 569 1076 q 556 1055 564 1058 q 538 1053 547 1051 q 521 1067 529 1056 m 360 1065 l 235 1251 q 225 1278 224 1265 q 235 1299 226 1290 q 255 1310 243 1307 q 278 1307 267 1313 q 299 1285 290 1301 l 400 1088 q 403 1069 406 1078 q 393 1056 401 1060 q 376 1053 385 1051 q 360 1065 367 1056 z "},"Ṛ":{"ha":918,"x_min":128,"x_max":853,"o":"m 169 -8 q 139 3 150 -8 q 128 36 128 15 l 128 935 q 140 968 128 957 q 171 979 151 979 l 497 979 q 736 907 653 979 q 819 701 819 835 q 782 553 819 615 q 672 460 744 492 q 497 428 599 428 l 513 446 l 532 446 q 624 418 585 446 q 696 328 664 390 l 843 54 q 852 24 853 39 q 842 1 851 10 q 817 -8 832 -8 q 787 0 799 -8 q 767 24 775 8 l 611 314 q 531 402 575 381 q 411 424 486 424 l 213 424 l 213 36 q 202 3 213 15 q 169 -8 192 -8 m 213 496 l 486 496 q 672 548 610 496 q 733 701 733 600 q 672 853 733 801 q 486 906 610 906 l 213 906 l 213 496 m 468 -254 q 426 -239 442 -254 q 410 -196 410 -224 q 426 -154 410 -168 q 468 -140 442 -140 q 511 -154 496 -140 q 526 -196 526 -168 q 511 -239 526 -224 q 468 -254 496 -254 z "},"Ȓ":{"ha":918,"x_min":128,"x_max":853,"o":"m 169 -8 q 139 3 150 -8 q 128 36 128 15 l 128 935 q 140 968 128 957 q 171 979 151 979 l 497 979 q 736 907 653 979 q 819 701 819 835 q 782 553 819 615 q 672 460 744 492 q 497 428 599 428 l 513 446 l 532 446 q 624 418 585 446 q 696 328 664 390 l 843 54 q 852 24 853 39 q 842 1 851 10 q 817 -8 832 -8 q 787 0 799 -8 q 767 24 775 8 l 611 314 q 531 402 575 381 q 411 424 486 424 l 213 424 l 213 36 q 202 3 213 15 q 169 -8 192 -8 m 213 496 l 486 496 q 672 548 610 496 q 733 701 733 600 q 672 853 733 801 q 486 906 610 906 l 213 906 l 213 496 m 271 1053 q 250 1064 258 1054 q 244 1090 242 1074 q 327 1247 265 1197 q 468 1296 389 1296 q 610 1247 547 1296 q 692 1090 672 1197 q 686 1064 694 1074 q 665 1053 678 1054 q 651 1056 658 1053 q 639 1067 643 1060 q 633 1081 635 1074 q 570 1199 617 1165 q 468 1233 524 1233 q 366 1199 413 1233 q 303 1081 319 1165 q 297 1067 301 1074 q 286 1056 293 1060 q 271 1053 279 1053 z "},"Ṟ":{"ha":918,"x_min":128,"x_max":853,"o":"m 169 -8 q 139 3 150 -8 q 128 36 128 15 l 128 935 q 140 968 128 957 q 171 979 151 979 l 497 979 q 736 907 653 979 q 819 701 819 835 q 782 553 819 615 q 672 460 744 492 q 497 428 599 428 l 513 446 l 532 446 q 624 418 585 446 q 696 328 664 390 l 843 54 q 852 24 853 39 q 842 1 851 10 q 817 -8 832 -8 q 787 0 799 -8 q 767 24 775 8 l 611 314 q 531 402 575 381 q 411 424 486 424 l 213 424 l 213 36 q 202 3 213 15 q 169 -8 192 -8 m 213 496 l 486 496 q 672 548 610 496 q 733 701 733 600 q 672 853 733 801 q 486 906 610 906 l 213 906 l 213 496 m 301 -211 q 267 -179 267 -211 q 276 -156 267 -164 q 301 -147 285 -147 l 635 -147 q 669 -179 669 -147 q 660 -203 669 -194 q 635 -211 651 -211 l 301 -211 z "},"S":{"ha":843,"x_min":68,"x_max":785,"o":"m 433 -11 q 304 0 367 -11 q 188 34 242 11 q 92 90 135 57 q 73 113 78 100 q 72 138 68 126 q 84 158 75 150 q 106 167 93 167 q 132 158 118 168 q 267 89 196 111 q 433 67 339 67 q 631 118 565 67 q 697 253 697 169 q 649 361 697 322 q 492 422 601 400 l 351 451 q 156 540 219 478 q 92 707 92 603 q 117 823 92 771 q 188 913 142 875 q 297 970 233 950 q 436 990 360 990 q 602 965 526 990 q 740 886 678 940 q 757 863 753 876 q 757 838 761 850 q 744 819 753 826 q 724 812 736 813 q 697 822 711 811 q 576 891 639 869 q 436 913 513 913 q 301 888 358 913 q 211 817 243 863 q 179 708 179 771 q 224 593 179 636 q 367 531 268 550 l 508 501 q 717 415 649 472 q 785 257 785 357 q 760 148 785 197 q 690 63 736 99 q 580 8 644 26 q 433 -11 515 -11 z "},"Ś":{"ha":843,"x_min":68,"x_max":785,"o":"m 433 -11 q 304 0 367 -11 q 188 34 242 11 q 92 90 135 57 q 73 113 78 100 q 72 138 68 126 q 84 158 75 150 q 106 167 93 167 q 132 158 118 168 q 267 89 196 111 q 433 67 339 67 q 631 118 565 67 q 697 253 697 169 q 649 361 697 322 q 492 422 601 400 l 351 451 q 156 540 219 478 q 92 707 92 603 q 117 823 92 771 q 188 913 142 875 q 297 970 233 950 q 436 990 360 990 q 602 965 526 990 q 740 886 678 940 q 757 863 753 876 q 757 838 761 850 q 744 819 753 826 q 724 812 736 813 q 697 822 711 811 q 576 891 639 869 q 436 913 513 913 q 301 888 358 913 q 211 817 243 863 q 179 708 179 771 q 224 593 179 636 q 367 531 268 550 l 508 501 q 717 415 649 472 q 785 257 785 357 q 760 148 785 197 q 690 63 736 99 q 580 8 644 26 q 433 -11 515 -11 m 468 1068 q 447 1056 458 1057 q 427 1060 436 1054 q 415 1077 418 1067 q 421 1100 413 1088 l 551 1289 q 574 1308 561 1304 q 599 1308 588 1313 q 619 1295 611 1304 q 628 1274 628 1286 q 617 1249 628 1263 l 468 1068 z "},"Ṥ":{"ha":843,"x_min":68,"x_max":785,"o":"m 433 -11 q 304 0 367 -11 q 188 34 242 11 q 92 90 135 57 q 73 113 78 100 q 72 138 68 126 q 84 158 75 150 q 106 167 93 167 q 132 158 118 168 q 267 89 196 111 q 433 67 339 67 q 631 118 565 67 q 697 253 697 169 q 649 361 697 322 q 492 422 601 400 l 351 451 q 156 540 219 478 q 92 707 92 603 q 117 823 92 771 q 188 913 142 875 q 297 970 233 950 q 436 990 360 990 q 602 965 526 990 q 740 886 678 940 q 757 863 753 876 q 757 838 761 850 q 744 819 753 826 q 724 812 736 813 q 697 822 711 811 q 576 891 639 869 q 436 913 513 913 q 301 888 358 913 q 211 817 243 863 q 179 708 179 771 q 224 593 179 636 q 367 531 268 550 l 508 501 q 717 415 649 472 q 785 257 785 357 q 760 148 785 197 q 690 63 736 99 q 580 8 644 26 q 433 -11 515 -11 m 379 1306 q 338 1319 353 1306 q 322 1356 322 1332 q 338 1394 322 1381 q 379 1407 353 1407 q 419 1394 406 1407 q 433 1356 433 1381 q 419 1319 433 1332 q 379 1306 406 1306 m 465 1064 q 445 1052 457 1053 q 424 1058 433 1051 q 413 1074 415 1064 q 419 1099 410 1085 l 551 1290 q 576 1311 563 1307 q 602 1313 590 1315 q 622 1300 614 1310 q 628 1276 629 1290 q 617 1249 628 1263 l 465 1064 z "},"Š":{"ha":843,"x_min":68,"x_max":785,"o":"m 433 -11 q 304 0 367 -11 q 188 34 242 11 q 92 90 135 57 q 73 113 78 100 q 72 138 68 126 q 84 158 75 150 q 106 167 93 167 q 132 158 118 168 q 267 89 196 111 q 433 67 339 67 q 631 118 565 67 q 697 253 697 169 q 649 361 697 322 q 492 422 601 400 l 351 451 q 156 540 219 478 q 92 707 92 603 q 117 823 92 771 q 188 913 142 875 q 297 970 233 950 q 436 990 360 990 q 602 965 526 990 q 740 886 678 940 q 757 863 753 876 q 757 838 761 850 q 744 819 753 826 q 724 812 736 813 q 697 822 711 811 q 576 891 639 869 q 436 913 513 913 q 301 888 358 913 q 211 817 243 863 q 179 708 179 771 q 224 593 179 636 q 367 531 268 550 l 508 501 q 717 415 649 472 q 785 257 785 357 q 760 148 785 197 q 690 63 736 99 q 580 8 644 26 q 433 -11 515 -11 m 429 1051 q 398 1058 413 1051 q 372 1082 383 1065 l 240 1267 q 234 1290 232 1279 q 245 1306 236 1300 q 266 1310 254 1311 q 288 1296 278 1308 l 429 1125 l 571 1296 q 592 1310 581 1308 q 613 1306 604 1311 q 624 1290 622 1300 q 618 1267 626 1279 l 488 1082 q 460 1058 475 1065 q 429 1051 446 1051 z "},"Ṧ":{"ha":843,"x_min":68,"x_max":785,"o":"m 433 -11 q 304 0 367 -11 q 188 34 242 11 q 92 90 135 57 q 73 113 78 100 q 72 138 68 126 q 84 158 75 150 q 106 167 93 167 q 132 158 118 168 q 267 89 196 111 q 433 67 339 67 q 631 118 565 67 q 697 253 697 169 q 649 361 697 322 q 492 422 601 400 l 351 451 q 156 540 219 478 q 92 707 92 603 q 117 823 92 771 q 188 913 142 875 q 297 970 233 950 q 436 990 360 990 q 602 965 526 990 q 740 886 678 940 q 757 863 753 876 q 757 838 761 850 q 744 819 753 826 q 724 812 736 813 q 697 822 711 811 q 576 891 639 869 q 436 913 513 913 q 301 888 358 913 q 211 817 243 863 q 179 708 179 771 q 224 593 179 636 q 367 531 268 550 l 508 501 q 717 415 649 472 q 785 257 785 357 q 760 148 785 197 q 690 63 736 99 q 580 8 644 26 q 433 -11 515 -11 m 429 1054 q 398 1060 413 1054 q 372 1083 383 1067 l 244 1271 q 240 1290 238 1281 q 249 1306 242 1300 q 267 1310 257 1311 q 285 1299 276 1308 l 429 1126 l 574 1299 q 592 1310 583 1308 q 609 1306 601 1311 q 619 1290 617 1300 q 614 1271 621 1281 l 488 1083 q 460 1060 475 1067 q 429 1054 446 1054 m 431 1347 q 390 1360 404 1347 q 375 1397 375 1374 q 390 1435 375 1422 q 431 1449 404 1449 q 472 1435 457 1449 q 486 1397 486 1422 q 472 1360 486 1374 q 431 1347 457 1347 z "},"Ş":{"ha":843,"x_min":68,"x_max":785,"o":"m 433 -11 q 304 0 367 -11 q 188 34 242 11 q 92 90 135 57 q 73 113 78 100 q 72 138 68 126 q 84 158 75 150 q 106 167 93 167 q 132 158 118 168 q 267 89 196 111 q 433 67 339 67 q 631 118 565 67 q 697 253 697 169 q 649 361 697 322 q 492 422 601 400 l 351 451 q 156 540 219 478 q 92 707 92 603 q 117 823 92 771 q 188 913 142 875 q 297 970 233 950 q 436 990 360 990 q 602 965 526 990 q 740 886 678 940 q 757 863 753 876 q 757 838 761 850 q 744 819 753 826 q 724 812 736 813 q 697 822 711 811 q 576 891 639 869 q 436 913 513 913 q 301 888 358 913 q 211 817 243 863 q 179 708 179 771 q 224 593 179 636 q 367 531 268 550 l 508 501 q 717 415 649 472 q 785 257 785 357 q 760 148 785 197 q 690 63 736 99 q 580 8 644 26 q 433 -11 515 -11 m 440 -265 q 390 -261 417 -265 q 343 -249 363 -257 q 325 -231 329 -242 q 324 -209 321 -219 q 338 -194 328 -199 q 363 -194 347 -189 q 397 -205 378 -201 q 442 -208 417 -208 q 502 -194 479 -208 q 525 -153 525 -179 q 513 -122 525 -133 q 472 -111 500 -111 q 450 -112 461 -111 q 425 -117 439 -112 q 404 -122 411 -121 q 390 -117 397 -122 q 384 -105 385 -112 q 385 -85 383 -97 l 401 28 l 464 28 l 446 -76 l 417 -71 q 449 -64 433 -67 q 479 -61 465 -61 q 559 -85 526 -61 q 592 -154 592 -110 q 549 -234 592 -203 q 440 -265 507 -265 z "},"Ŝ":{"ha":843,"x_min":68,"x_max":785,"o":"m 433 -11 q 304 0 367 -11 q 188 34 242 11 q 92 90 135 57 q 73 113 78 100 q 72 138 68 126 q 84 158 75 150 q 106 167 93 167 q 132 158 118 168 q 267 89 196 111 q 433 67 339 67 q 631 118 565 67 q 697 253 697 169 q 649 361 697 322 q 492 422 601 400 l 351 451 q 156 540 219 478 q 92 707 92 603 q 117 823 92 771 q 188 913 142 875 q 297 970 233 950 q 436 990 360 990 q 602 965 526 990 q 740 886 678 940 q 757 863 753 876 q 757 838 761 850 q 744 819 753 826 q 724 812 736 813 q 697 822 711 811 q 576 891 639 869 q 436 913 513 913 q 301 888 358 913 q 211 817 243 863 q 179 708 179 771 q 224 593 179 636 q 367 531 268 550 l 508 501 q 717 415 649 472 q 785 257 785 357 q 760 148 785 197 q 690 63 736 99 q 580 8 644 26 q 433 -11 515 -11 m 288 1065 q 266 1053 278 1054 q 245 1057 254 1051 q 234 1073 236 1063 q 240 1094 232 1083 l 372 1279 q 398 1303 383 1297 q 429 1310 413 1310 q 460 1303 446 1310 q 488 1279 475 1297 l 618 1094 q 624 1073 626 1083 q 613 1057 622 1063 q 592 1053 604 1051 q 571 1065 581 1054 l 429 1238 l 288 1065 z "},"Ș":{"ha":843,"x_min":68,"x_max":785,"o":"m 433 -11 q 304 0 367 -11 q 188 34 242 11 q 92 90 135 57 q 73 113 78 100 q 72 138 68 126 q 84 158 75 150 q 106 167 93 167 q 132 158 118 168 q 267 89 196 111 q 433 67 339 67 q 631 118 565 67 q 697 253 697 169 q 649 361 697 322 q 492 422 601 400 l 351 451 q 156 540 219 478 q 92 707 92 603 q 117 823 92 771 q 188 913 142 875 q 297 970 233 950 q 436 990 360 990 q 602 965 526 990 q 740 886 678 940 q 757 863 753 876 q 757 838 761 850 q 744 819 753 826 q 724 812 736 813 q 697 822 711 811 q 576 891 639 869 q 436 913 513 913 q 301 888 358 913 q 211 817 243 863 q 179 708 179 771 q 224 593 179 636 q 367 531 268 550 l 508 501 q 717 415 649 472 q 785 257 785 357 q 760 148 785 197 q 690 63 736 99 q 580 8 644 26 q 433 -11 515 -11 m 446 -340 q 424 -356 436 -354 q 403 -352 411 -358 q 394 -334 394 -346 q 403 -307 393 -322 q 427 -259 419 -285 q 435 -212 435 -233 l 439 -229 q 391 -212 408 -229 q 374 -169 374 -196 q 390 -126 374 -142 q 433 -110 406 -110 q 479 -128 463 -110 q 496 -183 496 -147 q 490 -237 496 -208 q 474 -292 485 -265 q 446 -340 464 -319 z "},"Ṡ":{"ha":843,"x_min":68,"x_max":785,"o":"m 433 -11 q 304 0 367 -11 q 188 34 242 11 q 92 90 135 57 q 73 113 78 100 q 72 138 68 126 q 84 158 75 150 q 106 167 93 167 q 132 158 118 168 q 267 89 196 111 q 433 67 339 67 q 631 118 565 67 q 697 253 697 169 q 649 361 697 322 q 492 422 601 400 l 351 451 q 156 540 219 478 q 92 707 92 603 q 117 823 92 771 q 188 913 142 875 q 297 970 233 950 q 436 990 360 990 q 602 965 526 990 q 740 886 678 940 q 757 863 753 876 q 757 838 761 850 q 744 819 753 826 q 724 812 736 813 q 697 822 711 811 q 576 891 639 869 q 436 913 513 913 q 301 888 358 913 q 211 817 243 863 q 179 708 179 771 q 224 593 179 636 q 367 531 268 550 l 508 501 q 717 415 649 472 q 785 257 785 357 q 760 148 785 197 q 690 63 736 99 q 580 8 644 26 q 433 -11 515 -11 m 429 1124 q 388 1139 403 1124 q 372 1181 372 1154 q 388 1223 372 1208 q 429 1238 403 1238 q 472 1223 457 1238 q 486 1181 486 1208 q 472 1139 486 1154 q 429 1124 457 1124 z "},"Ṣ":{"ha":843,"x_min":68,"x_max":785,"o":"m 433 -11 q 304 0 367 -11 q 188 34 242 11 q 92 90 135 57 q 73 113 78 100 q 72 138 68 126 q 84 158 75 150 q 106 167 93 167 q 132 158 118 168 q 267 89 196 111 q 433 67 339 67 q 631 118 565 67 q 697 253 697 169 q 649 361 697 322 q 492 422 601 400 l 351 451 q 156 540 219 478 q 92 707 92 603 q 117 823 92 771 q 188 913 142 875 q 297 970 233 950 q 436 990 360 990 q 602 965 526 990 q 740 886 678 940 q 757 863 753 876 q 757 838 761 850 q 744 819 753 826 q 724 812 736 813 q 697 822 711 811 q 576 891 639 869 q 436 913 513 913 q 301 888 358 913 q 211 817 243 863 q 179 708 179 771 q 224 593 179 636 q 367 531 268 550 l 508 501 q 717 415 649 472 q 785 257 785 357 q 760 148 785 197 q 690 63 736 99 q 580 8 644 26 q 433 -11 515 -11 m 435 -254 q 392 -239 408 -254 q 376 -196 376 -224 q 392 -154 376 -168 q 435 -140 408 -140 q 478 -154 463 -140 q 493 -196 493 -168 q 478 -239 493 -224 q 435 -254 463 -254 z "},"Ṩ":{"ha":843,"x_min":68,"x_max":785,"o":"m 433 -11 q 304 0 367 -11 q 188 34 242 11 q 92 90 135 57 q 73 113 78 100 q 72 138 68 126 q 84 158 75 150 q 106 167 93 167 q 132 158 118 168 q 267 89 196 111 q 433 67 339 67 q 631 118 565 67 q 697 253 697 169 q 649 361 697 322 q 492 422 601 400 l 351 451 q 156 540 219 478 q 92 707 92 603 q 117 823 92 771 q 188 913 142 875 q 297 970 233 950 q 436 990 360 990 q 602 965 526 990 q 740 886 678 940 q 757 863 753 876 q 757 838 761 850 q 744 819 753 826 q 724 812 736 813 q 697 822 711 811 q 576 891 639 869 q 436 913 513 913 q 301 888 358 913 q 211 817 243 863 q 179 708 179 771 q 224 593 179 636 q 367 531 268 550 l 508 501 q 717 415 649 472 q 785 257 785 357 q 760 148 785 197 q 690 63 736 99 q 580 8 644 26 q 433 -11 515 -11 m 435 -254 q 392 -239 408 -254 q 376 -196 376 -224 q 392 -154 376 -168 q 435 -140 408 -140 q 478 -154 463 -140 q 493 -196 493 -168 q 478 -239 493 -224 q 435 -254 463 -254 m 429 1124 q 388 1139 403 1124 q 372 1181 372 1154 q 388 1223 372 1208 q 429 1238 403 1238 q 472 1223 457 1238 q 486 1181 486 1208 q 472 1139 486 1154 q 429 1124 457 1124 z "},"ẞ":{"ha":979,"x_min":128,"x_max":886,"o":"m 586 -11 q 446 8 511 -11 q 333 64 381 26 q 317 85 321 74 q 317 108 314 96 q 328 128 321 119 q 348 137 336 136 q 372 129 360 138 q 472 78 419 93 q 582 64 524 64 q 744 117 689 64 q 800 263 800 169 q 742 405 800 354 q 563 456 683 456 l 400 456 q 371 465 382 456 q 360 493 360 475 q 371 519 360 510 q 399 529 382 529 l 528 529 q 688 578 628 529 q 747 722 747 628 q 685 866 747 817 q 504 915 622 915 q 287 847 361 915 q 213 643 213 779 l 213 36 q 201 3 213 15 q 169 -8 190 -8 q 139 3 150 -8 q 128 36 128 15 l 128 646 q 173 836 128 760 q 303 951 218 913 q 506 990 388 990 q 679 959 606 990 q 793 871 753 928 q 833 733 833 814 q 785 576 833 642 q 653 490 736 510 l 653 511 q 776 470 724 503 q 857 385 828 438 q 886 260 886 332 q 850 113 886 174 q 747 20 814 51 q 586 -11 681 -11 z "},"T":{"ha":825,"x_min":-4,"x_max":829,"o":"m 413 -8 q 381 3 392 -8 q 369 36 369 15 l 369 903 l 38 903 q 7 914 18 903 q -4 942 -4 925 q 7 969 -4 960 q 38 979 18 979 l 789 979 q 819 969 808 979 q 829 942 829 960 q 819 913 829 924 q 789 903 808 903 l 456 903 l 456 36 q 445 3 456 15 q 413 -8 435 -8 z "},"Ŧ":{"ha":825,"x_min":-4,"x_max":829,"o":"m 413 -8 q 381 3 392 -8 q 369 36 369 15 l 369 903 l 38 903 q 7 914 18 903 q -4 942 -4 925 q 7 969 -4 960 q 38 979 18 979 l 789 979 q 819 969 808 979 q 829 942 829 960 q 819 913 829 924 q 789 903 808 903 l 456 903 l 456 36 q 445 3 456 15 q 413 -8 435 -8 m 196 463 q 169 472 178 463 q 160 499 160 482 q 169 523 160 514 q 196 532 178 532 l 628 532 q 655 524 646 532 q 664 499 664 515 q 655 472 664 482 q 628 463 646 463 l 196 463 z "},"Ť":{"ha":825,"x_min":-4,"x_max":829,"o":"m 413 -8 q 381 3 392 -8 q 369 36 369 15 l 369 903 l 38 903 q 7 914 18 903 q -4 942 -4 925 q 7 969 -4 960 q 38 979 18 979 l 789 979 q 819 969 808 979 q 829 942 829 960 q 819 913 829 924 q 789 903 808 903 l 456 903 l 456 36 q 445 3 456 15 q 413 -8 435 -8 m 413 1051 q 381 1058 396 1051 q 356 1082 367 1065 l 224 1267 q 217 1290 215 1279 q 228 1306 219 1300 q 249 1310 238 1311 q 271 1296 261 1308 l 413 1125 l 554 1296 q 576 1310 564 1308 q 597 1306 588 1311 q 608 1290 606 1300 q 601 1267 610 1279 l 471 1082 q 444 1058 458 1065 q 413 1051 429 1051 z "},"Ţ":{"ha":825,"x_min":-4,"x_max":829,"o":"m 413 -8 q 381 3 392 -8 q 369 36 369 15 l 369 903 l 38 903 q 7 914 18 903 q -4 942 -4 925 q 7 969 -4 960 q 38 979 18 979 l 789 979 q 819 969 808 979 q 829 942 829 960 q 819 913 829 924 q 789 903 808 903 l 456 903 l 456 36 q 445 3 456 15 q 413 -8 435 -8 m 418 -265 q 367 -261 394 -265 q 321 -249 340 -257 q 303 -231 307 -242 q 302 -209 299 -219 q 315 -194 306 -199 q 340 -194 325 -189 q 375 -205 356 -201 q 419 -208 394 -208 q 480 -194 457 -208 q 503 -153 503 -179 q 490 -122 503 -133 q 450 -111 478 -111 q 428 -112 439 -111 q 403 -117 417 -112 q 382 -122 389 -121 q 368 -117 375 -122 q 362 -105 363 -112 q 363 -85 361 -97 l 379 28 l 442 28 l 424 -76 l 394 -71 q 427 -64 411 -67 q 457 -61 443 -61 q 537 -85 504 -61 q 569 -154 569 -110 q 527 -234 569 -203 q 418 -265 485 -265 z "},"Ț":{"ha":825,"x_min":-4,"x_max":829,"o":"m 413 -8 q 381 3 392 -8 q 369 36 369 15 l 369 903 l 38 903 q 7 914 18 903 q -4 942 -4 925 q 7 969 -4 960 q 38 979 18 979 l 789 979 q 819 969 808 979 q 829 942 829 960 q 819 913 829 924 q 789 903 808 903 l 456 903 l 456 36 q 445 3 456 15 q 413 -8 435 -8 m 424 -340 q 401 -356 414 -354 q 381 -352 389 -358 q 372 -334 372 -346 q 381 -307 371 -322 q 405 -259 397 -285 q 413 -212 413 -233 l 417 -229 q 369 -212 386 -229 q 351 -169 351 -196 q 367 -126 351 -142 q 411 -110 383 -110 q 457 -128 440 -110 q 474 -183 474 -147 q 468 -237 474 -208 q 452 -292 463 -265 q 424 -340 442 -319 z "},"Ṭ":{"ha":825,"x_min":-4,"x_max":829,"o":"m 413 -8 q 381 3 392 -8 q 369 36 369 15 l 369 903 l 38 903 q 7 914 18 903 q -4 942 -4 925 q 7 969 -4 960 q 38 979 18 979 l 789 979 q 819 969 808 979 q 829 942 829 960 q 819 913 829 924 q 789 903 808 903 l 456 903 l 456 36 q 445 3 456 15 q 413 -8 435 -8 m 413 -254 q 370 -239 386 -254 q 354 -196 354 -224 q 370 -154 354 -168 q 413 -140 386 -140 q 456 -154 440 -140 q 471 -196 471 -168 q 456 -239 471 -224 q 413 -254 440 -254 z "},"Ṯ":{"ha":825,"x_min":-4,"x_max":829,"o":"m 413 -8 q 381 3 392 -8 q 369 36 369 15 l 369 903 l 38 903 q 7 914 18 903 q -4 942 -4 925 q 7 969 -4 960 q 38 979 18 979 l 789 979 q 819 969 808 979 q 829 942 829 960 q 819 913 829 924 q 789 903 808 903 l 456 903 l 456 36 q 445 3 456 15 q 413 -8 435 -8 m 246 -211 q 211 -179 211 -211 q 220 -156 211 -164 q 246 -147 229 -147 l 579 -147 q 614 -179 614 -147 q 605 -203 614 -194 q 579 -211 596 -211 l 246 -211 z "},"U":{"ha":1006,"x_min":121,"x_max":885,"o":"m 503 -11 q 338 14 410 -11 q 217 89 265 39 q 145 213 169 139 q 121 382 121 286 l 121 944 q 132 977 121 967 q 163 988 143 988 q 194 977 183 988 q 206 944 206 967 l 206 389 q 281 147 206 226 q 503 67 357 67 q 725 147 650 67 q 800 389 800 226 l 800 944 q 811 977 800 967 q 843 988 822 988 q 874 977 863 988 q 885 944 885 967 l 885 382 q 842 166 885 254 q 713 33 799 78 q 503 -11 628 -11 z "},"Ú":{"ha":1006,"x_min":121,"x_max":885,"o":"m 503 -11 q 338 14 410 -11 q 217 89 265 39 q 145 213 169 139 q 121 382 121 286 l 121 944 q 132 977 121 967 q 163 988 143 988 q 194 977 183 988 q 206 944 206 967 l 206 389 q 281 147 206 226 q 503 67 357 67 q 725 147 650 67 q 800 389 800 226 l 800 944 q 811 977 800 967 q 843 988 822 988 q 874 977 863 988 q 885 944 885 967 l 885 382 q 842 166 885 254 q 713 33 799 78 q 503 -11 628 -11 m 542 1068 q 521 1056 532 1057 q 501 1060 510 1054 q 489 1077 492 1067 q 494 1100 486 1088 l 625 1289 q 648 1308 635 1304 q 673 1308 661 1313 q 693 1295 685 1304 q 701 1274 701 1286 q 690 1249 701 1263 l 542 1068 z "},"Ŭ":{"ha":1006,"x_min":121,"x_max":885,"o":"m 503 -11 q 338 14 410 -11 q 217 89 265 39 q 145 213 169 139 q 121 382 121 286 l 121 944 q 132 977 121 967 q 163 988 143 988 q 194 977 183 988 q 206 944 206 967 l 206 389 q 281 147 206 226 q 503 67 357 67 q 725 147 650 67 q 800 389 800 226 l 800 944 q 811 977 800 967 q 843 988 822 988 q 874 977 863 988 q 885 944 885 967 l 885 382 q 842 166 885 254 q 713 33 799 78 q 503 -11 628 -11 m 503 1056 q 362 1105 424 1056 q 279 1261 300 1154 q 285 1288 276 1278 q 306 1299 293 1297 q 321 1295 314 1299 q 332 1285 328 1292 q 338 1271 336 1279 q 400 1152 353 1186 q 503 1118 447 1118 q 606 1152 558 1118 q 668 1271 654 1186 q 674 1285 669 1279 q 685 1295 678 1292 q 700 1299 693 1299 q 721 1288 713 1297 q 726 1261 729 1278 q 644 1105 706 1154 q 503 1056 582 1056 z "},"Û":{"ha":1006,"x_min":121,"x_max":885,"o":"m 503 -11 q 338 14 410 -11 q 217 89 265 39 q 145 213 169 139 q 121 382 121 286 l 121 944 q 132 977 121 967 q 163 988 143 988 q 194 977 183 988 q 206 944 206 967 l 206 389 q 281 147 206 226 q 503 67 357 67 q 725 147 650 67 q 800 389 800 226 l 800 944 q 811 977 800 967 q 843 988 822 988 q 874 977 863 988 q 885 944 885 967 l 885 382 q 842 166 885 254 q 713 33 799 78 q 503 -11 628 -11 m 361 1065 q 340 1053 351 1054 q 319 1057 328 1051 q 308 1073 310 1063 q 314 1094 306 1083 l 446 1279 q 472 1303 457 1297 q 503 1310 486 1310 q 534 1303 519 1310 q 561 1279 549 1297 l 692 1094 q 698 1073 700 1083 q 687 1057 696 1063 q 666 1053 678 1051 q 644 1065 654 1054 l 503 1238 l 361 1065 z "},"Ȕ":{"ha":1006,"x_min":121,"x_max":885,"o":"m 503 -11 q 338 14 410 -11 q 217 89 265 39 q 145 213 169 139 q 121 382 121 286 l 121 944 q 132 977 121 967 q 163 988 143 988 q 194 977 183 988 q 206 944 206 967 l 206 389 q 281 147 206 226 q 503 67 357 67 q 725 147 650 67 q 800 389 800 226 l 800 944 q 811 977 800 967 q 843 988 822 988 q 874 977 863 988 q 885 944 885 967 l 885 382 q 842 166 885 254 q 713 33 799 78 q 503 -11 628 -11 m 556 1067 l 433 1251 q 425 1278 424 1265 q 435 1299 426 1290 q 455 1310 443 1307 q 478 1307 467 1313 q 499 1285 490 1301 l 599 1088 q 601 1067 604 1076 q 590 1055 599 1058 q 573 1053 582 1051 q 556 1067 564 1056 m 394 1065 l 269 1251 q 260 1278 258 1265 q 269 1299 261 1290 q 290 1310 278 1307 q 313 1307 301 1313 q 333 1285 325 1301 l 435 1088 q 438 1069 440 1078 q 428 1056 436 1060 q 410 1053 419 1051 q 394 1065 401 1056 z "},"Ü":{"ha":1006,"x_min":121,"x_max":885,"o":"m 503 -11 q 338 14 410 -11 q 217 89 265 39 q 145 213 169 139 q 121 382 121 286 l 121 944 q 132 977 121 967 q 163 988 143 988 q 194 977 183 988 q 206 944 206 967 l 206 389 q 281 147 206 226 q 503 67 357 67 q 725 147 650 67 q 800 389 800 226 l 800 944 q 811 977 800 967 q 843 988 822 988 q 874 977 863 988 q 885 944 885 967 l 885 382 q 842 166 885 254 q 713 33 799 78 q 503 -11 628 -11 m 619 1125 q 578 1139 593 1125 q 564 1181 564 1153 q 578 1221 564 1207 q 619 1235 593 1235 q 660 1221 646 1235 q 675 1181 675 1207 q 660 1139 675 1153 q 619 1125 646 1125 m 388 1125 q 346 1139 361 1125 q 331 1181 331 1153 q 346 1221 331 1207 q 388 1235 361 1235 q 428 1221 414 1235 q 442 1181 442 1207 q 428 1139 442 1153 q 388 1125 414 1125 z "},"Ụ":{"ha":1006,"x_min":121,"x_max":885,"o":"m 503 -11 q 338 14 410 -11 q 217 89 265 39 q 145 213 169 139 q 121 382 121 286 l 121 944 q 132 977 121 967 q 163 988 143 988 q 194 977 183 988 q 206 944 206 967 l 206 389 q 281 147 206 226 q 503 67 357 67 q 725 147 650 67 q 800 389 800 226 l 800 944 q 811 977 800 967 q 843 988 822 988 q 874 977 863 988 q 885 944 885 967 l 885 382 q 842 166 885 254 q 713 33 799 78 q 503 -11 628 -11 m 503 -254 q 460 -239 476 -254 q 444 -196 444 -224 q 460 -154 444 -168 q 503 -140 476 -140 q 546 -154 531 -140 q 561 -196 561 -168 q 546 -239 561 -224 q 503 -254 531 -254 z "},"Ù":{"ha":1006,"x_min":121,"x_max":885,"o":"m 503 -11 q 338 14 410 -11 q 217 89 265 39 q 145 213 169 139 q 121 382 121 286 l 121 944 q 132 977 121 967 q 163 988 143 988 q 194 977 183 988 q 206 944 206 967 l 206 389 q 281 147 206 226 q 503 67 357 67 q 725 147 650 67 q 800 389 800 226 l 800 944 q 811 977 800 967 q 843 988 822 988 q 874 977 863 988 q 885 944 885 967 l 885 382 q 842 166 885 254 q 713 33 799 78 q 503 -11 628 -11 m 464 1068 l 315 1249 q 305 1274 304 1263 q 313 1295 306 1286 q 333 1308 321 1304 q 358 1308 346 1313 q 381 1289 371 1304 l 513 1100 q 518 1077 521 1088 q 506 1060 515 1067 q 485 1056 497 1054 q 464 1068 474 1057 z "},"Ủ":{"ha":1006,"x_min":121,"x_max":885,"o":"m 503 -11 q 338 14 410 -11 q 217 89 265 39 q 145 213 169 139 q 121 382 121 286 l 121 944 q 132 977 121 967 q 163 988 143 988 q 194 977 183 988 q 206 944 206 967 l 206 389 q 281 147 206 226 q 503 67 357 67 q 725 147 650 67 q 800 389 800 226 l 800 944 q 811 977 800 967 q 843 988 822 988 q 874 977 863 988 q 885 944 885 967 l 885 382 q 842 166 885 254 q 713 33 799 78 q 503 -11 628 -11 m 503 1054 q 479 1061 488 1054 q 471 1083 471 1068 q 485 1131 471 1113 q 517 1161 499 1149 q 549 1186 535 1174 q 563 1215 563 1199 q 546 1241 563 1232 q 493 1250 529 1250 q 465 1248 481 1250 q 433 1240 449 1246 q 403 1237 414 1235 q 389 1251 393 1239 q 391 1274 386 1264 q 411 1290 396 1285 q 458 1303 432 1299 q 507 1307 483 1307 q 602 1284 568 1307 q 636 1224 636 1261 q 621 1176 636 1193 q 586 1147 606 1158 q 551 1119 567 1135 q 536 1076 536 1104 q 527 1060 536 1067 q 503 1054 518 1054 z "},"Ư":{"ha":1006,"x_min":121,"x_max":1049,"o":"m 503 -11 q 338 14 410 -11 q 217 89 265 39 q 145 213 169 139 q 121 382 121 286 l 121 944 q 132 977 121 967 q 163 988 143 988 q 194 977 183 988 q 206 944 206 967 l 206 389 q 281 147 206 226 q 503 67 357 67 q 725 147 650 67 q 800 389 800 226 l 800 944 q 811 977 800 967 q 843 988 822 988 q 874 977 863 988 q 885 944 885 967 l 885 382 q 842 166 885 254 q 713 33 799 78 q 503 -11 628 -11 m 851 918 l 813 946 l 813 979 q 910 997 876 981 q 958 1049 944 1014 q 972 1133 972 1083 q 982 1161 972 1153 q 1011 1169 992 1169 q 1040 1162 1029 1169 q 1050 1133 1050 1154 q 1027 1020 1050 1067 q 960 948 1004 974 q 851 918 915 922 z "},"Ứ":{"ha":1006,"x_min":121,"x_max":1049,"o":"m 503 -11 q 338 14 410 -11 q 217 89 265 39 q 145 213 169 139 q 121 382 121 286 l 121 944 q 132 977 121 967 q 163 988 143 988 q 194 977 183 988 q 206 944 206 967 l 206 389 q 281 147 206 226 q 503 67 357 67 q 725 147 650 67 q 800 389 800 226 l 800 944 q 811 977 800 967 q 843 988 822 988 q 874 977 863 988 q 885 944 885 967 l 885 382 q 842 166 885 254 q 713 33 799 78 q 503 -11 628 -11 m 851 918 l 813 946 l 813 979 q 910 997 876 981 q 958 1049 944 1014 q 972 1133 972 1083 q 982 1161 972 1153 q 1011 1169 992 1169 q 1040 1162 1029 1169 q 1050 1133 1050 1154 q 1027 1020 1050 1067 q 960 948 1004 974 q 851 918 915 922 m 542 1068 q 521 1056 532 1057 q 501 1060 510 1054 q 489 1077 492 1067 q 494 1100 486 1088 l 625 1289 q 648 1308 635 1304 q 673 1308 661 1313 q 693 1295 685 1304 q 701 1274 701 1286 q 690 1249 701 1263 l 542 1068 z "},"Ự":{"ha":1006,"x_min":121,"x_max":1049,"o":"m 503 -11 q 338 14 410 -11 q 217 89 265 39 q 145 213 169 139 q 121 382 121 286 l 121 944 q 132 977 121 967 q 163 988 143 988 q 194 977 183 988 q 206 944 206 967 l 206 389 q 281 147 206 226 q 503 67 357 67 q 725 147 650 67 q 800 389 800 226 l 800 944 q 811 977 800 967 q 843 988 822 988 q 874 977 863 988 q 885 944 885 967 l 885 382 q 842 166 885 254 q 713 33 799 78 q 503 -11 628 -11 m 851 918 l 813 946 l 813 979 q 910 997 876 981 q 958 1049 944 1014 q 972 1133 972 1083 q 982 1161 972 1153 q 1011 1169 992 1169 q 1040 1162 1029 1169 q 1050 1133 1050 1154 q 1027 1020 1050 1067 q 960 948 1004 974 q 851 918 915 922 m 503 -254 q 460 -239 476 -254 q 444 -196 444 -224 q 460 -154 444 -168 q 503 -140 476 -140 q 546 -154 531 -140 q 561 -196 561 -168 q 546 -239 561 -224 q 503 -254 531 -254 z "},"Ừ":{"ha":1006,"x_min":121,"x_max":1049,"o":"m 503 -11 q 338 14 410 -11 q 217 89 265 39 q 145 213 169 139 q 121 382 121 286 l 121 944 q 132 977 121 967 q 163 988 143 988 q 194 977 183 988 q 206 944 206 967 l 206 389 q 281 147 206 226 q 503 67 357 67 q 725 147 650 67 q 800 389 800 226 l 800 944 q 811 977 800 967 q 843 988 822 988 q 874 977 863 988 q 885 944 885 967 l 885 382 q 842 166 885 254 q 713 33 799 78 q 503 -11 628 -11 m 851 918 l 813 946 l 813 979 q 910 997 876 981 q 958 1049 944 1014 q 972 1133 972 1083 q 982 1161 972 1153 q 1011 1169 992 1169 q 1040 1162 1029 1169 q 1050 1133 1050 1154 q 1027 1020 1050 1067 q 960 948 1004 974 q 851 918 915 922 m 464 1068 l 315 1249 q 305 1274 304 1263 q 313 1295 306 1286 q 333 1308 321 1304 q 358 1308 346 1313 q 381 1289 371 1304 l 513 1100 q 518 1077 521 1088 q 506 1060 515 1067 q 485 1056 497 1054 q 464 1068 474 1057 z "},"Ử":{"ha":1006,"x_min":121,"x_max":1049,"o":"m 503 -11 q 338 14 410 -11 q 217 89 265 39 q 145 213 169 139 q 121 382 121 286 l 121 944 q 132 977 121 967 q 163 988 143 988 q 194 977 183 988 q 206 944 206 967 l 206 389 q 281 147 206 226 q 503 67 357 67 q 725 147 650 67 q 800 389 800 226 l 800 944 q 811 977 800 967 q 843 988 822 988 q 874 977 863 988 q 885 944 885 967 l 885 382 q 842 166 885 254 q 713 33 799 78 q 503 -11 628 -11 m 851 918 l 813 946 l 813 979 q 910 997 876 981 q 958 1049 944 1014 q 972 1133 972 1083 q 982 1161 972 1153 q 1011 1169 992 1169 q 1040 1162 1029 1169 q 1050 1133 1050 1154 q 1027 1020 1050 1067 q 960 948 1004 974 q 851 918 915 922 m 503 1054 q 479 1061 488 1054 q 471 1083 471 1068 q 485 1131 471 1113 q 517 1161 499 1149 q 549 1186 535 1174 q 563 1215 563 1199 q 546 1241 563 1232 q 493 1250 529 1250 q 465 1248 481 1250 q 433 1240 449 1246 q 403 1237 414 1235 q 389 1251 393 1239 q 391 1274 386 1264 q 411 1290 396 1285 q 458 1303 432 1299 q 507 1307 483 1307 q 602 1284 568 1307 q 636 1224 636 1261 q 621 1176 636 1193 q 586 1147 606 1158 q 551 1119 567 1135 q 536 1076 536 1104 q 527 1060 536 1067 q 503 1054 518 1054 z "},"Ữ":{"ha":1006,"x_min":121,"x_max":1049,"o":"m 503 -11 q 338 14 410 -11 q 217 89 265 39 q 145 213 169 139 q 121 382 121 286 l 121 944 q 132 977 121 967 q 163 988 143 988 q 194 977 183 988 q 206 944 206 967 l 206 389 q 281 147 206 226 q 503 67 357 67 q 725 147 650 67 q 800 389 800 226 l 800 944 q 811 977 800 967 q 843 988 822 988 q 874 977 863 988 q 885 944 885 967 l 885 382 q 842 166 885 254 q 713 33 799 78 q 503 -11 628 -11 m 851 918 l 813 946 l 813 979 q 910 997 876 981 q 958 1049 944 1014 q 972 1133 972 1083 q 982 1161 972 1153 q 1011 1169 992 1169 q 1040 1162 1029 1169 q 1050 1133 1050 1154 q 1027 1020 1050 1067 q 960 948 1004 974 q 851 918 915 922 m 264 1089 q 245 1099 253 1090 q 239 1124 238 1107 q 292 1234 251 1194 q 390 1274 333 1274 q 455 1256 425 1274 q 510 1217 485 1239 q 560 1178 535 1196 q 613 1161 586 1161 q 673 1187 649 1161 q 706 1257 697 1213 q 717 1276 710 1269 q 735 1282 725 1282 q 756 1272 747 1281 q 760 1247 764 1264 q 708 1138 749 1178 q 610 1097 668 1097 q 546 1115 575 1097 q 490 1153 517 1132 q 439 1192 464 1175 q 388 1210 414 1210 q 327 1184 351 1210 q 294 1114 303 1158 q 283 1096 292 1103 q 264 1089 275 1089 z "},"Ű":{"ha":1006,"x_min":121,"x_max":885,"o":"m 503 -11 q 338 14 410 -11 q 217 89 265 39 q 145 213 169 139 q 121 382 121 286 l 121 944 q 132 977 121 967 q 163 988 143 988 q 194 977 183 988 q 206 944 206 967 l 206 389 q 281 147 206 226 q 503 67 357 67 q 725 147 650 67 q 800 389 800 226 l 800 944 q 811 977 800 967 q 843 988 822 988 q 874 977 863 988 q 885 944 885 967 l 885 382 q 842 166 885 254 q 713 33 799 78 q 503 -11 628 -11 m 450 1067 q 433 1053 442 1056 q 415 1055 424 1051 q 405 1067 407 1058 q 408 1088 403 1076 l 507 1285 q 527 1307 515 1301 q 551 1310 539 1313 q 571 1299 563 1307 q 581 1278 579 1290 q 572 1251 582 1265 l 450 1067 m 611 1065 q 595 1053 604 1056 q 578 1056 586 1051 q 567 1069 569 1060 q 571 1088 565 1078 l 672 1285 q 692 1307 681 1301 q 716 1310 704 1313 q 736 1299 728 1307 q 746 1278 744 1290 q 736 1251 747 1265 l 611 1065 z "},"Ȗ":{"ha":1006,"x_min":121,"x_max":885,"o":"m 503 -11 q 338 14 410 -11 q 217 89 265 39 q 145 213 169 139 q 121 382 121 286 l 121 944 q 132 977 121 967 q 163 988 143 988 q 194 977 183 988 q 206 944 206 967 l 206 389 q 281 147 206 226 q 503 67 357 67 q 725 147 650 67 q 800 389 800 226 l 800 944 q 811 977 800 967 q 843 988 822 988 q 874 977 863 988 q 885 944 885 967 l 885 382 q 842 166 885 254 q 713 33 799 78 q 503 -11 628 -11 m 306 1053 q 285 1064 293 1054 q 279 1090 276 1074 q 362 1247 300 1197 q 503 1296 424 1296 q 644 1247 582 1296 q 726 1090 707 1197 q 721 1064 729 1074 q 700 1053 713 1054 q 685 1056 693 1053 q 674 1067 678 1060 q 668 1081 669 1074 q 605 1199 651 1165 q 503 1233 558 1233 q 401 1199 447 1233 q 338 1081 354 1165 q 332 1067 336 1074 q 321 1056 328 1060 q 306 1053 314 1053 z "},"Ū":{"ha":1006,"x_min":121,"x_max":885,"o":"m 503 -11 q 338 14 410 -11 q 217 89 265 39 q 145 213 169 139 q 121 382 121 286 l 121 944 q 132 977 121 967 q 163 988 143 988 q 194 977 183 988 q 206 944 206 967 l 206 389 q 281 147 206 226 q 503 67 357 67 q 725 147 650 67 q 800 389 800 226 l 800 944 q 811 977 800 967 q 843 988 822 988 q 874 977 863 988 q 885 944 885 967 l 885 382 q 842 166 885 254 q 713 33 799 78 q 503 -11 628 -11 m 315 1136 q 281 1168 281 1136 q 290 1193 281 1185 q 315 1201 299 1201 l 690 1201 q 725 1168 725 1201 q 716 1145 725 1154 q 690 1136 707 1136 l 315 1136 z "},"Ṻ":{"ha":1006,"x_min":121,"x_max":885,"o":"m 503 -11 q 338 14 410 -11 q 217 89 265 39 q 145 213 169 139 q 121 382 121 286 l 121 944 q 132 977 121 967 q 163 988 143 988 q 194 977 183 988 q 206 944 206 967 l 206 389 q 281 147 206 226 q 503 67 357 67 q 725 147 650 67 q 800 389 800 226 l 800 944 q 811 977 800 967 q 843 988 822 988 q 874 977 863 988 q 885 944 885 967 l 885 382 q 842 166 885 254 q 713 33 799 78 q 503 -11 628 -11 m 335 1114 q 308 1122 318 1114 q 299 1146 299 1131 q 308 1169 299 1161 q 335 1178 318 1178 l 671 1178 q 698 1169 689 1178 q 707 1146 707 1161 q 698 1122 707 1131 q 671 1114 689 1114 l 335 1114 m 388 1254 q 346 1267 361 1254 q 331 1304 331 1281 q 346 1342 331 1329 q 388 1356 361 1356 q 428 1342 414 1356 q 442 1304 442 1329 q 428 1267 442 1281 q 388 1254 414 1254 m 619 1254 q 578 1267 593 1254 q 564 1304 564 1281 q 578 1342 564 1329 q 619 1356 593 1356 q 660 1342 646 1356 q 675 1304 675 1329 q 660 1267 675 1281 q 619 1254 646 1254 z "},"Ų":{"ha":1006,"x_min":121,"x_max":885,"o":"m 503 -11 q 338 14 410 -11 q 217 89 265 39 q 145 213 169 139 q 121 382 121 286 l 121 944 q 132 977 121 967 q 163 988 143 988 q 194 977 183 988 q 206 944 206 967 l 206 389 q 281 147 206 226 q 503 67 357 67 q 725 147 650 67 q 800 389 800 226 l 800 944 q 811 977 800 967 q 843 988 822 988 q 874 977 863 988 q 885 944 885 967 l 885 382 q 842 166 885 254 q 713 33 799 78 q 503 -11 628 -11 m 557 -265 q 458 -230 496 -265 q 419 -133 419 -194 q 453 -31 419 -79 q 547 47 488 17 l 582 0 q 539 -26 561 -8 q 501 -69 517 -44 q 486 -125 486 -94 q 510 -186 486 -167 q 568 -206 533 -206 q 594 -203 582 -206 q 619 -197 607 -201 q 645 -198 636 -192 q 656 -215 654 -204 q 653 -237 658 -226 q 636 -253 649 -247 q 596 -262 615 -260 q 557 -265 576 -265 z "},"Ů":{"ha":1006,"x_min":121,"x_max":885,"o":"m 503 -11 q 338 14 410 -11 q 217 89 265 39 q 145 213 169 139 q 121 382 121 286 l 121 944 q 132 977 121 967 q 163 988 143 988 q 194 977 183 988 q 206 944 206 967 l 206 389 q 281 147 206 226 q 503 67 357 67 q 725 147 650 67 q 800 389 800 226 l 800 944 q 811 977 800 967 q 843 988 822 988 q 874 977 863 988 q 885 944 885 967 l 885 382 q 842 166 885 254 q 713 33 799 78 q 503 -11 628 -11 m 503 1054 q 422 1076 458 1054 q 364 1133 385 1097 q 343 1211 343 1168 q 364 1290 343 1256 q 422 1347 385 1325 q 503 1368 458 1368 q 585 1347 549 1368 q 642 1290 621 1325 q 663 1211 663 1256 q 642 1133 663 1168 q 585 1076 621 1097 q 503 1054 549 1054 m 503 1107 q 578 1137 550 1107 q 607 1211 607 1167 q 578 1285 607 1256 q 503 1315 550 1315 q 428 1285 457 1315 q 399 1211 399 1256 q 428 1137 399 1167 q 503 1107 457 1107 z "},"Ũ":{"ha":1006,"x_min":121,"x_max":885,"o":"m 503 -11 q 338 14 410 -11 q 217 89 265 39 q 145 213 169 139 q 121 382 121 286 l 121 944 q 132 977 121 967 q 163 988 143 988 q 194 977 183 988 q 206 944 206 967 l 206 389 q 281 147 206 226 q 503 67 357 67 q 725 147 650 67 q 800 389 800 226 l 800 944 q 811 977 800 967 q 843 988 822 988 q 874 977 863 988 q 885 944 885 967 l 885 382 q 842 166 885 254 q 713 33 799 78 q 503 -11 628 -11 m 251 1089 q 231 1099 239 1090 q 225 1124 224 1107 q 279 1234 238 1194 q 379 1274 321 1274 q 450 1256 417 1274 q 515 1217 483 1239 q 574 1178 546 1196 q 631 1161 603 1161 q 692 1187 668 1161 q 725 1257 717 1213 q 737 1276 729 1269 q 754 1282 744 1282 q 775 1272 767 1281 q 781 1247 783 1264 q 727 1138 768 1178 q 628 1097 686 1097 q 556 1115 590 1097 q 492 1153 522 1132 q 432 1192 461 1175 q 375 1210 403 1210 q 313 1184 338 1210 q 281 1114 289 1158 q 270 1096 278 1103 q 251 1089 263 1089 z "},"Ṹ":{"ha":1006,"x_min":121,"x_max":885,"o":"m 503 -11 q 338 14 410 -11 q 217 89 265 39 q 145 213 169 139 q 121 382 121 286 l 121 944 q 132 977 121 967 q 163 988 143 988 q 194 977 183 988 q 206 944 206 967 l 206 389 q 281 147 206 226 q 503 67 357 67 q 725 147 650 67 q 800 389 800 226 l 800 944 q 811 977 800 967 q 843 988 822 988 q 874 977 863 988 q 885 944 885 967 l 885 382 q 842 166 885 254 q 713 33 799 78 q 503 -11 628 -11 m 532 1214 q 514 1203 525 1204 q 494 1208 503 1203 q 484 1223 486 1213 q 489 1247 482 1233 l 593 1411 q 616 1432 603 1428 q 641 1433 629 1436 q 660 1422 653 1431 q 669 1400 668 1413 q 658 1375 669 1388 l 532 1214 m 319 1065 q 301 1076 308 1067 q 299 1103 294 1085 q 340 1179 310 1154 q 414 1204 371 1204 q 481 1185 453 1204 q 535 1146 510 1165 q 590 1126 561 1126 q 631 1138 615 1126 q 654 1178 647 1150 q 666 1200 657 1193 q 688 1206 675 1207 q 706 1195 700 1204 q 708 1168 711 1186 q 667 1092 697 1117 q 593 1067 636 1067 q 525 1086 554 1067 q 470 1125 496 1106 q 415 1144 444 1144 q 375 1133 390 1144 q 353 1093 360 1121 q 341 1072 349 1079 q 319 1065 333 1064 z "},"V":{"ha":942,"x_min":19,"x_max":922,"o":"m 471 -8 q 438 2 451 -8 q 415 32 425 13 l 25 933 q 22 963 19 951 q 36 981 25 975 q 61 988 47 988 q 90 979 81 988 q 108 954 100 971 l 492 63 l 453 63 l 836 954 q 854 979 843 971 q 883 988 865 988 q 908 981 899 988 q 920 962 918 974 q 915 933 922 950 l 525 32 q 505 2 518 13 q 471 -8 492 -8 z "},"W":{"ha":1522,"x_min":56,"x_max":1469,"o":"m 428 -8 q 397 2 408 -8 q 376 33 385 13 l 63 936 q 66 973 56 958 q 100 988 76 988 q 129 979 118 988 q 147 950 140 971 l 451 61 l 407 61 l 714 946 q 733 977 722 967 q 763 988 743 988 q 791 977 781 988 q 808 946 801 967 l 1114 61 l 1072 61 l 1379 950 q 1397 978 1385 969 q 1426 988 1408 988 q 1459 974 1449 988 q 1460 936 1469 960 l 1146 33 q 1126 2 1138 13 q 1094 -8 1115 -8 q 1063 2 1075 -8 q 1043 33 1051 13 l 747 890 l 775 890 l 478 33 q 459 2 469 13 q 428 -8 449 -8 z "},"Ẃ":{"ha":1522,"x_min":56,"x_max":1469,"o":"m 428 -8 q 397 2 408 -8 q 376 33 385 13 l 63 936 q 66 973 56 958 q 100 988 76 988 q 129 979 118 988 q 147 950 140 971 l 451 61 l 407 61 l 714 946 q 733 977 722 967 q 763 988 743 988 q 791 977 781 988 q 808 946 801 967 l 1114 61 l 1072 61 l 1379 950 q 1397 978 1385 969 q 1426 988 1408 988 q 1459 974 1449 988 q 1460 936 1469 960 l 1146 33 q 1126 2 1138 13 q 1094 -8 1115 -8 q 1063 2 1075 -8 q 1043 33 1051 13 l 747 890 l 775 890 l 478 33 q 459 2 469 13 q 428 -8 449 -8 m 800 1068 q 779 1056 790 1057 q 759 1060 768 1054 q 747 1077 750 1067 q 753 1100 744 1088 l 883 1289 q 906 1308 893 1304 q 931 1308 919 1313 q 951 1295 943 1304 q 960 1274 960 1286 q 949 1249 960 1263 l 800 1068 z "},"Ŵ":{"ha":1522,"x_min":56,"x_max":1469,"o":"m 428 -8 q 397 2 408 -8 q 376 33 385 13 l 63 936 q 66 973 56 958 q 100 988 76 988 q 129 979 118 988 q 147 950 140 971 l 451 61 l 407 61 l 714 946 q 733 977 722 967 q 763 988 743 988 q 791 977 781 988 q 808 946 801 967 l 1114 61 l 1072 61 l 1379 950 q 1397 978 1385 969 q 1426 988 1408 988 q 1459 974 1449 988 q 1460 936 1469 960 l 1146 33 q 1126 2 1138 13 q 1094 -8 1115 -8 q 1063 2 1075 -8 q 1043 33 1051 13 l 747 890 l 775 890 l 478 33 q 459 2 469 13 q 428 -8 449 -8 m 619 1065 q 598 1053 610 1054 q 577 1057 586 1051 q 566 1073 568 1063 q 572 1094 564 1083 l 704 1279 q 730 1303 715 1297 q 761 1310 744 1310 q 792 1303 778 1310 q 819 1279 807 1297 l 950 1094 q 956 1073 958 1083 q 945 1057 954 1063 q 924 1053 936 1051 q 903 1065 913 1054 l 761 1238 l 619 1065 z "},"Ẅ":{"ha":1522,"x_min":56,"x_max":1469,"o":"m 428 -8 q 397 2 408 -8 q 376 33 385 13 l 63 936 q 66 973 56 958 q 100 988 76 988 q 129 979 118 988 q 147 950 140 971 l 451 61 l 407 61 l 714 946 q 733 977 722 967 q 763 988 743 988 q 791 977 781 988 q 808 946 801 967 l 1114 61 l 1072 61 l 1379 950 q 1397 978 1385 969 q 1426 988 1408 988 q 1459 974 1449 988 q 1460 936 1469 960 l 1146 33 q 1126 2 1138 13 q 1094 -8 1115 -8 q 1063 2 1075 -8 q 1043 33 1051 13 l 747 890 l 775 890 l 478 33 q 459 2 469 13 q 428 -8 449 -8 m 878 1125 q 837 1139 851 1125 q 822 1181 822 1153 q 837 1221 822 1207 q 878 1235 851 1235 q 919 1221 904 1235 q 933 1181 933 1207 q 919 1139 933 1153 q 878 1125 904 1125 m 646 1125 q 604 1139 619 1125 q 589 1181 589 1153 q 604 1221 589 1207 q 646 1235 619 1235 q 686 1221 672 1235 q 700 1181 700 1207 q 686 1139 700 1153 q 646 1125 672 1125 z "},"Ẁ":{"ha":1522,"x_min":56,"x_max":1469,"o":"m 428 -8 q 397 2 408 -8 q 376 33 385 13 l 63 936 q 66 973 56 958 q 100 988 76 988 q 129 979 118 988 q 147 950 140 971 l 451 61 l 407 61 l 714 946 q 733 977 722 967 q 763 988 743 988 q 791 977 781 988 q 808 946 801 967 l 1114 61 l 1072 61 l 1379 950 q 1397 978 1385 969 q 1426 988 1408 988 q 1459 974 1449 988 q 1460 936 1469 960 l 1146 33 q 1126 2 1138 13 q 1094 -8 1115 -8 q 1063 2 1075 -8 q 1043 33 1051 13 l 747 890 l 775 890 l 478 33 q 459 2 469 13 q 428 -8 449 -8 m 722 1068 l 574 1249 q 563 1274 563 1263 q 572 1295 564 1286 q 592 1308 579 1304 q 617 1308 604 1313 q 639 1289 629 1304 l 771 1100 q 776 1077 779 1088 q 765 1060 774 1067 q 744 1056 756 1054 q 722 1068 732 1057 z "},"X":{"ha":889,"x_min":51,"x_max":839,"o":"m 93 -8 q 65 1 75 -8 q 53 23 54 10 q 61 50 51 36 l 406 515 l 406 488 l 83 925 q 73 956 72 942 q 85 978 74 969 q 111 988 96 988 q 137 981 126 988 q 158 960 147 975 l 460 549 l 433 549 l 732 960 q 753 981 742 975 q 779 988 764 988 q 806 979 796 988 q 817 956 817 971 q 807 925 818 942 l 483 488 l 483 515 l 828 50 q 838 23 839 36 q 825 1 836 10 q 796 -8 814 -8 q 772 -1 783 -8 q 749 19 760 6 l 426 460 l 463 460 l 140 19 q 118 -1 131 6 q 93 -8 106 -8 z "},"Y":{"ha":814,"x_min":18,"x_max":797,"o":"m 407 -8 q 375 3 386 -8 q 364 38 364 15 l 364 508 l 385 442 l 29 926 q 19 956 18 942 q 30 979 19 971 q 56 988 40 988 q 83 981 71 988 q 104 960 94 975 l 421 526 l 396 526 l 714 960 q 735 981 725 975 q 761 988 746 988 q 786 979 776 988 q 797 956 796 971 q 785 925 797 942 l 431 442 l 450 508 l 450 38 q 407 -8 450 -8 z "},"Ý":{"ha":814,"x_min":18,"x_max":797,"o":"m 407 -8 q 375 3 386 -8 q 364 38 364 15 l 364 508 l 385 442 l 29 926 q 19 956 18 942 q 30 979 19 971 q 56 988 40 988 q 83 981 71 988 q 104 960 94 975 l 421 526 l 396 526 l 714 960 q 735 981 725 975 q 761 988 746 988 q 786 979 776 988 q 797 956 796 971 q 785 925 797 942 l 431 442 l 450 508 l 450 38 q 407 -8 450 -8 m 446 1068 q 425 1056 436 1057 q 405 1060 414 1054 q 393 1077 396 1067 q 399 1100 390 1088 l 529 1289 q 552 1308 539 1304 q 577 1308 565 1313 q 597 1295 589 1304 q 606 1274 606 1286 q 594 1249 606 1263 l 446 1068 z "},"Ŷ":{"ha":814,"x_min":18,"x_max":797,"o":"m 407 -8 q 375 3 386 -8 q 364 38 364 15 l 364 508 l 385 442 l 29 926 q 19 956 18 942 q 30 979 19 971 q 56 988 40 988 q 83 981 71 988 q 104 960 94 975 l 421 526 l 396 526 l 714 960 q 735 981 725 975 q 761 988 746 988 q 786 979 776 988 q 797 956 796 971 q 785 925 797 942 l 431 442 l 450 508 l 450 38 q 407 -8 450 -8 m 265 1065 q 244 1053 256 1054 q 223 1057 232 1051 q 212 1073 214 1063 q 218 1094 210 1083 l 350 1279 q 376 1303 361 1297 q 407 1310 390 1310 q 438 1303 424 1310 q 465 1279 453 1297 l 596 1094 q 602 1073 604 1083 q 591 1057 600 1063 q 570 1053 582 1051 q 549 1065 558 1054 l 407 1238 l 265 1065 z "},"Ÿ":{"ha":814,"x_min":18,"x_max":797,"o":"m 407 -8 q 375 3 386 -8 q 364 38 364 15 l 364 508 l 385 442 l 29 926 q 19 956 18 942 q 30 979 19 971 q 56 988 40 988 q 83 981 71 988 q 104 960 94 975 l 421 526 l 396 526 l 714 960 q 735 981 725 975 q 761 988 746 988 q 786 979 776 988 q 797 956 796 971 q 785 925 797 942 l 431 442 l 450 508 l 450 38 q 407 -8 450 -8 m 524 1125 q 483 1139 497 1125 q 468 1181 468 1153 q 483 1221 468 1207 q 524 1235 497 1235 q 565 1221 550 1235 q 579 1181 579 1207 q 565 1139 579 1153 q 524 1125 550 1125 m 292 1125 q 250 1139 265 1125 q 235 1181 235 1153 q 250 1221 235 1207 q 292 1235 265 1235 q 332 1221 318 1235 q 346 1181 346 1207 q 332 1139 346 1153 q 292 1125 318 1125 z "},"Ẏ":{"ha":814,"x_min":18,"x_max":797,"o":"m 407 -8 q 375 3 386 -8 q 364 38 364 15 l 364 508 l 385 442 l 29 926 q 19 956 18 942 q 30 979 19 971 q 56 988 40 988 q 83 981 71 988 q 104 960 94 975 l 421 526 l 396 526 l 714 960 q 735 981 725 975 q 761 988 746 988 q 786 979 776 988 q 797 956 796 971 q 785 925 797 942 l 431 442 l 450 508 l 450 38 q 407 -8 450 -8 m 407 1124 q 365 1139 381 1124 q 350 1181 350 1154 q 365 1223 350 1208 q 407 1238 381 1238 q 449 1223 435 1238 q 464 1181 464 1208 q 449 1139 464 1154 q 407 1124 435 1124 z "},"Ỵ":{"ha":814,"x_min":18,"x_max":797,"o":"m 407 -8 q 375 3 386 -8 q 364 38 364 15 l 364 508 l 385 442 l 29 926 q 19 956 18 942 q 30 979 19 971 q 56 988 40 988 q 83 981 71 988 q 104 960 94 975 l 421 526 l 396 526 l 714 960 q 735 981 725 975 q 761 988 746 988 q 786 979 776 988 q 797 956 796 971 q 785 925 797 942 l 431 442 l 450 508 l 450 38 q 407 -8 450 -8 m 407 -254 q 365 -239 381 -254 q 349 -196 349 -224 q 365 -154 349 -168 q 407 -140 381 -140 q 450 -154 435 -140 q 465 -196 465 -168 q 450 -239 465 -224 q 407 -254 435 -254 z "},"Ỳ":{"ha":814,"x_min":18,"x_max":797,"o":"m 407 -8 q 375 3 386 -8 q 364 38 364 15 l 364 508 l 385 442 l 29 926 q 19 956 18 942 q 30 979 19 971 q 56 988 40 988 q 83 981 71 988 q 104 960 94 975 l 421 526 l 396 526 l 714 960 q 735 981 725 975 q 761 988 746 988 q 786 979 776 988 q 797 956 796 971 q 785 925 797 942 l 431 442 l 450 508 l 450 38 q 407 -8 450 -8 m 368 1068 l 219 1249 q 209 1274 208 1263 q 217 1295 210 1286 q 238 1308 225 1304 q 263 1308 250 1313 q 285 1289 275 1304 l 417 1100 q 422 1077 425 1088 q 410 1060 419 1067 q 390 1056 401 1054 q 368 1068 378 1057 z "},"Ƴ":{"ha":847,"x_min":18,"x_max":919,"o":"m 407 -8 q 375 4 386 -8 q 364 39 364 17 l 364 508 l 385 442 l 29 926 q 19 956 18 942 q 30 979 19 971 q 56 988 40 988 q 76 985 68 988 q 90 976 83 983 q 106 958 97 969 l 421 526 l 397 526 l 650 886 q 706 945 675 922 q 769 978 736 968 q 840 989 803 989 q 899 982 879 989 q 919 949 919 975 q 916 932 919 939 q 906 922 913 925 q 888 918 899 918 q 869 919 882 918 q 850 921 856 921 q 781 905 815 921 q 718 850 747 889 l 431 442 l 450 508 l 450 39 q 407 -8 450 -8 z "},"Ỷ":{"ha":814,"x_min":18,"x_max":797,"o":"m 407 -8 q 375 3 386 -8 q 364 38 364 15 l 364 508 l 385 442 l 29 926 q 19 956 18 942 q 30 979 19 971 q 56 988 40 988 q 83 981 71 988 q 104 960 94 975 l 421 526 l 396 526 l 714 960 q 735 981 725 975 q 761 988 746 988 q 786 979 776 988 q 797 956 796 971 q 785 925 797 942 l 431 442 l 450 508 l 450 38 q 407 -8 450 -8 m 407 1054 q 383 1061 392 1054 q 375 1083 375 1068 q 389 1131 375 1113 q 421 1161 403 1149 q 453 1186 439 1174 q 467 1215 467 1199 q 450 1241 467 1232 q 397 1250 433 1250 q 369 1248 385 1250 q 338 1240 353 1246 q 308 1237 318 1235 q 293 1251 297 1239 q 295 1274 290 1264 q 315 1290 300 1285 q 362 1303 336 1299 q 411 1307 388 1307 q 506 1284 472 1307 q 540 1224 540 1261 q 525 1176 540 1193 q 490 1147 510 1158 q 456 1119 471 1135 q 440 1076 440 1104 q 431 1060 440 1067 q 407 1054 422 1054 z "},"Ȳ":{"ha":814,"x_min":18,"x_max":797,"o":"m 407 -8 q 375 3 386 -8 q 364 38 364 15 l 364 508 l 385 442 l 29 926 q 19 956 18 942 q 30 979 19 971 q 56 988 40 988 q 83 981 71 988 q 104 960 94 975 l 421 526 l 396 526 l 714 960 q 735 981 725 975 q 761 988 746 988 q 786 979 776 988 q 797 956 796 971 q 785 925 797 942 l 431 442 l 450 508 l 450 38 q 407 -8 450 -8 m 219 1136 q 185 1168 185 1136 q 194 1193 185 1185 q 219 1201 203 1201 l 594 1201 q 629 1168 629 1201 q 620 1145 629 1154 q 594 1136 611 1136 l 219 1136 z "},"Ỹ":{"ha":814,"x_min":18,"x_max":797,"o":"m 407 -8 q 375 3 386 -8 q 364 38 364 15 l 364 508 l 385 442 l 29 926 q 19 956 18 942 q 30 979 19 971 q 56 988 40 988 q 83 981 71 988 q 104 960 94 975 l 421 526 l 396 526 l 714 960 q 735 981 725 975 q 761 988 746 988 q 786 979 776 988 q 797 956 796 971 q 785 925 797 942 l 431 442 l 450 508 l 450 38 q 407 -8 450 -8 m 156 1089 q 135 1099 143 1090 q 129 1124 128 1107 q 183 1234 142 1194 q 283 1274 225 1274 q 354 1256 321 1274 q 419 1217 388 1239 q 478 1178 450 1196 q 535 1161 507 1161 q 597 1187 572 1161 q 629 1257 621 1213 q 641 1276 633 1269 q 658 1282 649 1282 q 679 1272 671 1281 q 685 1247 688 1264 q 631 1138 672 1178 q 532 1097 590 1097 q 460 1115 494 1097 q 396 1153 426 1132 q 336 1192 365 1175 q 279 1210 307 1210 q 217 1184 242 1210 q 185 1114 193 1158 q 174 1096 182 1103 q 156 1089 167 1089 z "},"Z":{"ha":808,"x_min":58,"x_max":786,"o":"m 107 0 q 81 7 92 0 q 65 26 69 14 q 65 53 61 38 q 81 86 68 68 l 681 942 l 681 903 l 101 903 q 69 913 81 903 q 58 942 58 924 q 69 969 58 960 q 101 979 81 979 l 717 979 q 744 972 733 979 q 760 953 756 965 q 760 926 764 942 q 744 893 756 911 l 144 39 l 144 76 l 743 76 q 775 67 764 76 q 786 39 786 57 q 775 10 786 19 q 743 0 764 0 l 107 0 z "},"Ź":{"ha":808,"x_min":58,"x_max":786,"o":"m 107 0 q 81 7 92 0 q 65 26 69 14 q 65 53 61 38 q 81 86 68 68 l 681 942 l 681 903 l 101 903 q 69 913 81 903 q 58 942 58 924 q 69 969 58 960 q 101 979 81 979 l 717 979 q 744 972 733 979 q 760 953 756 965 q 760 926 764 942 q 744 893 756 911 l 144 39 l 144 76 l 743 76 q 775 67 764 76 q 786 39 786 57 q 775 10 786 19 q 743 0 764 0 l 107 0 m 460 1068 q 439 1056 450 1057 q 419 1060 428 1054 q 407 1077 410 1067 q 413 1100 404 1088 l 543 1289 q 566 1308 553 1304 q 591 1308 579 1313 q 611 1295 603 1304 q 619 1274 619 1286 q 608 1249 619 1263 l 460 1068 z "},"Ž":{"ha":808,"x_min":58,"x_max":786,"o":"m 107 0 q 81 7 92 0 q 65 26 69 14 q 65 53 61 38 q 81 86 68 68 l 681 942 l 681 903 l 101 903 q 69 913 81 903 q 58 942 58 924 q 69 969 58 960 q 101 979 81 979 l 717 979 q 744 972 733 979 q 760 953 756 965 q 760 926 764 942 q 744 893 756 911 l 144 39 l 144 76 l 743 76 q 775 67 764 76 q 786 39 786 57 q 775 10 786 19 q 743 0 764 0 l 107 0 m 421 1051 q 390 1058 404 1051 q 364 1082 375 1065 l 232 1267 q 226 1290 224 1279 q 237 1306 228 1300 q 258 1310 246 1311 q 279 1296 269 1308 l 421 1125 l 563 1296 q 584 1310 572 1308 q 605 1306 596 1311 q 616 1290 614 1300 q 610 1267 618 1279 l 479 1082 q 452 1058 467 1065 q 421 1051 438 1051 z "},"Ż":{"ha":808,"x_min":58,"x_max":786,"o":"m 107 0 q 81 7 92 0 q 65 26 69 14 q 65 53 61 38 q 81 86 68 68 l 681 942 l 681 903 l 101 903 q 69 913 81 903 q 58 942 58 924 q 69 969 58 960 q 101 979 81 979 l 717 979 q 744 972 733 979 q 760 953 756 965 q 760 926 764 942 q 744 893 756 911 l 144 39 l 144 76 l 743 76 q 775 67 764 76 q 786 39 786 57 q 775 10 786 19 q 743 0 764 0 l 107 0 m 421 1124 q 379 1139 394 1124 q 364 1181 364 1154 q 379 1223 364 1208 q 421 1238 394 1238 q 463 1223 449 1238 q 478 1181 478 1208 q 463 1139 478 1154 q 421 1124 449 1124 z "},"Ẓ":{"ha":808,"x_min":58,"x_max":786,"o":"m 107 0 q 81 7 92 0 q 65 26 69 14 q 65 53 61 38 q 81 86 68 68 l 681 942 l 681 903 l 101 903 q 69 913 81 903 q 58 942 58 924 q 69 969 58 960 q 101 979 81 979 l 717 979 q 744 972 733 979 q 760 953 756 965 q 760 926 764 942 q 744 893 756 911 l 144 39 l 144 76 l 743 76 q 775 67 764 76 q 786 39 786 57 q 775 10 786 19 q 743 0 764 0 l 107 0 m 422 -254 q 380 -239 396 -254 q 364 -196 364 -224 q 380 -154 364 -168 q 422 -140 396 -140 q 465 -154 450 -140 q 481 -196 481 -168 q 465 -239 481 -224 q 422 -254 450 -254 z "},"a":{"ha":725,"x_min":82,"x_max":615,"o":"m 319 -11 q 198 15 251 -11 q 113 88 144 42 q 82 190 82 133 q 119 308 82 265 q 246 369 157 351 q 490 386 335 386 l 550 386 l 550 324 l 492 324 q 297 313 367 324 q 199 275 226 303 q 171 197 171 247 q 214 96 171 135 q 331 57 257 57 q 435 85 390 57 q 507 164 481 114 q 533 278 533 214 l 533 436 q 496 572 533 529 q 376 614 458 614 q 274 600 324 614 q 169 556 225 586 q 142 550 154 547 q 124 561 131 553 q 116 581 118 569 q 119 604 114 593 q 139 622 125 615 q 258 670 197 654 q 375 686 318 686 q 510 658 457 686 q 590 575 564 631 q 615 432 615 519 l 615 35 q 606 3 615 14 q 576 -8 596 -8 q 546 3 557 -8 q 535 35 535 14 l 535 163 l 549 163 q 504 69 536 108 q 425 10 472 31 q 319 -11 378 -11 z "},"á":{"ha":725,"x_min":82,"x_max":615,"o":"m 319 -11 q 198 15 251 -11 q 113 88 144 42 q 82 190 82 133 q 119 308 82 265 q 246 369 157 351 q 490 386 335 386 l 550 386 l 550 324 l 492 324 q 297 313 367 324 q 199 275 226 303 q 171 197 171 247 q 214 96 171 135 q 331 57 257 57 q 435 85 390 57 q 507 164 481 114 q 533 278 533 214 l 533 436 q 496 572 533 529 q 376 614 458 614 q 274 600 324 614 q 169 556 225 586 q 142 550 154 547 q 124 561 131 553 q 116 581 118 569 q 119 604 114 593 q 139 622 125 615 q 258 670 197 654 q 375 686 318 686 q 510 658 457 686 q 590 575 564 631 q 615 432 615 519 l 615 35 q 606 3 615 14 q 576 -8 596 -8 q 546 3 557 -8 q 535 35 535 14 l 535 163 l 549 163 q 504 69 536 108 q 425 10 472 31 q 319 -11 378 -11 m 408 769 q 390 756 401 758 q 369 759 379 754 q 354 774 358 764 q 357 799 350 785 l 479 1033 q 500 1055 488 1050 q 525 1057 513 1060 q 547 1045 538 1054 q 558 1024 556 1036 q 551 997 560 1011 l 408 769 z "},"ă":{"ha":725,"x_min":82,"x_max":615,"o":"m 319 -11 q 198 15 251 -11 q 113 88 144 42 q 82 190 82 133 q 119 308 82 265 q 246 369 157 351 q 490 386 335 386 l 550 386 l 550 324 l 492 324 q 297 313 367 324 q 199 275 226 303 q 171 197 171 247 q 214 96 171 135 q 331 57 257 57 q 435 85 390 57 q 507 164 481 114 q 533 278 533 214 l 533 436 q 496 572 533 529 q 376 614 458 614 q 274 600 324 614 q 169 556 225 586 q 142 550 154 547 q 124 561 131 553 q 116 581 118 569 q 119 604 114 593 q 139 622 125 615 q 258 670 197 654 q 375 686 318 686 q 510 658 457 686 q 590 575 564 631 q 615 432 615 519 l 615 35 q 606 3 615 14 q 576 -8 596 -8 q 546 3 557 -8 q 535 35 535 14 l 535 163 l 549 163 q 504 69 536 108 q 425 10 472 31 q 319 -11 378 -11 m 372 761 q 272 789 315 761 q 203 869 229 817 q 167 996 176 922 q 174 1022 165 1013 q 196 1032 183 1032 q 215 1024 207 1032 q 226 1003 224 1017 q 274 868 236 913 q 372 824 313 824 q 472 868 432 824 q 518 1003 511 913 q 529 1024 521 1017 q 549 1032 538 1032 q 570 1022 561 1032 q 578 996 579 1013 q 542 869 569 922 q 472 789 515 817 q 372 761 429 761 z "},"ắ":{"ha":725,"x_min":82,"x_max":615,"o":"m 319 -11 q 198 15 251 -11 q 113 88 144 42 q 82 190 82 133 q 119 308 82 265 q 246 369 157 351 q 490 386 335 386 l 550 386 l 550 324 l 492 324 q 297 313 367 324 q 199 275 226 303 q 171 197 171 247 q 214 96 171 135 q 331 57 257 57 q 435 85 390 57 q 507 164 481 114 q 533 278 533 214 l 533 436 q 496 572 533 529 q 376 614 458 614 q 274 600 324 614 q 169 556 225 586 q 142 550 154 547 q 124 561 131 553 q 116 581 118 569 q 119 604 114 593 q 139 622 125 615 q 258 670 197 654 q 375 686 318 686 q 510 658 457 686 q 590 575 564 631 q 615 432 615 519 l 615 35 q 606 3 615 14 q 576 -8 596 -8 q 546 3 557 -8 q 535 35 535 14 l 535 163 l 549 163 q 504 69 536 108 q 425 10 472 31 q 319 -11 378 -11 m 372 761 q 235 809 289 761 q 168 940 181 857 q 172 968 165 958 q 192 979 179 978 q 212 974 204 981 q 222 950 219 967 q 272 856 232 889 q 372 822 311 822 q 473 856 433 822 q 522 950 513 889 q 535 974 526 967 q 554 979 543 981 q 574 967 568 978 q 576 939 581 956 q 541 844 569 883 q 469 783 513 804 q 372 761 426 761 m 393 908 q 375 898 386 899 q 356 903 364 897 q 344 918 347 908 q 350 942 342 928 l 456 1107 q 477 1127 464 1122 q 502 1128 490 1132 q 522 1116 514 1125 q 530 1094 529 1107 q 519 1069 531 1082 l 393 908 z "},"ặ":{"ha":725,"x_min":82,"x_max":615,"o":"m 319 -11 q 198 15 251 -11 q 113 88 144 42 q 82 190 82 133 q 119 308 82 265 q 246 369 157 351 q 490 386 335 386 l 550 386 l 550 324 l 492 324 q 297 313 367 324 q 199 275 226 303 q 171 197 171 247 q 214 96 171 135 q 331 57 257 57 q 435 85 390 57 q 507 164 481 114 q 533 278 533 214 l 533 436 q 496 572 533 529 q 376 614 458 614 q 274 600 324 614 q 169 556 225 586 q 142 550 154 547 q 124 561 131 553 q 116 581 118 569 q 119 604 114 593 q 139 622 125 615 q 258 670 197 654 q 375 686 318 686 q 510 658 457 686 q 590 575 564 631 q 615 432 615 519 l 615 35 q 606 3 615 14 q 576 -8 596 -8 q 546 3 557 -8 q 535 35 535 14 l 535 163 l 549 163 q 504 69 536 108 q 425 10 472 31 q 319 -11 378 -11 m 368 -254 q 326 -239 342 -254 q 310 -196 310 -224 q 326 -154 310 -168 q 368 -140 342 -140 q 411 -154 396 -140 q 426 -196 426 -168 q 411 -239 426 -224 q 368 -254 396 -254 m 372 761 q 272 789 315 761 q 203 869 229 817 q 167 996 176 922 q 174 1022 165 1013 q 196 1032 183 1032 q 215 1024 207 1032 q 226 1003 224 1017 q 274 868 236 913 q 372 824 313 824 q 472 868 432 824 q 518 1003 511 913 q 529 1024 521 1017 q 549 1032 538 1032 q 570 1022 561 1032 q 578 996 579 1013 q 542 869 569 922 q 472 789 515 817 q 372 761 429 761 z "},"ằ":{"ha":725,"x_min":82,"x_max":615,"o":"m 319 -11 q 198 15 251 -11 q 113 88 144 42 q 82 190 82 133 q 119 308 82 265 q 246 369 157 351 q 490 386 335 386 l 550 386 l 550 324 l 492 324 q 297 313 367 324 q 199 275 226 303 q 171 197 171 247 q 214 96 171 135 q 331 57 257 57 q 435 85 390 57 q 507 164 481 114 q 533 278 533 214 l 533 436 q 496 572 533 529 q 376 614 458 614 q 274 600 324 614 q 169 556 225 586 q 142 550 154 547 q 124 561 131 553 q 116 581 118 569 q 119 604 114 593 q 139 622 125 615 q 258 670 197 654 q 375 686 318 686 q 510 658 457 686 q 590 575 564 631 q 615 432 615 519 l 615 35 q 606 3 615 14 q 576 -8 596 -8 q 546 3 557 -8 q 535 35 535 14 l 535 163 l 549 163 q 504 69 536 108 q 425 10 472 31 q 319 -11 378 -11 m 372 761 q 235 808 290 761 q 168 939 181 856 q 172 967 165 956 q 190 979 178 978 q 211 974 203 981 q 222 950 219 967 q 272 856 232 889 q 372 822 311 822 q 473 856 433 822 q 522 950 513 889 q 534 974 526 967 q 553 979 542 981 q 574 968 567 978 q 576 940 581 958 q 541 844 568 885 q 471 783 514 804 q 372 761 428 761 m 351 908 l 225 1069 q 215 1094 214 1082 q 223 1116 215 1107 q 242 1128 231 1125 q 267 1127 254 1132 q 289 1107 281 1122 l 394 942 q 400 918 403 928 q 389 903 397 908 q 369 898 381 897 q 351 908 358 899 z "},"ẳ":{"ha":725,"x_min":82,"x_max":615,"o":"m 319 -11 q 198 15 251 -11 q 113 88 144 42 q 82 190 82 133 q 119 308 82 265 q 246 369 157 351 q 490 386 335 386 l 550 386 l 550 324 l 492 324 q 297 313 367 324 q 199 275 226 303 q 171 197 171 247 q 214 96 171 135 q 331 57 257 57 q 435 85 390 57 q 507 164 481 114 q 533 278 533 214 l 533 436 q 496 572 533 529 q 376 614 458 614 q 274 600 324 614 q 169 556 225 586 q 142 550 154 547 q 124 561 131 553 q 116 581 118 569 q 119 604 114 593 q 139 622 125 615 q 258 670 197 654 q 375 686 318 686 q 510 658 457 686 q 590 575 564 631 q 615 432 615 519 l 615 35 q 606 3 615 14 q 576 -8 596 -8 q 546 3 557 -8 q 535 35 535 14 l 535 163 l 549 163 q 504 69 536 108 q 425 10 472 31 q 319 -11 378 -11 m 372 761 q 235 808 290 761 q 168 939 181 856 q 172 967 165 956 q 190 979 178 978 q 211 974 203 981 q 222 950 219 967 q 272 856 232 889 q 372 822 311 822 q 473 856 433 822 q 522 950 513 889 q 534 974 526 967 q 553 979 542 981 q 574 968 567 978 q 576 940 581 958 q 542 844 569 885 q 471 783 514 804 q 372 761 428 761 m 390 908 q 367 904 378 903 q 351 911 357 906 q 347 925 346 917 q 361 942 349 933 q 413 984 396 964 q 431 1029 431 1004 q 415 1060 431 1050 q 364 1071 400 1071 q 337 1069 351 1071 q 306 1063 322 1067 q 281 1063 290 1060 q 267 1076 271 1065 q 269 1096 264 1088 q 289 1110 274 1104 q 331 1119 308 1117 q 378 1122 354 1122 q 467 1103 435 1122 q 500 1042 500 1083 q 485 987 500 1011 q 444 943 469 963 q 390 908 418 924 z "},"ẵ":{"ha":725,"x_min":82,"x_max":615,"o":"m 319 -11 q 198 15 251 -11 q 113 88 144 42 q 82 190 82 133 q 119 308 82 265 q 246 369 157 351 q 490 386 335 386 l 550 386 l 550 324 l 492 324 q 297 313 367 324 q 199 275 226 303 q 171 197 171 247 q 214 96 171 135 q 331 57 257 57 q 435 85 390 57 q 507 164 481 114 q 533 278 533 214 l 533 436 q 496 572 533 529 q 376 614 458 614 q 274 600 324 614 q 169 556 225 586 q 142 550 154 547 q 124 561 131 553 q 116 581 118 569 q 119 604 114 593 q 139 622 125 615 q 258 670 197 654 q 375 686 318 686 q 510 658 457 686 q 590 575 564 631 q 615 432 615 519 l 615 35 q 606 3 615 14 q 576 -8 596 -8 q 546 3 557 -8 q 535 35 535 14 l 535 163 l 549 163 q 504 69 536 108 q 425 10 472 31 q 319 -11 378 -11 m 372 761 q 249 794 301 761 q 174 882 197 828 q 173 908 168 899 q 190 921 178 918 q 212 918 203 924 q 228 900 221 913 q 283 843 246 864 q 372 822 321 822 q 462 843 425 822 q 517 900 499 864 q 533 918 524 913 q 554 921 542 924 q 573 908 568 918 q 571 882 578 899 q 496 794 547 828 q 372 761 444 761 m 189 982 q 171 993 178 983 q 168 1019 164 1003 q 210 1096 179 1071 q 283 1121 240 1121 q 351 1101 322 1121 q 405 1063 379 1082 q 460 1043 431 1043 q 501 1055 485 1043 q 524 1094 517 1067 q 535 1117 526 1110 q 557 1124 544 1125 q 575 1113 569 1122 q 578 1086 581 1103 q 536 1009 567 1035 q 463 983 506 983 q 394 1003 424 983 q 340 1042 365 1022 q 285 1061 314 1061 q 244 1049 260 1061 q 222 1010 229 1038 q 210 988 218 996 q 189 982 203 981 z "},"ǎ":{"ha":725,"x_min":82,"x_max":615,"o":"m 319 -11 q 198 15 251 -11 q 113 88 144 42 q 82 190 82 133 q 119 308 82 265 q 246 369 157 351 q 490 386 335 386 l 550 386 l 550 324 l 492 324 q 297 313 367 324 q 199 275 226 303 q 171 197 171 247 q 214 96 171 135 q 331 57 257 57 q 435 85 390 57 q 507 164 481 114 q 533 278 533 214 l 533 436 q 496 572 533 529 q 376 614 458 614 q 274 600 324 614 q 169 556 225 586 q 142 550 154 547 q 124 561 131 553 q 116 581 118 569 q 119 604 114 593 q 139 622 125 615 q 258 670 197 654 q 375 686 318 686 q 510 658 457 686 q 590 575 564 631 q 615 432 615 519 l 615 35 q 606 3 615 14 q 576 -8 596 -8 q 546 3 557 -8 q 535 35 535 14 l 535 163 l 549 163 q 504 69 536 108 q 425 10 472 31 q 319 -11 378 -11 m 372 749 q 342 758 356 749 q 318 785 328 767 l 196 1008 q 192 1033 189 1022 q 206 1048 196 1043 q 226 1051 215 1053 q 243 1038 236 1049 l 372 828 l 501 1038 q 519 1051 508 1049 q 539 1048 529 1053 q 552 1033 549 1043 q 549 1008 556 1022 l 426 785 q 403 758 417 767 q 372 749 389 749 z "},"â":{"ha":725,"x_min":82,"x_max":615,"o":"m 319 -11 q 198 15 251 -11 q 113 88 144 42 q 82 190 82 133 q 119 308 82 265 q 246 369 157 351 q 490 386 335 386 l 550 386 l 550 324 l 492 324 q 297 313 367 324 q 199 275 226 303 q 171 197 171 247 q 214 96 171 135 q 331 57 257 57 q 435 85 390 57 q 507 164 481 114 q 533 278 533 214 l 533 436 q 496 572 533 529 q 376 614 458 614 q 274 600 324 614 q 169 556 225 586 q 142 550 154 547 q 124 561 131 553 q 116 581 118 569 q 119 604 114 593 q 139 622 125 615 q 258 670 197 654 q 375 686 318 686 q 510 658 457 686 q 590 575 564 631 q 615 432 615 519 l 615 35 q 606 3 615 14 q 576 -8 596 -8 q 546 3 557 -8 q 535 35 535 14 l 535 163 l 549 163 q 504 69 536 108 q 425 10 472 31 q 319 -11 378 -11 m 549 799 q 552 774 556 785 q 539 759 549 764 q 519 756 529 754 q 501 769 508 758 l 372 979 l 243 769 q 226 756 236 758 q 206 759 215 754 q 192 774 196 764 q 196 799 189 785 l 318 1022 q 342 1050 328 1042 q 372 1058 356 1058 q 403 1050 389 1058 q 426 1022 417 1042 l 549 799 z "},"ấ":{"ha":725,"x_min":82,"x_max":681,"o":"m 319 -11 q 198 15 251 -11 q 113 88 144 42 q 82 190 82 133 q 119 308 82 265 q 246 369 157 351 q 490 386 335 386 l 550 386 l 550 324 l 492 324 q 297 313 367 324 q 199 275 226 303 q 171 197 171 247 q 214 96 171 135 q 331 57 257 57 q 435 85 390 57 q 507 164 481 114 q 533 278 533 214 l 533 436 q 496 572 533 529 q 376 614 458 614 q 274 600 324 614 q 169 556 225 586 q 142 550 154 547 q 124 561 131 553 q 116 581 118 569 q 119 604 114 593 q 139 622 125 615 q 258 670 197 654 q 375 686 318 686 q 510 658 457 686 q 590 575 564 631 q 615 432 615 519 l 615 35 q 606 3 615 14 q 576 -8 596 -8 q 546 3 557 -8 q 535 35 535 14 l 535 163 l 549 163 q 504 69 536 108 q 425 10 472 31 q 319 -11 378 -11 m 243 768 q 223 756 233 757 q 204 759 213 754 q 194 774 196 764 q 200 797 192 785 l 317 968 q 342 992 328 986 q 372 999 357 999 q 393 997 383 999 q 412 988 403 994 q 428 968 421 981 l 544 797 q 551 774 553 785 q 541 759 549 764 q 522 756 533 754 q 501 768 511 757 l 372 926 l 243 768 m 550 901 q 533 891 543 892 q 515 895 524 890 q 505 910 507 900 q 510 933 503 919 l 610 1104 q 630 1125 618 1121 q 653 1126 642 1129 q 672 1115 664 1124 q 680 1094 679 1106 q 672 1069 681 1082 l 550 901 z "}}}
